<?xml version="1.0" encoding="UTF-8"?>
<svg version="1.1" xmlns="http://www.w3.org/2000/svg" width="800" height="800">
<path d="M0 0 C2.47158025 1.91993652 3.65475087 3.67880384 4.22265625 6.76171875 C3.28241085 12.40319118 -3.51364074 16.41982888 -7.77734375 20.01171875 C-17.91966668 28.65431627 -27.58710432 37.67200465 -37.02734375 47.07421875 C-37.82809326 47.87029541 -38.62884277 48.66637207 -39.45385742 49.48657227 C-43.69714085 53.74135151 -47.78323952 58.07387776 -51.70239258 62.62915039 C-53.64075351 64.88165408 -55.64611322 67.0696559 -57.65234375 69.26171875 C-61.2519156 73.25518314 -64.66731339 77.34646646 -67.9921875 81.5703125 C-69.6572475 83.68016884 -71.33592921 85.77409075 -73.03125 87.859375 C-78.90672128 95.10357481 -84.51368139 102.46188091 -89.875 110.09375 C-91.95347686 113.04469489 -94.13349946 115.90473229 -96.33984375 118.76171875 C-103.77924613 128.62843936 -110.45037747 139.05220822 -117.21484375 149.38671875 C-117.82553711 150.31871094 -118.43623047 151.25070312 -119.06542969 152.2109375 C-132.69234536 173.09198242 -144.92225989 194.75944678 -156.75439453 216.69677734 C-158.24499153 219.44224671 -159.75620311 222.17542058 -161.2734375 224.90625 C-162.29643542 226.75342884 -163.31857455 228.60108357 -164.33984375 230.44921875 C-165.08500244 231.79741699 -165.08500244 231.79741699 -165.84521484 233.17285156 C-168.3670207 237.79463996 -170.74699329 242.44161017 -172.9453125 247.2265625 C-173.38149902 248.17587646 -173.81768555 249.12519043 -174.26708984 250.10327148 C-175.07994927 251.89858537 -175.8771035 253.70113334 -176.65478516 255.51196289 C-179.10415195 260.95494041 -181.77801236 265.5271385 -187.21484375 268.38671875 C-190.97246882 268.70904325 -193.00910256 268.24661747 -196.09082031 266.04882812 C-198.09779893 264.32153566 -199.97142508 262.51273262 -201.83984375 260.63671875 C-202.48179687 260.01539063 -203.12375 259.3940625 -203.78515625 258.75390625 C-205.03459361 257.5403134 -206.27615042 256.3185422 -207.50878906 255.08789062 C-208.59017052 254.00960413 -209.68214434 252.94175345 -210.78808594 251.88867188 C-211.96715722 250.7585557 -213.0969704 249.57740377 -214.21484375 248.38671875 C-214.21484375 247.72671875 -214.21484375 247.06671875 -214.21484375 246.38671875 C-214.87484375 246.38671875 -215.53484375 246.38671875 -216.21484375 246.38671875 C-217.83984375 245.01171875 -217.83984375 245.01171875 -219.21484375 243.38671875 C-219.21484375 242.72671875 -219.21484375 242.06671875 -219.21484375 241.38671875 C-219.7459375 241.18046875 -220.27703125 240.97421875 -220.82421875 240.76171875 C-224.22257811 238.80710683 -226.72540303 236.16548158 -229.46484375 233.38671875 C-230.01914062 232.84015625 -230.5734375 232.29359375 -231.14453125 231.73046875 C-235.21484375 227.64010545 -235.21484375 227.64010545 -235.21484375 225.38671875 C-235.75096786 225.17427521 -236.28709198 224.96183167 -236.83946228 224.74295044 C-240.10790516 222.87682247 -242.57831944 220.32645348 -245.22094727 217.68701172 C-245.8116803 217.1046022 -246.40241333 216.52219269 -247.01104736 215.9221344 C-248.96075908 213.99650199 -250.90274244 212.06330968 -252.84375 210.12890625 C-254.19840609 208.78321902 -255.55313844 207.43760856 -256.90794373 206.09207153 C-259.74697116 203.26953172 -262.58157619 200.44262862 -265.41381836 197.61328125 C-269.03571768 193.99676109 -272.67347937 190.39666256 -276.31546116 186.80038261 C-279.11984779 184.02580782 -281.9128458 181.23997831 -284.70286369 178.45096207 C-286.03875454 177.11926632 -287.37875092 175.79167544 -288.72296333 174.46837997 C-290.60679281 172.61154428 -292.47401693 170.73938947 -294.33813477 168.86279297 C-294.89145981 168.32430222 -295.44478485 167.78581146 -296.01487732 167.23100281 C-300.26955722 162.89512544 -302.94082665 158.21050282 -303.38671875 151.98828125 C-301.84408747 144.76076803 -297.25900879 140.53670543 -292.21484375 135.38671875 C-291.34586183 134.33630104 -290.48851776 133.27593597 -289.65234375 132.19921875 C-287.00596787 129.14570812 -284.12802148 126.65272721 -281.0546875 124.04296875 C-279.0660465 122.34949694 -279.0660465 122.34949694 -277.21484375 119.82421875 C-272.81658617 114.46384232 -267.65954344 111.0246261 -260.83984375 109.76171875 C-250.9920751 109.95867412 -240.72126571 121.30801273 -233.44384766 127.30102539 C-227.88379176 131.87876501 -222.20350439 136.27639567 -216.46142578 140.62280273 C-212.98517716 143.25719147 -209.53497508 145.91387741 -206.13671875 148.6484375 C-205.49557129 149.1626123 -204.85442383 149.67678711 -204.19384766 150.20654297 C-202.98806417 151.17733046 -201.78693085 152.1539321 -200.59130859 153.13720703 C-197.33207874 155.84057415 -197.33207874 155.84057415 -193.21484375 156.38671875 C-191.30923363 153.99013018 -189.60037141 151.61307397 -187.90234375 149.07421875 C-186.82604288 147.5078596 -185.74784415 145.94280321 -184.66796875 144.37890625 C-184.10400391 143.55874023 -183.54003906 142.73857422 -182.95898438 141.89355469 C-174.4965563 129.73059115 -165.48863771 117.93969263 -156.21484375 106.38671875 C-155.71130371 105.75701172 -155.20776367 105.12730469 -154.68896484 104.47851562 C-148.77623087 97.09441845 -142.77699416 89.79299699 -136.58984375 82.63671875 C-136.11240723 82.0837915 -135.6349707 81.53086426 -135.14306641 80.96118164 C-126.48780652 71.02851484 -117.4757793 61.48045756 -108.14331055 52.18481445 C-106.51427803 50.56119646 -104.89073647 48.93222272 -103.26757812 47.30273438 C-97.75829599 41.7892672 -92.20256341 36.38509879 -86.21484375 31.38671875 C-85.63387939 30.89905029 -85.05291504 30.41138184 -84.4543457 29.90893555 C-63.69372928 12.6739817 -28.34781123 -16.19180298 0 0 Z " fill="#137021" transform="translate(563.21484375,294.61328125)"/>
<path d="M0 0 C14.21449453 11.25494172 24.36219722 25.75704464 27 44 C27.87110147 57.2601002 27.87110147 57.2601002 25.91308594 63.41870117 C24.67256901 67.72143834 23.89692246 71.58422047 25 76 C29.34082768 83.41936509 36.34710538 89.07564149 42.625 94.8125 C44.33866146 96.44435024 46.04834523 98.0803884 47.75390625 99.72070312 C56.04767605 107.74473 56.04767605 107.74473 65 115 C63.35575549 119.08599685 60.43167226 121.93395604 57.4375 125.0625 C44.02949919 139.34083769 32.50699089 155.18335663 21 171 C18.06120516 169.64763423 15.70767089 168.10057341 13.25 166 C12.63640625 165.484375 12.0228125 164.96875 11.390625 164.4375 C10 163 10 163 10 161 C9.34 161 8.68 161 8 161 C6.67773438 159.66088867 6.67773438 159.66088867 5.09375 157.73046875 C0.65667586 152.51598799 -4.1322898 147.68163091 -8.97021484 142.84448242 C-10.50259009 141.30990619 -12.02675491 139.76747199 -13.55078125 138.22460938 C-20.68332999 130.869107 -20.68332999 130.869107 -29 125 C-31.45680013 125.08512977 -31.45680013 125.08512977 -34 126 C-53.56240098 127.51577849 -72.72344123 124.07461656 -87.98144531 111.06860352 C-101.65298205 98.63453867 -111.30670221 82.31976642 -112.28125 63.6328125 C-112.61502775 52.5535068 -111.31804693 42.30699028 -107 32 C-104.00906654 33.34208291 -101.93810219 34.81975862 -99.64013672 37.14868164 C-98.68927689 38.1046096 -98.68927689 38.1046096 -97.71920776 39.07984924 C-97.04616608 39.76635056 -96.37312439 40.45285187 -95.6796875 41.16015625 C-94.9798172 41.86522812 -94.2799469 42.57029999 -93.55886841 43.29673767 C-91.32611018 45.5472953 -89.10015735 47.80442896 -86.875 50.0625 C-84.64183957 52.32325698 -82.40724714 54.58255022 -80.16970825 56.838974 C-78.77801112 58.24295051 -77.38899556 59.64959108 -76.00289917 61.05909729 C-75.37529694 61.69323044 -74.7476947 62.32736359 -74.10107422 62.98071289 C-73.5491037 63.54093643 -72.99713318 64.10115997 -72.42843628 64.67835999 C-71.01655141 66.10804773 -71.01655141 66.10804773 -69 67 C-69 67.66 -69 68.32 -69 69 C-68.13375 69.37125 -68.13375 69.37125 -67.25 69.75 C-64.70649745 71.16305697 -63.04701082 72.95298918 -61 75 C-60.34 75 -59.68 75 -59 75 C-58.175 74.01 -57.35 73.02 -56.5 72 C-55.675 71.01 -54.85 70.02 -54 69 C-53.34 69 -52.68 69 -52 69 C-52 68.34 -52 67.68 -52 67 C-50.65429688 65.67553711 -50.65429688 65.67553711 -48.71875 64.08984375 C-43.00089374 59.22790116 -37.77940237 53.88753321 -32.5 48.5625 C-31.47679861 47.5342702 -30.45336267 46.50627374 -29.4296875 45.47851562 C-26.95042001 42.98835662 -24.47432462 40.49507167 -22 38 C-23.4415174 34.69238244 -25.22797057 32.53754566 -27.79125977 30.01342773 C-28.56869034 29.24260361 -29.34612091 28.47177948 -30.14710999 27.67759705 C-30.98672775 26.85457596 -31.82634552 26.03155487 -32.69140625 25.18359375 C-33.55185043 24.33072281 -34.41229462 23.47785187 -35.29881287 22.59913635 C-38.04864015 19.87375406 -40.8047732 17.15488739 -43.5625 14.4375 C-47.19447894 10.85854726 -50.81992492 7.27316495 -54.44140625 3.68359375 C-55.70386925 2.44602577 -55.70386925 2.44602577 -56.99183655 1.18345642 C-57.76611496 0.41578445 -58.54039337 -0.35188751 -59.33813477 -1.14282227 C-60.02271255 -1.81692642 -60.70729034 -2.49103058 -61.41261292 -3.18556213 C-63 -5 -63 -5 -64 -8 C-42.36084579 -16.81595171 -19.12284981 -13.37408032 0 0 Z " fill="#5A5D64" transform="translate(346,248)"/>
<path d="M0 0 C4.12642642 1.36891634 6.5290985 3.1658606 9.5715332 6.24682617 C10.44626785 7.12501511 11.3210025 8.00320404 12.22224426 8.90800476 C13.16516709 9.86958376 14.10801075 10.8312404 15.05078125 11.79296875 C16.03264569 12.78298193 17.0152585 13.77225342 17.99858093 14.76081848 C20.58468298 17.36401285 23.16209637 19.97563331 25.73730469 22.58959961 C29.84534094 26.75684965 33.96594903 30.91165406 38.08748436 35.06554604 C39.51482066 36.50666102 40.93815802 37.95162938 42.36091614 39.39726257 C46.87671276 43.96289896 51.44112703 48.37819449 56.31822205 52.5566864 C59.9125731 55.64138361 63.25477664 58.98773829 66.625 62.3125 C67.71167969 63.35567383 67.71167969 63.35567383 68.8203125 64.41992188 C78.66661291 74.15027853 84.03971396 84.59959964 84.375 98.5 C84.06858216 111.74257962 79.22220847 122.2592393 70.23046875 131.92578125 C61.26015312 140.26770349 49.17227743 144.26978972 37 144 C17.16514018 141.34217272 5.54664018 129.87974376 -8.01171875 116.18359375 C-9.11656705 115.07500343 -10.22186654 113.96686261 -11.32759094 112.85914612 C-14.20068496 109.97850905 -17.06771528 107.09191339 -19.93341064 104.20391846 C-22.87310474 101.24356191 -25.81865158 98.28904068 -28.76367188 95.33398438 C-34.51477206 89.56159946 -40.25946263 83.7828895 -46 78 C-44.68591336 73.92500914 -43.24949735 70.4101659 -41.05859375 66.7265625 C-40.47988525 65.74558594 -39.90117676 64.76460938 -39.30493164 63.75390625 C-38.6886792 62.72136719 -38.07242676 61.68882812 -37.4375 60.625 C-36.15256011 58.45116223 -34.86870499 56.2766829 -33.5859375 54.1015625 C-32.96428711 53.0487207 -32.34263672 51.99587891 -31.70214844 50.91113281 C-29.59444314 47.3063884 -27.57252395 43.65967722 -25.5625 40 C-21.69886467 33.03202416 -17.52254521 26.26302643 -13.3125 19.5 C-12.682229 18.48421875 -12.05195801 17.4684375 -11.40258789 16.421875 C-7.84231575 10.74421491 -4.13659831 5.2743303 0 0 Z M19 83 C14.59669975 90.06669463 13.0644368 96.69959622 14 105 C16.26484306 112.31311474 20.52930735 117.91622369 27 122 C34.30423722 125.40471703 40.68531945 125.57737568 48.31640625 123.3125 C55.12945063 120.73022937 59.49019071 116.36760407 63.09765625 110.08984375 C65.87163958 103.80644895 66.16864314 96.87289466 64.19140625 90.3203125 C60.84819649 82.708437 55.44237454 78.17392796 48.0625 74.5625 C37.12088879 72.55281631 26.52130236 74.24793908 19 83 Z " fill="#5A5D64" transform="translate(482,422)"/>
<path d="M0 0 C1.65 0.99 3.3 1.98 5 3 C4.34 4.32 3.68 5.64 3 7 C0.64046906 4.64046906 0.50858587 3.22104383 0 0 Z " fill="#5A5D64" transform="translate(406,360)"/>
</svg>
