<svg xmlns="http://www.w3.org/2000/svg" viewBox="0 0 100 100" width="100" height="100">
  <!-- Outer spike outline -->
  <polygon points="50,2 62,32 95,18 78,48 98,72 68,75 72,98 48,82 25,98 32,75 2,72 22,48 5,18 38,32"
           fill="#ffd43f" stroke="#1a1a2e" stroke-width="5" stroke-linejoin="round"/>
  <!-- Inner pop burst shape -->
  <polygon points="50,12 59,35 84,25 71,48 87,67 63,69 66,87 48,74 30,87 37,69 13,67 29,48 16,25 41,35"
           fill="#ff3b6f" stroke="#1a1a2e" stroke-width="3" stroke-linejoin="round"/>
  <!-- Action lines inside -->
  <line x1="50" y1="50" x2="50" y2="28" stroke="#1a1a2e" stroke-width="4" stroke-linecap="round"/>
  <line x1="50" y1="50" x2="68" y2="38" stroke="#1a1a2e" stroke-width="4" stroke-linecap="round"/>
  <line x1="50" y1="50" x2="72" y2="58" stroke="#1a1a2e" stroke-width="4" stroke-linecap="round"/>
  <line x1="50" y1="50" x2="55" y2="70" stroke="#1a1a2e" stroke-width="4" stroke-linecap="round"/>
  <line x1="50" y1="50" x2="38" y2="68" stroke="#1a1a2e" stroke-width="4" stroke-linecap="round"/>
  <line x1="50" y1="50" x2="28" y2="52" stroke="#1a1a2e" stroke-width="4" stroke-linecap="round"/>
  <line x1="50" y1="50" x2="32" y2="35" stroke="#1a1a2e" stroke-width="4" stroke-linecap="round"/>
</svg>
