<svg xmlns="http://www.w3.org/2000/svg" width="40" height="50" viewBox="0 0 1100 750" preserveAspectRatio="none"><path fill="#fefefe" d="m553.25 193.25 2.75.75c.938 2.5.938 2.5 1 6-2.794 4.542-6.63 7.845-11 10.813-4.418 3.105-6.77 7.083-9.457 11.699C535 225 535 225 533.449 226.535c-1.856 1.876-2.718 3.824-3.824 6.215-1.562 3.241-3.163 6.177-5.312 9.063-2.027 2.793-3.138 4.997-4.313 8.187l-1.395 2.309c-1.583 2.654-2.894 5.314-4.168 8.129l-1.253 2.746c-1.219 2.9-2.204 5.829-3.184 8.816l2.332-.066c8.575-.135 16.758.679 25.23 1.941l3.71.527C563.93 277.658 563.93 277.658 574 281l.313-2.5c.803-4.093 2.15-7.625 3.687-11.5h2l.625-2.437c2.496-6.469 6.403-11.769 11.375-16.563l.89-1.934c1.266-2.357 2.428-3.296 4.61-4.816 3.255-2.325 6.357-4.76 9.438-7.312 6.514-5.23 13.423-8.768 21.078-12.028 2.14-.916 2.14-.916 4.484-2.597 3.584-1.882 7.448-2.662 11.5-2.313 1.793 1.293 1.793 1.293 3 3-.312 3.188-.312 3.188-1 6-.592.182-1.183.364-1.793.55-4.456 1.418-8.237 2.943-12.207 5.45l-3.562 1.5c-3.365 1.302-3.365 1.302-5.625 3.188C621 238 621 238 617 238l-.75 1.938C615 242 615 242 612.875 242.75L611 243v2c-1.54 1.008-1.54 1.008-3.625 2.125-4.75 2.852-7.297 6.359-10.375 10.875a689 689 0 0 1-3.125 4.063c-4.428 5.93-7.425 11.954-9.875 18.937 3.146 3.146 7.52 3.062 11.795 3.68 4.394.722 7.478 1.914 11.318 4.299 3.693 1.998 7.793 2.92 11.824 4.021 5.746 1.576 11.045 3.26 16.3 6.102 2.042 1.09 2.042 1.09 5.513 2.21 5.768 2.077 11.219 5.208 16.25 8.688v2l2 .688c3.204 1.401 6.003 3.108 8.938 4.996 1.481.945 2.987 1.854 4.507 2.738 4.318 2.667 8.253 5.706 11.555 9.578.125 3.438.125 3.438-1 6l-1 1c-6.023 0-8.868-2.177-13.398-5.96-3.96-3.105-8.266-5.584-12.586-8.145-2.86-1.797-5.395-3.771-8.016-5.895-5.43-3.524-11.112-5.933-17.227-8.008a95 95 0 0 1-6.043-2.422c-4.921-2.142-10.037-3.692-15.146-5.32-3.411-1.11-6.53-2.222-9.729-3.871-3.22-1.555-5.94-2.015-9.48-2.442-5.99-.732-5.99-.732-8.238-1.925-3.401-1.61-6.985-1.755-10.7-2.137l-2.326-.262c-3.051-.335-6.04-.613-9.111-.613l1.652 1.695c22.472 23.893 29.35 51.517 28.523 83.773C588.753 404.196 571.83 426.675 552 446l-2 2c3.251-.455 6.496-.912 9.73-1.477 2.423-.387 4.815-.715 7.25-.988l2.088-.236a599 599 0 0 1 4.274-.461c3.59-.415 5.597-.797 8.658-2.838 2.204-.173 4.415-.267 6.625-.312 5.772-.33 9.08-1.27 13.852-4.364 3.287-1.725 6.68-2.506 10.273-3.324 18.766-4.334 37.005-13.347 52.328-25.059l2.022-1.544q1.921-1.49 3.802-3.03c3.023-2.364 4.568-3.388 8.47-3.234C682 402 682 402 683 403c.414 2.773.414 2.773 0 6-2.414 2.414-2.414 2.414-5.625 4.625l-3.164 2.227Q669.608 418.929 665 422l-2.027 1.422C645.798 435.364 627.384 441.859 607 446v2l3 1c1.098 2.18 1.098 2.18 2.063 4.875 1.119 3.084 2.1 5.369 3.937 8.125l.875 3.188c1.07 3.628 2.443 6.629 4.18 9.96 1.137 2.229 2.039 4.521 2.945 6.852 1.44 3.6 2.58 4.339 6 6l2.375 2.438c2.72 2.655 5.189 4 8.625 5.562 1 1 1 1 1.188 3.438C642 502 642 502 640 504c-5.03.353-9.03-.366-13.25-3.125C618 491.727 618 491.727 618 489l-3-1c-1.281-2.547-1.281-2.547-2.5-5.75-1.546-4.023-3.247-7.58-5.5-11.25l-.875-2.687c-1.314-3.869-3.108-7.334-5.004-10.946-1.013-2.139-1.647-4.058-2.121-6.367l-3 1c-2.963.27-5.925.444-8.895.621-3.265.399-5.999 1.317-9.105 2.379q-3.207.601-6.437 1.063l-3.247.472L565 457q-5.093.724-10.184 1.465c-3.603.523-7.21 1.032-10.816 1.535l-2.042.287c-7.998 1.11-15.86 2.063-23.958 1.713-.103 5.802-.047 11.582.313 17.375l.175 2.898c.586 3.123 1.782 5.086 3.512 7.727l1 2.75 1 2.25 3 1 1.313 2.688c1.498 2.94 2.563 4.354 4.875 6.562L536 508v2l2.125.688c3.71 1.693 5.976 3.413 8.875 6.312.5 2.688.5 2.688 0 5-2 2-2 2-5 2.063-9.78-1.753-17.204-10.719-22.656-18.395-2.581-3.814-4.975-7.72-7.344-11.668l-1.54-1.734c-1.917-2.975-1.968-5.182-2.147-8.704l-.2-3.37c-.208-5.728-.137-11.462-.113-17.192l-3.446-.076q-6.486-.145-12.972-.296-2.778-.065-5.556-.125c-13.023-.287-26.02-.786-39.026-1.503l.095 3.282c.11 4.08.178 8.159.235 12.24q.044 2.631.123 5.262c.4 13.766-1.02 23.625-9.89 34.779-4.302 4.461-8.459 7.604-14.875 7.812C419 524 419 524 417 522c-.25-2.5-.25-2.5 0-5 2.264-2.264 4.043-2.83 7-4 6.833-3.246 9.8-8.88 12.341-15.773 1.051-3.552 1.138-6.98 1.17-10.664l.055-2.32c.054-2.414.088-4.828.122-7.243q.05-2.475.103-4.95.124-6.024.209-12.05l-1.753-.136c-19.553-1.562-19.553-1.562-27.52-4.079-3.512-1.011-7.071-1.646-10.664-2.285-6.77-1.212-13.416-2.725-20.063-4.5l.082 2.848c-.097 3.72-1.06 5.081-3.082 8.152l-1.312 3.125c-3.49 8.273-7.664 15.368-13.856 21.902-1.88 1.938-1.88 1.938-3.402 4.18C355 491 355 491 352.312 491.75L350 492v2c-2.012 1.438-2.012 1.438-4.687 3l-2.637 1.563c-2.512 1.349-5.026 2.397-7.676 3.437l-1 1c-2.937.188-2.937.188-6 0-2-2-2-2-2.437-4.312.641-3.941 2.339-5.25 5.437-7.688 1.085-.282 2.17-.565 3.29-.855 4.156-1.283 6.64-3.063 10.022-5.77 5.5-4.375 5.5-4.375 7.688-4.375l2-5h2l.813-2.187c1.556-3.687 3.633-6.927 5.75-10.313 1.408-2.449 2.443-4.86 3.437-7.5l1.125-2.5c.937-2.676.94-4.69.875-7.5-6.16-1.93-12.305-3.846-18.562-5.437-9.116-2.459-17.731-6.08-25.438-11.563v-2l-2.187-.312c-5.153-1.26-9.244-4.622-13.5-7.688l-2.887-2.062C303 414 303 414 301 411c.063-2.562.063-2.562 1-5 2.063-1.687 2.063-1.687 5-2 2.957 1.655 5.45 3.78 8 6 3.755 3.26 7.487 5.318 11.945 7.441a99 99 0 0 1 6.735 3.774c7.956 4.819 14.436 7.667 23.695 9.11 6.4 1.192 12.776 3.553 18.488 6.702 3.252 1.48 6.67 2.174 10.137 2.973l3.374.797q4.931 1.16 9.87 2.29 2.061.474 4.121.957c8.185 1.917 16.22 3.512 24.635 3.956l-2.562-2.309c-20.772-18.843-37.086-42.458-38.577-71.383-.98-29.967 5.349-55.011 25.139-78.308l1.7-2.07c2.541-3.061 4.937-5.731 8.3-7.93l-4.878.697q-2.127.303-4.255.602c-9.523 1.35-18.667 2.974-27.875 5.803a76 76 0 0 1-7.492 1.836c-3.868.799-7.43 2.11-11.125 3.5-4.967 1.847-9.646 3.037-14.875 3.875-8.409 1.524-14.358 5.171-21.5 9.687-6.482 4-6.482 4-10 4l-1 3c-5.222 3-5.222 3-8 3l-1 3c-2.875.125-2.875.125-6 0-2-2-2-2-2.687-4.687.949-4.575 3.076-5.865 6.789-8.524 3.79-2.34 7.722-4.312 11.736-6.23 3.482-1.673 6.688-3.465 9.85-5.684 11.855-8.142 24.389-9.927 38.312-11.875-2.253-4.155-4.502-8.252-7.125-12.187C359 273 359 273 357.617 270.164 349.38 254.048 336.943 245.543 321 238l-2.992-1.469c-6.881-3.303-13.564-5.83-21.008-7.531-1.156-4.695-1.156-4.695.25-7.437 3.883-2.207 6.36-1.488 10.625-.524 5.655 1.739 10.85 4.31 16.125 6.961l3.14 1.516A357 357 0 0 1 336 234l2.516 1.29c10.82 5.968 20.4 14.94 26.484 25.71l1.75 2.75c1.25 2.25 1.25 2.25 2.063 4.563 1.469 3.325 3.543 5.83 5.847 8.625 1.53 2.353 1.952 4.302 2.34 7.062l2.676-.77q3.752-1.075 7.508-2.14c2.309-.66 4.614-1.33 6.914-2.024l2.777-.816 2.43-.734c2.918-.559 5.66-.487 8.62-.44 3.376-.124 6.532-1.102 9.762-2.014 10.008-2.618 20.017-2.86 30.313-3.062l-1.5-2.375C445 267 445 267 445 265h-2l-1.46-2.773-1.915-3.602-.96-1.828c-1.378-2.583-2.583-4.715-4.665-6.797l-.312-2.312c-.934-3.649-2.99-5.12-5.688-7.688a301 301 0 0 1-3-5 286 286 0 0 0-3.75-5.25l-2.11-2.887c-2.557-3.421-5.201-6.766-7.89-10.086C410 215 410 215 410 213l-1.812-.687c-2.843-1.706-3.797-3.323-5.188-6.313-.312-2.687-.312-2.687 0-5 2-2 2-2 4.188-2.562 4.428.885 7.077 4.078 9.812 7.562v2h2c1.367 2.012 1.367 2.012 2.875 4.688 2.154 3.708 4.358 7.026 7.125 10.312 2.852 3.696 5.614 7.416 8.188 11.313 1.61 2.597 1.61 2.597 3.292 4.09 1.749 1.838 2.587 3.543 3.645 5.847 2.63 5.472 5.728 10.596 8.928 15.747C456 264.793 456 264.793 456 267h2v2c3.876 2.603 7.934 2.237 12.414 2.16l2.457-.016c2.585-.017 5.17-.049 7.754-.082q3.887-.042 7.775-.07 2.418-.019 4.835-.054c5.542-.05 5.542-.05 7.765 1.062l.188-3.812c.65-5.986 3.191-10.84 5.812-16.188l1.438-3.562c2.786-6.132 6.32-11.83 10.312-17.25 2.278-2.957 2.278-2.957 3.25-5.75 1.115-2.718 2.723-4.523 4.656-6.704 1.53-1.973 2.547-4 3.657-6.234 2.255-4.24 4.832-6.488 8.765-9.164 3.458-2.404 6.21-5.463 8.86-8.711C550 193 550 193 553.25 193.25"/><path fill="#303030" d="m553.25 193.25 2.75.75c.938 2.5.938 2.5 1 6-2.794 4.542-6.63 7.845-11 10.813-4.418 3.105-6.77 7.083-9.457 11.699C535 225 535 225 533.449 226.535c-1.856 1.876-2.718 3.824-3.824 6.215-1.562 3.241-3.163 6.177-5.312 9.063-2.027 2.793-3.138 4.997-4.313 8.187l-1.395 2.309c-1.583 2.654-2.894 5.314-4.168 8.129l-1.253 2.746c-1.219 2.9-2.204 5.829-3.184 8.816l2.332-.066c8.575-.135 16.758.679 25.23 1.941l3.71.527C563.93 277.658 563.93 277.658 574 281l.313-2.5c.803-4.093 2.15-7.625 3.687-11.5h2l.625-2.437c2.496-6.469 6.403-11.769 11.375-16.563l.89-1.934c1.266-2.357 2.428-3.296 4.61-4.816 3.255-2.325 6.357-4.76 9.438-7.312 6.514-5.23 13.423-8.768 21.078-12.028 2.14-.916 2.14-.916 4.484-2.597 3.584-1.882 7.448-2.662 11.5-2.313 1.793 1.293 1.793 1.293 3 3-.312 3.188-.312 3.188-1 6-.592.182-1.183.364-1.793.55-4.456 1.418-8.237 2.943-12.207 5.45l-3.562 1.5c-3.365 1.302-3.365 1.302-5.625 3.188C621 238 621 238 617 238l-.75 1.938C615 242 615 242 612.875 242.75L611 243v2c-1.54 1.008-1.54 1.008-3.625 2.125-4.75 2.852-7.297 6.359-10.375 10.875a689 689 0 0 1-3.125 4.063c-4.428 5.93-7.425 11.954-9.875 18.937 3.146 3.146 7.52 3.062 11.795 3.68 4.394.722 7.478 1.914 11.318 4.299 3.693 1.998 7.793 2.92 11.824 4.021 5.746 1.576 11.045 3.26 16.3 6.102 2.042 1.09 2.042 1.09 5.513 2.21 5.768 2.077 11.219 5.208 16.25 8.688v2l2 .688c3.204 1.401 6.003 3.108 8.938 4.996 1.481.945 2.987 1.854 4.507 2.738 4.318 2.667 8.253 5.706 11.555 9.578.125 3.438.125 3.438-1 6l-1 1c-6.023 0-8.868-2.177-13.398-5.96-3.96-3.105-8.266-5.584-12.586-8.145-2.86-1.797-5.395-3.771-8.016-5.895-5.43-3.524-11.112-5.933-17.227-8.008a95 95 0 0 1-6.043-2.422c-4.921-2.142-10.037-3.692-15.146-5.32-3.411-1.11-6.53-2.222-9.729-3.871-3.22-1.555-5.94-2.015-9.48-2.442-5.99-.732-5.99-.732-8.254-1.933-3.308-1.566-6.833-1.668-10.433-2.004-5.47-.519-10.407-1.388-15.688-3-2.78-.716-5.576-1.361-8.375-2l-2.074-.5c-13.984-3.18-28.085-3.801-42.364-3.73h-4.897q-5.067.003-10.134.024-6.504.024-13.01.02-5.024.001-10.052.013-2.4.004-4.803.006-3.327.004-6.654.022l-3.822.011c-2.718-.187-2.718-.187-3.815 1.134-1.358.12-2.723.18-4.086.21l-2.553.08-2.736.085c-6.547.263-12.411.771-18.672 2.809-4.041 1.117-8.12 1.658-12.265 2.253a137 137 0 0 0-20.696 4.665 76 76 0 0 1-7.492 1.836c-3.868.799-7.43 2.11-11.125 3.5-4.967 1.847-9.646 3.037-14.875 3.875-8.409 1.524-14.358 5.171-21.5 9.687-6.482 4-6.482 4-10 4l-1 3c-5.222 3-5.222 3-8 3l-1 3c-2.875.125-2.875.125-6 0-2-2-2-2-2.687-4.687.949-4.575 3.076-5.865 6.789-8.524 3.79-2.34 7.722-4.312 11.736-6.23 3.482-1.673 6.688-3.465 9.85-5.684 11.855-8.142 24.389-9.927 38.312-11.875-2.253-4.155-4.502-8.252-7.125-12.187C359 273 359 273 357.617 270.164 349.38 254.048 336.943 245.543 321 238l-2.992-1.469c-6.881-3.303-13.564-5.83-21.008-7.531-1.156-4.695-1.156-4.695.25-7.437 3.883-2.207 6.36-1.488 10.625-.524 5.655 1.739 10.85 4.31 16.125 6.961l3.14 1.516A357 357 0 0 1 336 234l2.516 1.29c10.82 5.968 20.4 14.94 26.484 25.71l1.75 2.75c1.25 2.25 1.25 2.25 2.063 4.563 1.469 3.325 3.543 5.83 5.847 8.625 1.53 2.353 1.952 4.302 2.34 7.062l2.676-.77q3.752-1.075 7.508-2.14c2.309-.66 4.614-1.33 6.914-2.024l2.777-.816 2.43-.734c2.918-.559 5.66-.487 8.62-.44 3.376-.124 6.532-1.102 9.762-2.014 10.008-2.618 20.017-2.86 30.313-3.062l-1.5-2.375C445 267 445 267 445 265h-2l-1.46-2.773-1.915-3.602-.96-1.828c-1.378-2.583-2.583-4.715-4.665-6.797l-.312-2.312c-.934-3.649-2.99-5.12-5.688-7.688a301 301 0 0 1-3-5 286 286 0 0 0-3.75-5.25l-2.11-2.887c-2.557-3.421-5.201-6.766-7.89-10.086C410 215 410 215 410 213l-1.812-.687c-2.843-1.706-3.797-3.323-5.188-6.313-.312-2.687-.312-2.687 0-5 2-2 2-2 4.188-2.562 4.428.885 7.077 4.078 9.812 7.562v2h2c1.367 2.012 1.367 2.012 2.875 4.688 2.154 3.708 4.358 7.026 7.125 10.312 2.852 3.696 5.614 7.416 8.188 11.313 1.61 2.597 1.61 2.597 3.292 4.09 1.749 1.838 2.587 3.543 3.645 5.847 2.63 5.472 5.728 10.596 8.928 15.747C456 264.793 456 264.793 456 267h2v2c3.876 2.603 7.934 2.237 12.414 2.16l2.457-.016c2.585-.017 5.17-.049 7.754-.082q3.887-.042 7.775-.07 2.418-.019 4.835-.054c5.542-.05 5.542-.05 7.765 1.062l.188-3.812c.65-5.986 3.191-10.84 5.812-16.188l1.438-3.562c2.786-6.132 6.32-11.83 10.312-17.25 2.278-2.957 2.278-2.957 3.25-5.75 1.115-2.718 2.723-4.523 4.656-6.704 1.53-1.973 2.547-4 3.657-6.234 2.255-4.24 4.832-6.488 8.765-9.164 3.458-2.404 6.21-5.463 8.86-8.711C550 193 550 193 553.25 193.25M679.371 401.133C682 402 682 402 683 403c.414 2.773.414 2.773 0 6-2.414 2.414-2.414 2.414-5.625 4.625l-3.164 2.227Q669.608 418.929 665 422l-2.027 1.422C645.798 435.364 627.384 441.859 607 446v2l3 1c1.098 2.18 1.098 2.18 2.063 4.875 1.119 3.084 2.1 5.369 3.937 8.125l.875 3.188c1.07 3.628 2.443 6.629 4.18 9.96 1.137 2.229 2.039 4.521 2.945 6.852 1.44 3.6 2.58 4.339 6 6l2.375 2.438c2.72 2.655 5.189 4 8.625 5.562 1 1 1 1 1.188 3.438C642 502 642 502 640 504c-5.03.353-9.03-.366-13.25-3.125C618 491.727 618 491.727 618 489l-3-1c-1.281-2.547-1.281-2.547-2.5-5.75-1.546-4.023-3.247-7.58-5.5-11.25l-.875-2.687c-1.314-3.869-3.108-7.334-5.004-10.946-1.013-2.139-1.647-4.058-2.121-6.367l-3 1c-2.963.27-5.925.444-8.895.621-3.265.399-5.999 1.317-9.105 2.379q-3.207.601-6.437 1.063l-3.247.472L565 457q-5.093.724-10.184 1.465c-3.603.523-7.21 1.032-10.816 1.535l-2.042.287c-7.998 1.11-15.86 2.063-23.958 1.713-.103 5.802-.047 11.582.313 17.375l.175 2.898c.586 3.123 1.782 5.086 3.512 7.727l1 2.75 1 2.25 3 1 1.313 2.688c1.498 2.94 2.563 4.354 4.875 6.562L536 508v2l2.125.688c3.71 1.693 5.976 3.413 8.875 6.312.5 2.688.5 2.688 0 5-2 2-2 2-5 2.063-9.78-1.753-17.204-10.719-22.656-18.395-2.581-3.814-4.975-7.72-7.344-11.668l-1.54-1.734c-1.917-2.975-1.968-5.182-2.147-8.704l-.2-3.37c-.208-5.728-.137-11.462-.113-17.192l-3.446-.076q-6.486-.145-12.972-.296-2.778-.065-5.556-.125c-13.023-.287-26.02-.786-39.026-1.503l.095 3.282c.11 4.08.178 8.159.235 12.24q.044 2.631.123 5.262c.4 13.766-1.02 23.625-9.89 34.779-4.302 4.461-8.459 7.604-14.875 7.812C419 524 419 524 417 522c-.25-2.5-.25-2.5 0-5 2.264-2.264 4.043-2.83 7-4 6.833-3.246 9.8-8.88 12.341-15.773 1.051-3.552 1.138-6.98 1.17-10.664l.055-2.32c.054-2.414.088-4.828.122-7.243q.05-2.475.103-4.95c.084-4.016.151-8.033.209-12.05l-1.753-.136c-19.553-1.562-19.553-1.562-27.52-4.079-3.512-1.011-7.071-1.646-10.664-2.285-6.77-1.212-13.416-2.725-20.063-4.5l.082 2.848c-.097 3.72-1.06 5.081-3.082 8.152l-1.312 3.125c-3.49 8.273-7.664 15.368-13.856 21.902-1.88 1.938-1.88 1.938-3.402 4.18C355 491 355 491 352.312 491.75L350 492v2c-2.012 1.438-2.012 1.438-4.687 3l-2.637 1.563c-2.512 1.349-5.026 2.397-7.676 3.437l-1 1c-2.937.188-2.937.188-6 0-2-2-2-2-2.437-4.312.641-3.941 2.339-5.25 5.437-7.688 1.085-.282 2.17-.565 3.29-.855 4.156-1.283 6.64-3.063 10.022-5.77 5.5-4.375 5.5-4.375 7.688-4.375l2-5h2l.813-2.187c1.556-3.687 3.633-6.927 5.75-10.313 1.408-2.449 2.443-4.86 3.437-7.5l1.125-2.5c.937-2.676.94-4.69.875-7.5-6.16-1.93-12.305-3.846-18.562-5.437-9.116-2.459-17.731-6.08-25.438-11.563v-2l-2.187-.312c-5.153-1.26-9.244-4.622-13.5-7.688l-2.887-2.062C303 414 303 414 301 411c.063-2.562.063-2.562 1-5 2.063-1.687 2.063-1.687 5-2 2.957 1.655 5.45 3.78 8 6 3.755 3.26 7.487 5.318 11.945 7.441a99 99 0 0 1 6.735 3.774c7.956 4.819 14.436 7.667 23.695 9.11 6.4 1.192 12.776 3.553 18.488 6.702 3.252 1.48 6.67 2.176 10.137 2.973l3.325.781q4.874 1.14 9.754 2.25 2.03.466 4.06.937c8.363 1.944 16.634 3.548 25.161 4.62C431 449 431 449 433 450c16.167 2.656 32.657 2.708 49 3l2.288.044c33.912 1.4 33.912 1.4 66.724-5.441 2.137-.648 3.826-.732 6.05-.666 3.597.058 6.349-.46 9.786-1.433 3.284-.769 6.592-.95 9.953-1.16 2.484-.231 2.484-.231 5.199-2.344 2.204-.173 4.415-.267 6.625-.312 5.772-.33 9.08-1.27 13.852-4.364 3.287-1.725 6.68-2.506 10.273-3.324 18.766-4.334 37.005-13.347 52.328-25.059l2.022-1.544q1.921-1.49 3.802-3.03c3.023-2.364 4.568-3.388 8.47-3.234"/><path fill="#256e59" d="M495 312c8.714 4.183 13.69 12.19 17 20.957 4.867 14.809 4.727 32.226 0 47.043l-.773 2.66c-2.506 7.435-7.514 14.388-14.235 18.598-3.647 1.359-7.168 1.263-10.992.742-8.714-4.183-13.69-12.19-17-20.957-5.652-17.2-4.851-38.038 2.75-54.48 5.226-9.737 11.744-16.132 23.25-14.563"/></svg>