<?xml version="1.0" encoding="UTF-8"?>
<svg version="1.1" xmlns="http://www.w3.org/2000/svg" width="60" height="60" viewBox="0 0 1000 750">
<path d="M0 0 C0.9075 0.2475 1.815 0.495 2.75 0.75 C3.6875 3.25 3.6875 3.25 3.75 6.75 C0.95647435 11.29173202 -2.87953231 14.5946873 -7.25 17.5625 C-11.66798954 20.66796061 -14.01905782 24.64555535 -16.70703125 29.26171875 C-18.25 31.75 -18.25 31.75 -19.80078125 33.28515625 C-21.65693137 35.16131877 -22.51882417 37.10947237 -23.625 39.5 C-25.18652483 42.7409896 -26.78790936 45.67735622 -28.9375 48.5625 C-30.9638843 51.3556243 -32.07484759 53.56030059 -33.25 56.75 C-33.71019531 57.51183594 -34.17039062 58.27367187 -34.64453125 59.05859375 C-36.22771641 61.71264382 -37.53910039 64.37324694 -38.8125 67.1875 C-39.22628906 68.09371094 -39.64007812 68.99992187 -40.06640625 69.93359375 C-41.28493465 72.83312833 -42.27037241 75.762562 -43.25 78.75 C-42.48051025 78.72824707 -41.71102051 78.70649414 -40.91821289 78.68408203 C-32.34326222 78.54914463 -24.16002604 79.36284874 -15.6875 80.625 C-14.46353516 80.79902344 -13.23957031 80.97304688 -11.97851562 81.15234375 C10.68020344 84.40825336 10.68020344 84.40825336 20.75 87.75 C20.853125 86.925 20.95625 86.1 21.0625 85.25 C21.86646056 81.15710988 23.21352158 77.62459775 24.75 73.75 C25.41 73.75 26.07 73.75 26.75 73.75 C26.95625 72.945625 27.1625 72.14125 27.375 71.3125 C29.87144742 64.84443168 33.77796718 59.54446022 38.75 54.75 C39.04390625 54.11191406 39.3378125 53.47382813 39.640625 52.81640625 C40.9063189 50.45882852 42.06763774 49.52049829 44.25 48 C47.50526079 45.67481372 50.60665199 43.23965335 53.6875 40.6875 C60.20183684 35.45810116 67.1109894 31.9199752 74.765625 28.66015625 C76.90535194 27.7439901 76.90535194 27.7439901 79.25 26.0625 C82.83422005 24.18078447 86.69770987 23.40092632 90.75 23.75 C92.54296875 25.04296875 92.54296875 25.04296875 93.75 26.75 C93.4375 29.9375 93.4375 29.9375 92.75 32.75 C92.15832031 32.93175781 91.56664062 33.11351562 90.95703125 33.30078125 C86.50074401 34.71836039 82.71999613 36.24263402 78.75 38.75 C77.574375 39.245 76.39875 39.74 75.1875 40.25 C71.82290375 41.55235288 71.82290375 41.55235288 69.5625 43.4375 C67.75 44.75 67.75 44.75 63.75 44.75 C63.37875 45.7090625 63.37875 45.7090625 63 46.6875 C61.75 48.75 61.75 48.75 59.625 49.5 C59.00625 49.5825 58.3875 49.665 57.75 49.75 C57.75 50.41 57.75 51.07 57.75 51.75 C56.2109375 52.7578125 56.2109375 52.7578125 54.125 53.875 C49.37485171 56.72676156 46.82783733 60.23360827 43.75 64.75 C42.71335029 66.10801112 41.67171789 67.46223393 40.625 68.8125 C36.19673493 74.74383155 33.20008057 80.76727037 30.75 87.75 C33.89622546 90.89622546 38.27075356 90.81173545 42.54492188 91.4296875 C46.93948184 92.15185609 50.02340562 93.34420075 53.86303711 95.72900391 C57.55590023 97.72713478 61.6559372 98.64910813 65.6875 99.75 C71.43349507 101.32614334 76.73180595 103.00964051 81.98754883 105.85229492 C84.02890089 106.94163911 84.02890089 106.94163911 87.5 108.0625 C93.26750243 110.13880088 98.71871801 113.27002996 103.75 116.75 C103.75 117.41 103.75 118.07 103.75 118.75 C104.41 118.976875 105.07 119.20375 105.75 119.4375 C108.95407287 120.83928188 111.75254725 122.54599309 114.6875 124.43359375 C116.16947707 125.37947684 117.67546282 126.28812854 119.1953125 127.171875 C123.51316509 129.83917232 127.4477411 132.87788226 130.75 136.75 C130.875 140.1875 130.875 140.1875 129.75 142.75 C129.42 143.08 129.09 143.41 128.75 143.75 C122.72720216 143.75 119.88240047 141.57254575 115.3515625 137.7890625 C111.39118254 134.68498091 107.08554882 132.20622521 102.765625 129.64453125 C99.90524044 127.847528 97.37104987 125.87365591 94.75 123.75 C89.32093061 120.22622666 83.6381018 117.81713364 77.5234375 115.7421875 C75.48017979 115.01121925 73.46876053 114.18974475 71.48046875 113.3203125 C66.55861481 111.17822092 61.4432317 109.62817508 56.33398438 108 C52.92261039 106.89079796 49.80405072 105.77786466 46.60546875 104.12890625 C43.3853061 102.57388926 40.66522484 102.11448262 37.125 101.6875 C31.1356242 100.95453443 31.1356242 100.95453443 28.88671875 99.76171875 C25.48567397 98.15135203 21.90182257 98.00740283 18.1875 97.625 C17.03604492 97.49544922 17.03604492 97.49544922 15.86132812 97.36328125 C12.8099335 97.0280801 9.8218106 96.75 6.75 96.75 C7.29527344 97.30945313 7.84054687 97.86890625 8.40234375 98.4453125 C30.8736011 122.33782886 37.7517815 149.96207221 36.92480469 182.21826172 C35.50292223 210.94584772 18.58058992 233.42500586 -1.25 252.75 C-1.91 253.41 -2.57 254.07 -3.25 254.75 C0.00115985 254.29483762 3.24628361 253.83791616 6.48046875 253.2734375 C8.90266571 252.88565447 11.29525499 252.55763787 13.73046875 252.28515625 C14.41947266 252.20716797 15.10847656 252.12917969 15.81835938 252.04882812 C17.24227362 251.89003216 18.66677977 251.73646448 20.09179688 251.58789062 C23.68125202 251.17255386 25.68880698 250.79079535 28.75 248.75 C30.95402446 248.57719088 33.16468464 248.48324727 35.375 248.4375 C41.14711 248.10766514 44.45589029 247.16894849 49.2265625 244.07421875 C52.51415426 242.34899645 55.90667733 241.56773553 59.5 240.75 C78.26554605 236.41595879 96.50488704 227.40336535 111.828125 215.69140625 C112.49545654 215.18182373 113.16278809 214.67224121 113.8503418 214.1472168 C115.13074801 213.15389432 116.398663 212.14419538 117.65161133 211.11645508 C120.67533081 208.75347897 122.22019732 207.72912713 126.12109375 207.8828125 C128.75 208.75 128.75 208.75 129.75 209.75 C130.1640625 212.5234375 130.1640625 212.5234375 129.75 215.75 C127.3359375 218.1640625 127.3359375 218.1640625 124.125 220.375 C122.55878906 221.47714844 122.55878906 221.47714844 120.9609375 222.6015625 C117.89286066 224.65441197 114.82152561 226.70231626 111.75 228.75 C111.08097656 229.21921875 110.41195313 229.6884375 109.72265625 230.171875 C92.54765722 242.11359212 74.1339815 248.60858589 53.75 252.75 C53.75 253.41 53.75 254.07 53.75 254.75 C54.74 255.08 55.73 255.41 56.75 255.75 C57.84765625 257.9296875 57.84765625 257.9296875 58.8125 260.625 C59.93204353 263.70936491 60.91262419 265.99393629 62.75 268.75 C63.183125 270.3278125 63.183125 270.3278125 63.625 271.9375 C64.69563046 275.56574766 66.06802487 278.56661808 67.8046875 281.8984375 C68.94242318 284.12689499 69.84362573 286.41932331 70.75 288.75 C72.18990239 292.34975598 73.3296315 293.08867816 76.75 294.75 C77.53375 295.554375 78.3175 296.35875 79.125 297.1875 C81.84557302 299.84329747 84.31353676 301.18797125 87.75 302.75 C88.75 303.75 88.75 303.75 88.9375 306.1875 C88.75 308.75 88.75 308.75 86.75 310.75 C81.71988225 311.102832 77.72021367 310.38437048 73.5 307.625 C64.75 298.47727273 64.75 298.47727273 64.75 295.75 C63.76 295.42 62.77 295.09 61.75 294.75 C60.46875 292.203125 60.46875 292.203125 59.25 289 C57.70420567 284.97697117 56.00344031 281.41970865 53.75 277.75 C53.46125 276.863125 53.1725 275.97625 52.875 275.0625 C51.56119175 271.19406459 49.76702091 267.72901314 47.87109375 264.1171875 C46.85820648 261.97847779 46.22357914 260.05936345 45.75 257.75 C44.76 258.08 43.77 258.41 42.75 258.75 C39.78736646 259.01933032 36.82495114 259.19420443 33.85546875 259.37109375 C30.58991471 259.76953242 27.8563089 260.68773893 24.75 261.75 C22.6124755 262.15127761 20.46550581 262.50492774 18.3125 262.8125 C17.24128906 262.96847656 16.17007812 263.12445313 15.06640625 263.28515625 C13.97199219 263.43855469 12.87757813 263.59195312 11.75 263.75 C8.35480912 264.23394703 4.95993189 264.71934737 1.56640625 265.21484375 C-2.03748839 265.73833865 -5.6431669 266.24714162 -9.25 266.75 C-9.92369629 266.84458496 -10.59739258 266.93916992 -11.29150391 267.03662109 C-19.28985926 268.14692779 -27.15290499 269.10035507 -35.25 268.75 C-35.35279174 274.55202275 -35.29687025 280.33195155 -34.9375 286.125 C-34.85048828 287.55972656 -34.85048828 287.55972656 -34.76171875 289.0234375 C-34.17564617 292.14617538 -32.97968893 294.10877835 -31.25 296.75 C-30.92 297.6575 -30.59 298.565 -30.25 299.5 C-29.92 300.2425 -29.59 300.985 -29.25 301.75 C-28.26 302.08 -27.27 302.41 -26.25 302.75 C-25.6003125 304.0803125 -25.6003125 304.0803125 -24.9375 305.4375 C-23.43945169 308.37811335 -22.37350629 309.79206676 -20.0625 312 C-19.134375 312.9075 -18.20625 313.815 -17.25 314.75 C-17.25 315.41 -17.25 316.07 -17.25 316.75 C-16.54875 316.976875 -15.8475 317.20375 -15.125 317.4375 C-11.41524188 319.13108523 -9.14854785 320.85145215 -6.25 323.75 C-5.75 326.4375 -5.75 326.4375 -6.25 328.75 C-8.25 330.75 -8.25 330.75 -11.25 330.8125 C-21.02915934 329.06040062 -28.45437567 320.09431068 -33.90625 312.41796875 C-36.48709015 308.60363882 -38.88094977 304.69841705 -41.25 300.75 C-41.75789062 300.17765625 -42.26578125 299.6053125 -42.7890625 299.015625 C-44.7071083 296.04111548 -44.75760566 293.83443135 -44.9375 290.3125 C-45.00324219 289.20003906 -45.06898438 288.08757812 -45.13671875 286.94140625 C-45.34451734 281.21423789 -45.27441942 275.47988143 -45.25 269.75 C-46.38727539 269.72494385 -47.52455078 269.6998877 -48.69628906 269.67407227 C-53.02041069 269.57805809 -57.34444154 269.47835719 -61.66845703 269.37768555 C-63.52032308 269.33505335 -65.37221076 269.29334857 -67.22412109 269.25268555 C-80.24708105 268.965883 -93.24352528 268.46681613 -106.25 267.75 C-106.2185791 268.8330542 -106.1871582 269.9161084 -106.15478516 271.03198242 C-106.04487986 275.11142349 -105.97683822 279.19073855 -105.92041016 283.27124023 C-105.89052929 285.02569699 -105.84980793 286.78000825 -105.79736328 288.53393555 C-105.39652018 302.30014506 -106.8161206 312.1591877 -115.6875 323.3125 C-119.98876486 327.77411903 -124.14594944 330.91652002 -130.5625 331.125 C-134.25 330.75 -134.25 330.75 -136.25 328.75 C-136.5 326.25 -136.5 326.25 -136.25 323.75 C-133.98604414 321.48604414 -132.20702102 320.91905482 -129.25 319.75 C-122.41696844 316.50431001 -119.45079825 310.8697971 -116.90869141 303.97660828 C-115.85788554 300.42451541 -115.77078308 296.99655283 -115.73828125 293.3125 C-115.72033005 292.54695801 -115.70237885 291.78141602 -115.68388367 290.99267578 C-115.63026045 288.57850444 -115.59604177 286.16452515 -115.5625 283.75 C-115.52928432 282.10023395 -115.49479081 280.4504931 -115.45898438 278.80078125 C-115.3745628 274.78399395 -115.30752562 270.76725883 -115.25 266.75 C-116.11782104 266.68268677 -116.11782104 266.68268677 -117.00317383 266.61401367 C-136.55585674 265.05190001 -136.55585674 265.05190001 -144.5234375 262.53515625 C-148.03501619 261.52394233 -151.59417335 260.88877637 -155.1875 260.25 C-161.95644395 259.03784379 -168.60334757 257.52495832 -175.25 255.75 C-175.20939453 257.15958984 -175.20939453 257.15958984 -175.16796875 258.59765625 C-175.26476613 262.31744128 -176.22763379 263.67899946 -178.25 266.75 C-178.683125 267.78125 -179.11625 268.8125 -179.5625 269.875 C-183.05149153 278.14786651 -187.22571241 285.24310876 -193.41796875 291.77734375 C-195.29708715 293.71519533 -195.29708715 293.71519533 -196.8203125 295.95703125 C-198.25 297.75 -198.25 297.75 -200.9375 298.5 C-201.700625 298.5825 -202.46375 298.665 -203.25 298.75 C-203.25 299.41 -203.25 300.07 -203.25 300.75 C-205.26171875 302.1875 -205.26171875 302.1875 -207.9375 303.75 C-208.80761719 304.265625 -209.67773438 304.78125 -210.57421875 305.3125 C-213.08591623 306.66184989 -215.5995918 307.71026018 -218.25 308.75 C-218.58 309.08 -218.91 309.41 -219.25 309.75 C-222.1875 309.9375 -222.1875 309.9375 -225.25 309.75 C-227.25 307.75 -227.25 307.75 -227.6875 305.4375 C-227.04599682 301.4968376 -225.34809122 300.18892287 -222.25 297.75 C-221.16460937 297.46769531 -220.07921875 297.18539063 -218.9609375 296.89453125 C-214.80372387 295.61235905 -212.31923728 293.83210862 -208.9375 291.125 C-203.43769716 286.75 -203.43769716 286.75 -201.25 286.75 C-200.59 285.1 -199.93 283.45 -199.25 281.75 C-198.59 281.75 -197.93 281.75 -197.25 281.75 C-196.981875 281.028125 -196.71375 280.30625 -196.4375 279.5625 C-194.88105743 275.87618866 -192.80389973 272.63623957 -190.6875 269.25 C-189.27940361 266.80113671 -188.24426283 264.38963583 -187.25 261.75 C-186.693125 260.5125 -186.693125 260.5125 -186.125 259.25 C-185.18839112 256.57397462 -185.18442174 254.56049686 -185.25 251.75 C-191.41047751 249.82056587 -197.55503641 247.90431091 -203.8125 246.3125 C-212.92822586 243.85417743 -221.54313437 240.23373131 -229.25 234.75 C-229.25 234.09 -229.25 233.43 -229.25 232.75 C-230.3328125 232.5953125 -230.3328125 232.5953125 -231.4375 232.4375 C-236.59009398 231.17797703 -240.6805101 227.81642656 -244.9375 224.75 C-245.89011719 224.069375 -246.84273438 223.38875 -247.82421875 222.6875 C-250.25 220.75 -250.25 220.75 -252.25 217.75 C-252.1875 215.1875 -252.1875 215.1875 -251.25 212.75 C-249.1875 211.0625 -249.1875 211.0625 -246.25 210.75 C-243.29296937 212.4047424 -240.79979947 214.53073009 -238.25 216.75 C-234.49506197 220.01086724 -230.76306161 222.06805597 -226.3046875 224.19140625 C-223.97878145 225.37815371 -221.79278385 226.60679378 -219.5703125 227.96484375 C-211.61361771 232.78353462 -205.13402151 235.63240078 -195.875 237.07421875 C-189.4758016 238.26717276 -183.09917132 240.62771057 -177.38671875 243.77734375 C-174.13499959 245.2575596 -170.71716167 245.95118995 -167.25 246.75 C-165.5801001 247.14469482 -165.5801001 247.14469482 -163.87646484 247.54736328 C-160.58850745 248.32047873 -157.29845592 249.08260368 -154.00610352 249.83666992 C-152.63174155 250.15280724 -151.258033 250.47179933 -149.88500977 250.79370117 C-141.70046886 252.71123338 -133.66497557 254.30582398 -125.25 254.75 C-126.095625 253.98816406 -126.94125 253.22632813 -127.8125 252.44140625 C-148.58428283 233.59838802 -164.89847978 209.98329302 -166.38867188 181.05834961 C-167.36846105 151.09072921 -161.04020495 126.04681967 -141.25 102.75 C-140.68925781 102.06679688 -140.12851562 101.38359375 -139.55078125 100.6796875 C-137.0086915 97.61893461 -134.61290421 94.94882199 -131.25 92.75 C-132.87621932 92.98169836 -134.50239966 93.21367253 -136.12841797 93.44677734 C-137.54645284 93.649447 -138.96475077 93.85028433 -140.38330078 94.04931641 C-149.90626831 95.39954091 -159.050445 97.02343345 -168.2578125 99.8515625 C-170.75817655 100.60232455 -173.19137619 101.19077084 -175.75 101.6875 C-179.61764484 102.48671812 -183.17973981 103.79867738 -186.875 105.1875 C-191.8415242 107.03526062 -196.52139332 108.22548812 -201.75 109.0625 C-210.15881838 110.58659833 -216.10762541 114.2340083 -223.25 118.75 C-229.73187633 122.75 -229.73187633 122.75 -233.25 122.75 C-233.58 123.74 -233.91 124.73 -234.25 125.75 C-239.47222222 128.75 -239.47222222 128.75 -242.25 128.75 C-242.58 129.74 -242.91 130.73 -243.25 131.75 C-246.125 131.875 -246.125 131.875 -249.25 131.75 C-251.25 129.75 -251.25 129.75 -251.9375 127.0625 C-250.98807495 122.48799748 -248.86123606 121.19775421 -245.1484375 118.5390625 C-241.35833164 116.19961711 -237.42575442 114.22724872 -233.41235352 112.30932617 C-229.9295552 110.63639711 -226.72368041 108.84406919 -223.5625 106.625 C-211.70733501 98.48271636 -199.17300158 96.69777742 -185.25 94.75 C-187.50294349 90.59498128 -189.75155652 86.49766521 -192.375 82.5625 C-194.25 79.75 -194.25 79.75 -195.6328125 76.9140625 C-203.87005647 60.79771561 -216.30730894 52.29277856 -232.25 44.75 C-233.23742187 44.2653125 -234.22484375 43.780625 -235.2421875 43.28125 C-242.12304392 39.97843892 -248.8060946 37.45061166 -256.25 35.75 C-257.40625 31.0546875 -257.40625 31.0546875 -256 28.3125 C-252.11722903 26.10638013 -249.63927792 26.8250635 -245.375 27.7890625 C-239.71976626 29.52804687 -234.52568573 32.09953587 -229.25 34.75 C-228.21359375 35.25015625 -227.1771875 35.7503125 -226.109375 36.265625 C-223.13132716 37.71646882 -220.18644499 39.21688369 -217.25 40.75 C-216.41984375 41.17539063 -215.5896875 41.60078125 -214.734375 42.0390625 C-203.91395846 48.00774388 -194.33466279 56.97970273 -188.25 67.75 C-187.6725 68.6575 -187.095 69.565 -186.5 70.5 C-185.25 72.75 -185.25 72.75 -184.4375 75.0625 C-182.96829452 78.38754398 -180.89385939 80.89338813 -178.58984375 83.6875 C-177.06063697 86.04149761 -176.63807669 87.99034355 -176.25 90.75 C-175.36699219 90.49605469 -174.48398437 90.24210937 -173.57421875 89.98046875 C-171.07263643 89.26304396 -168.57018966 88.54946884 -166.06640625 87.83984375 C-163.75735659 87.18045291 -161.45154519 86.50935599 -159.15234375 85.81640625 C-158.23582031 85.54699219 -157.31929688 85.27757812 -156.375 85 C-155.57320313 84.75765625 -154.77140625 84.5153125 -153.9453125 84.265625 C-151.02707325 83.70735314 -148.28560251 83.77882219 -145.32519531 83.82666016 C-141.94867416 83.70192749 -138.79308631 82.72416539 -135.5625 81.8125 C-125.55540553 79.19433173 -115.54631502 78.95129648 -105.25 78.75 C-105.745 77.96625 -106.24 77.1825 -106.75 76.375 C-108.25 73.75 -108.25 73.75 -108.25 71.75 C-108.91 71.75 -109.57 71.75 -110.25 71.75 C-110.97316406 70.37714844 -110.97316406 70.37714844 -111.7109375 68.9765625 C-112.34876794 67.7759405 -112.98679926 66.5754252 -113.625 65.375 C-113.94210937 64.77171875 -114.25921875 64.1684375 -114.5859375 63.546875 C-115.9632062 60.96449618 -117.16830581 58.83169419 -119.25 56.75 C-119.4046875 55.6053125 -119.4046875 55.6053125 -119.5625 54.4375 C-120.49584371 50.78897458 -122.55264893 49.31890578 -125.25 46.75 C-126.26711133 45.09372034 -127.26517245 43.42567672 -128.25 41.75 C-129.47968662 39.98566703 -130.7308668 38.23617422 -132 36.5 C-133.04414063 35.07107422 -133.04414063 35.07107422 -134.109375 33.61328125 C-136.66727927 30.19185091 -139.3110603 26.8465037 -142 23.52734375 C-143.25 21.75 -143.25 21.75 -143.25 19.75 C-143.848125 19.523125 -144.44625 19.29625 -145.0625 19.0625 C-147.90517943 17.35689234 -148.85915375 15.74031944 -150.25 12.75 C-150.5625 10.0625 -150.5625 10.0625 -150.25 7.75 C-148.25 5.75 -148.25 5.75 -146.0625 5.1875 C-141.63448484 6.07310303 -138.98506339 9.26614404 -136.25 12.75 C-136.25 13.41 -136.25 14.07 -136.25 14.75 C-135.59 14.75 -134.93 14.75 -134.25 14.75 C-132.8828125 16.76171875 -132.8828125 16.76171875 -131.375 19.4375 C-129.2213911 23.14649311 -127.01744782 26.46365571 -124.25 29.75 C-121.39829767 33.44636416 -118.63574993 37.16586439 -116.0625 41.0625 C-114.45219823 43.66024062 -114.45219823 43.66024062 -112.76953125 45.15234375 C-111.02098598 46.99078852 -110.18296354 48.69599052 -109.125 51 C-106.49439595 56.47165642 -103.39711086 61.59580543 -100.19677734 66.74707031 C-97.25 71.54322167 -97.25 71.54322167 -97.25 73.75 C-96.59 73.75 -95.93 73.75 -95.25 73.75 C-95.25 74.41 -95.25 75.07 -95.25 75.75 C-91.37419627 78.35291224 -87.31610507 77.98722752 -82.8359375 77.91015625 C-82.02508698 77.90495468 -81.21423645 77.89975311 -80.3788147 77.89439392 C-77.79402583 77.87661103 -75.20963676 77.84543296 -72.625 77.8125 C-70.03326176 77.78489256 -67.44157886 77.76019361 -64.84976196 77.74131775 C-63.23819944 77.72904921 -61.62666715 77.71143443 -60.01522827 77.68800354 C-54.47346383 77.63826809 -54.47346383 77.63826809 -52.25 78.75 C-52.188125 77.491875 -52.12625 76.23375 -52.0625 74.9375 C-51.41208218 68.95177075 -48.87053975 64.09720729 -46.25 58.75 C-45.775625 57.574375 -45.30125 56.39875 -44.8125 55.1875 C-42.02551102 49.05612425 -38.49136253 43.35772308 -34.5 37.9375 C-32.22201952 34.98123703 -32.22201952 34.98123703 -31.25 32.1875 C-30.1352505 29.47029811 -28.52748001 27.66544257 -26.59375 25.484375 C-25.06492855 23.51112871 -24.04703071 21.48405507 -22.9375 19.25 C-20.68220532 15.00976143 -18.10514057 12.7623325 -14.171875 10.0859375 C-10.71419763 7.68243006 -7.96236809 4.6232254 -5.3125 1.375 C-3.25 -0.25 -3.25 -0.25 0 0 Z " fill="#FEFEFE" transform="translate(553.25,193.25)"/>
<path d="M0 0 C0.9075 0.2475 1.815 0.495 2.75 0.75 C3.6875 3.25 3.6875 3.25 3.75 6.75 C0.95647435 11.29173202 -2.87953231 14.5946873 -7.25 17.5625 C-11.66798954 20.66796061 -14.01905782 24.64555535 -16.70703125 29.26171875 C-18.25 31.75 -18.25 31.75 -19.80078125 33.28515625 C-21.65693137 35.16131877 -22.51882417 37.10947237 -23.625 39.5 C-25.18652483 42.7409896 -26.78790936 45.67735622 -28.9375 48.5625 C-30.9638843 51.3556243 -32.07484759 53.56030059 -33.25 56.75 C-33.71019531 57.51183594 -34.17039062 58.27367187 -34.64453125 59.05859375 C-36.22771641 61.71264382 -37.53910039 64.37324694 -38.8125 67.1875 C-39.22628906 68.09371094 -39.64007812 68.99992187 -40.06640625 69.93359375 C-41.28493465 72.83312833 -42.27037241 75.762562 -43.25 78.75 C-42.48051025 78.72824707 -41.71102051 78.70649414 -40.91821289 78.68408203 C-32.34326222 78.54914463 -24.16002604 79.36284874 -15.6875 80.625 C-14.46353516 80.79902344 -13.23957031 80.97304688 -11.97851562 81.15234375 C10.68020344 84.40825336 10.68020344 84.40825336 20.75 87.75 C20.853125 86.925 20.95625 86.1 21.0625 85.25 C21.86646056 81.15710988 23.21352158 77.62459775 24.75 73.75 C25.41 73.75 26.07 73.75 26.75 73.75 C26.95625 72.945625 27.1625 72.14125 27.375 71.3125 C29.87144742 64.84443168 33.77796718 59.54446022 38.75 54.75 C39.04390625 54.11191406 39.3378125 53.47382813 39.640625 52.81640625 C40.9063189 50.45882852 42.06763774 49.52049829 44.25 48 C47.50526079 45.67481372 50.60665199 43.23965335 53.6875 40.6875 C60.20183684 35.45810116 67.1109894 31.9199752 74.765625 28.66015625 C76.90535194 27.7439901 76.90535194 27.7439901 79.25 26.0625 C82.83422005 24.18078447 86.69770987 23.40092632 90.75 23.75 C92.54296875 25.04296875 92.54296875 25.04296875 93.75 26.75 C93.4375 29.9375 93.4375 29.9375 92.75 32.75 C92.15832031 32.93175781 91.56664062 33.11351562 90.95703125 33.30078125 C86.50074401 34.71836039 82.71999613 36.24263402 78.75 38.75 C77.574375 39.245 76.39875 39.74 75.1875 40.25 C71.82290375 41.55235288 71.82290375 41.55235288 69.5625 43.4375 C67.75 44.75 67.75 44.75 63.75 44.75 C63.37875 45.7090625 63.37875 45.7090625 63 46.6875 C61.75 48.75 61.75 48.75 59.625 49.5 C59.00625 49.5825 58.3875 49.665 57.75 49.75 C57.75 50.41 57.75 51.07 57.75 51.75 C56.2109375 52.7578125 56.2109375 52.7578125 54.125 53.875 C49.37485171 56.72676156 46.82783733 60.23360827 43.75 64.75 C42.71335029 66.10801112 41.67171789 67.46223393 40.625 68.8125 C36.19673493 74.74383155 33.20008057 80.76727037 30.75 87.75 C33.89622546 90.89622546 38.27075356 90.81173545 42.54492188 91.4296875 C46.93948184 92.15185609 50.02340562 93.34420075 53.86303711 95.72900391 C57.55590023 97.72713478 61.6559372 98.64910813 65.6875 99.75 C71.43349507 101.32614334 76.73180595 103.00964051 81.98754883 105.85229492 C84.02890089 106.94163911 84.02890089 106.94163911 87.5 108.0625 C93.26750243 110.13880088 98.71871801 113.27002996 103.75 116.75 C103.75 117.41 103.75 118.07 103.75 118.75 C104.41 118.976875 105.07 119.20375 105.75 119.4375 C108.95407287 120.83928188 111.75254725 122.54599309 114.6875 124.43359375 C116.16947707 125.37947684 117.67546282 126.28812854 119.1953125 127.171875 C123.51316509 129.83917232 127.4477411 132.87788226 130.75 136.75 C130.875 140.1875 130.875 140.1875 129.75 142.75 C129.42 143.08 129.09 143.41 128.75 143.75 C122.72720216 143.75 119.88240047 141.57254575 115.3515625 137.7890625 C111.39118254 134.68498091 107.08554882 132.20622521 102.765625 129.64453125 C99.90524044 127.847528 97.37104987 125.87365591 94.75 123.75 C89.32093061 120.22622666 83.6381018 117.81713364 77.5234375 115.7421875 C75.48017979 115.01121925 73.46876053 114.18974475 71.48046875 113.3203125 C66.55861481 111.17822092 61.4432317 109.62817508 56.33398438 108 C52.92261039 106.89079796 49.80405072 105.77786466 46.60546875 104.12890625 C43.3853061 102.57388926 40.66522484 102.11448262 37.125 101.6875 C31.13586327 100.95456369 31.13586327 100.95456369 28.87109375 99.75390625 C25.56345706 98.18841338 22.0381135 98.08609875 18.4375 97.75 C12.96871811 97.23145001 8.03112196 96.36219436 2.75 94.75 C-0.03074038 94.03409029 -2.82564933 93.38871103 -5.625 92.75 C-6.30949219 92.585 -6.99398437 92.42 -7.69921875 92.25 C-21.68319066 89.07069555 -35.78410898 88.44904897 -50.0625 88.51953125 C-51.69490523 88.52072762 -53.32731115 88.52117525 -54.9597168 88.5209198 C-58.33777329 88.52246516 -61.71572085 88.53061398 -65.09375 88.54418945 C-69.43035201 88.56139656 -73.76683767 88.56499657 -78.10346985 88.56424427 C-81.4541943 88.56451509 -84.80489316 88.56997853 -88.15560913 88.57724571 C-89.7568645 88.58042943 -91.35812275 88.5823991 -92.9593811 88.58313942 C-95.17739925 88.5852938 -97.3952902 88.59401169 -99.61328125 88.60473633 C-100.87438721 88.60854813 -102.13549316 88.61235992 -103.43481445 88.61628723 C-106.15329002 88.42903571 -106.15329002 88.42903571 -107.25 89.75 C-108.60844047 89.87070874 -109.97250611 89.92953796 -111.3359375 89.9609375 C-112.17842041 89.98720215 -113.02090332 90.0134668 -113.88891602 90.04052734 C-115.24327759 90.08234131 -115.24327759 90.08234131 -116.625 90.125 C-123.17229741 90.38751092 -129.0364924 90.89601639 -135.296875 92.93359375 C-139.3383313 94.05087466 -143.41664034 94.59175826 -147.5625 95.1875 C-154.68813162 96.23223809 -161.36595477 97.73466394 -168.2578125 99.8515625 C-170.75817655 100.60232455 -173.19137619 101.19077084 -175.75 101.6875 C-179.61764484 102.48671812 -183.17973981 103.79867738 -186.875 105.1875 C-191.8415242 107.03526062 -196.52139332 108.22548812 -201.75 109.0625 C-210.15881838 110.58659833 -216.10762541 114.2340083 -223.25 118.75 C-229.73187633 122.75 -229.73187633 122.75 -233.25 122.75 C-233.58 123.74 -233.91 124.73 -234.25 125.75 C-239.47222222 128.75 -239.47222222 128.75 -242.25 128.75 C-242.58 129.74 -242.91 130.73 -243.25 131.75 C-246.125 131.875 -246.125 131.875 -249.25 131.75 C-251.25 129.75 -251.25 129.75 -251.9375 127.0625 C-250.98807495 122.48799748 -248.86123606 121.19775421 -245.1484375 118.5390625 C-241.35833164 116.19961711 -237.42575442 114.22724872 -233.41235352 112.30932617 C-229.9295552 110.63639711 -226.72368041 108.84406919 -223.5625 106.625 C-211.70733501 98.48271636 -199.17300158 96.69777742 -185.25 94.75 C-187.50294349 90.59498128 -189.75155652 86.49766521 -192.375 82.5625 C-194.25 79.75 -194.25 79.75 -195.6328125 76.9140625 C-203.87005647 60.79771561 -216.30730894 52.29277856 -232.25 44.75 C-233.23742187 44.2653125 -234.22484375 43.780625 -235.2421875 43.28125 C-242.12304392 39.97843892 -248.8060946 37.45061166 -256.25 35.75 C-257.40625 31.0546875 -257.40625 31.0546875 -256 28.3125 C-252.11722903 26.10638013 -249.63927792 26.8250635 -245.375 27.7890625 C-239.71976626 29.52804687 -234.52568573 32.09953587 -229.25 34.75 C-228.21359375 35.25015625 -227.1771875 35.7503125 -226.109375 36.265625 C-223.13132716 37.71646882 -220.18644499 39.21688369 -217.25 40.75 C-216.41984375 41.17539063 -215.5896875 41.60078125 -214.734375 42.0390625 C-203.91395846 48.00774388 -194.33466279 56.97970273 -188.25 67.75 C-187.6725 68.6575 -187.095 69.565 -186.5 70.5 C-185.25 72.75 -185.25 72.75 -184.4375 75.0625 C-182.96829452 78.38754398 -180.89385939 80.89338813 -178.58984375 83.6875 C-177.06063697 86.04149761 -176.63807669 87.99034355 -176.25 90.75 C-175.36699219 90.49605469 -174.48398437 90.24210937 -173.57421875 89.98046875 C-171.07263643 89.26304396 -168.57018966 88.54946884 -166.06640625 87.83984375 C-163.75735659 87.18045291 -161.45154519 86.50935599 -159.15234375 85.81640625 C-158.23582031 85.54699219 -157.31929688 85.27757812 -156.375 85 C-155.57320313 84.75765625 -154.77140625 84.5153125 -153.9453125 84.265625 C-151.02707325 83.70735314 -148.28560251 83.77882219 -145.32519531 83.82666016 C-141.94867416 83.70192749 -138.79308631 82.72416539 -135.5625 81.8125 C-125.55540553 79.19433173 -115.54631502 78.95129648 -105.25 78.75 C-105.745 77.96625 -106.24 77.1825 -106.75 76.375 C-108.25 73.75 -108.25 73.75 -108.25 71.75 C-108.91 71.75 -109.57 71.75 -110.25 71.75 C-110.97316406 70.37714844 -110.97316406 70.37714844 -111.7109375 68.9765625 C-112.34876794 67.7759405 -112.98679926 66.5754252 -113.625 65.375 C-113.94210937 64.77171875 -114.25921875 64.1684375 -114.5859375 63.546875 C-115.9632062 60.96449618 -117.16830581 58.83169419 -119.25 56.75 C-119.4046875 55.6053125 -119.4046875 55.6053125 -119.5625 54.4375 C-120.49584371 50.78897458 -122.55264893 49.31890578 -125.25 46.75 C-126.26711133 45.09372034 -127.26517245 43.42567672 -128.25 41.75 C-129.47968662 39.98566703 -130.7308668 38.23617422 -132 36.5 C-133.04414063 35.07107422 -133.04414063 35.07107422 -134.109375 33.61328125 C-136.66727927 30.19185091 -139.3110603 26.8465037 -142 23.52734375 C-143.25 21.75 -143.25 21.75 -143.25 19.75 C-143.848125 19.523125 -144.44625 19.29625 -145.0625 19.0625 C-147.90517943 17.35689234 -148.85915375 15.74031944 -150.25 12.75 C-150.5625 10.0625 -150.5625 10.0625 -150.25 7.75 C-148.25 5.75 -148.25 5.75 -146.0625 5.1875 C-141.63448484 6.07310303 -138.98506339 9.26614404 -136.25 12.75 C-136.25 13.41 -136.25 14.07 -136.25 14.75 C-135.59 14.75 -134.93 14.75 -134.25 14.75 C-132.8828125 16.76171875 -132.8828125 16.76171875 -131.375 19.4375 C-129.2213911 23.14649311 -127.01744782 26.46365571 -124.25 29.75 C-121.39829767 33.44636416 -118.63574993 37.16586439 -116.0625 41.0625 C-114.45219823 43.66024062 -114.45219823 43.66024062 -112.76953125 45.15234375 C-111.02098598 46.99078852 -110.18296354 48.69599052 -109.125 51 C-106.49439595 56.47165642 -103.39711086 61.59580543 -100.19677734 66.74707031 C-97.25 71.54322167 -97.25 71.54322167 -97.25 73.75 C-96.59 73.75 -95.93 73.75 -95.25 73.75 C-95.25 74.41 -95.25 75.07 -95.25 75.75 C-91.37419627 78.35291224 -87.31610507 77.98722752 -82.8359375 77.91015625 C-82.02508698 77.90495468 -81.21423645 77.89975311 -80.3788147 77.89439392 C-77.79402583 77.87661103 -75.20963676 77.84543296 -72.625 77.8125 C-70.03326176 77.78489256 -67.44157886 77.76019361 -64.84976196 77.74131775 C-63.23819944 77.72904921 -61.62666715 77.71143443 -60.01522827 77.68800354 C-54.47346383 77.63826809 -54.47346383 77.63826809 -52.25 78.75 C-52.188125 77.491875 -52.12625 76.23375 -52.0625 74.9375 C-51.41208218 68.95177075 -48.87053975 64.09720729 -46.25 58.75 C-45.775625 57.574375 -45.30125 56.39875 -44.8125 55.1875 C-42.02551102 49.05612425 -38.49136253 43.35772308 -34.5 37.9375 C-32.22201952 34.98123703 -32.22201952 34.98123703 -31.25 32.1875 C-30.1352505 29.47029811 -28.52748001 27.66544257 -26.59375 25.484375 C-25.06492855 23.51112871 -24.04703071 21.48405507 -22.9375 19.25 C-20.68220532 15.00976143 -18.10514057 12.7623325 -14.171875 10.0859375 C-10.71419763 7.68243006 -7.96236809 4.6232254 -5.3125 1.375 C-3.25 -0.25 -3.25 -0.25 0 0 Z " fill="#303030" transform="translate(553.25,193.25)"/>
<path d="M0 0 C2.62890625 0.8671875 2.62890625 0.8671875 3.62890625 1.8671875 C4.04296875 4.640625 4.04296875 4.640625 3.62890625 7.8671875 C1.21484375 10.28125 1.21484375 10.28125 -1.99609375 12.4921875 C-3.56230469 13.59433594 -3.56230469 13.59433594 -5.16015625 14.71875 C-8.22823309 16.77159947 -11.29956814 18.81950376 -14.37109375 20.8671875 C-15.04011719 21.33640625 -15.70914062 21.805625 -16.3984375 22.2890625 C-33.57343653 34.23077962 -51.98711225 40.72577339 -72.37109375 44.8671875 C-72.37109375 45.5271875 -72.37109375 46.1871875 -72.37109375 46.8671875 C-71.38109375 47.1971875 -70.39109375 47.5271875 -69.37109375 47.8671875 C-68.2734375 50.046875 -68.2734375 50.046875 -67.30859375 52.7421875 C-66.18905022 55.82655241 -65.20846956 58.11112379 -63.37109375 60.8671875 C-63.08234375 61.9190625 -62.79359375 62.9709375 -62.49609375 64.0546875 C-61.42546329 67.68293516 -60.05306888 70.68380558 -58.31640625 74.015625 C-57.17867057 76.24408249 -56.27746802 78.53651081 -55.37109375 80.8671875 C-53.93119136 84.46694348 -52.79146225 85.20586566 -49.37109375 86.8671875 C-48.58734375 87.6715625 -47.80359375 88.4759375 -46.99609375 89.3046875 C-44.27552073 91.96048497 -41.80755699 93.30515875 -38.37109375 94.8671875 C-37.37109375 95.8671875 -37.37109375 95.8671875 -37.18359375 98.3046875 C-37.37109375 100.8671875 -37.37109375 100.8671875 -39.37109375 102.8671875 C-44.4012115 103.2200195 -48.40088008 102.50155798 -52.62109375 99.7421875 C-61.37109375 90.59446023 -61.37109375 90.59446023 -61.37109375 87.8671875 C-62.36109375 87.5371875 -63.35109375 87.2071875 -64.37109375 86.8671875 C-65.65234375 84.3203125 -65.65234375 84.3203125 -66.87109375 81.1171875 C-68.41688808 77.09415867 -70.11765344 73.53689615 -72.37109375 69.8671875 C-72.80421875 68.536875 -72.80421875 68.536875 -73.24609375 67.1796875 C-74.559902 63.31125209 -76.35407284 59.84620064 -78.25 56.234375 C-79.26288727 54.09566529 -79.89751461 52.17655095 -80.37109375 49.8671875 C-81.85609375 50.3621875 -81.85609375 50.3621875 -83.37109375 50.8671875 C-86.33372729 51.13651782 -89.29614261 51.31139193 -92.265625 51.48828125 C-95.53117904 51.88671992 -98.26478485 52.80492643 -101.37109375 53.8671875 C-103.50861825 54.26846511 -105.65558794 54.62211524 -107.80859375 54.9296875 C-108.87980469 55.08566406 -109.95101563 55.24164063 -111.0546875 55.40234375 C-112.14910156 55.55574219 -113.24351562 55.70914063 -114.37109375 55.8671875 C-117.76628463 56.35113453 -121.16116186 56.83653487 -124.5546875 57.33203125 C-128.15858214 57.85552615 -131.76426065 58.36432912 -135.37109375 58.8671875 C-136.04479004 58.96177246 -136.71848633 59.05635742 -137.41259766 59.15380859 C-145.41095301 60.26411529 -153.27399874 61.21754257 -161.37109375 60.8671875 C-161.47388549 66.66921025 -161.417964 72.44913905 -161.05859375 78.2421875 C-160.97158203 79.67691406 -160.97158203 79.67691406 -160.8828125 81.140625 C-160.29673992 84.26336288 -159.10078268 86.22596585 -157.37109375 88.8671875 C-157.04109375 89.7746875 -156.71109375 90.6821875 -156.37109375 91.6171875 C-156.04109375 92.3596875 -155.71109375 93.1021875 -155.37109375 93.8671875 C-154.38109375 94.1971875 -153.39109375 94.5271875 -152.37109375 94.8671875 C-151.93796875 95.7540625 -151.50484375 96.6409375 -151.05859375 97.5546875 C-149.56054544 100.49530085 -148.49460004 101.90925426 -146.18359375 104.1171875 C-144.79140625 105.4784375 -144.79140625 105.4784375 -143.37109375 106.8671875 C-143.37109375 107.5271875 -143.37109375 108.1871875 -143.37109375 108.8671875 C-142.66984375 109.0940625 -141.96859375 109.3209375 -141.24609375 109.5546875 C-137.53633563 111.24827273 -135.2696416 112.96863965 -132.37109375 115.8671875 C-131.87109375 118.5546875 -131.87109375 118.5546875 -132.37109375 120.8671875 C-134.37109375 122.8671875 -134.37109375 122.8671875 -137.37109375 122.9296875 C-147.15025309 121.17758812 -154.57546942 112.21149818 -160.02734375 104.53515625 C-162.6081839 100.72082632 -165.00204352 96.81560455 -167.37109375 92.8671875 C-167.87898437 92.29484375 -168.386875 91.7225 -168.91015625 91.1328125 C-170.82820205 88.15830298 -170.87869941 85.95161885 -171.05859375 82.4296875 C-171.12433594 81.31722656 -171.19007813 80.20476562 -171.2578125 79.05859375 C-171.46561109 73.33142539 -171.39551317 67.59706893 -171.37109375 61.8671875 C-173.07700684 61.82960327 -173.07700684 61.82960327 -174.81738281 61.79125977 C-179.14150444 61.69524559 -183.46553529 61.59554469 -187.78955078 61.49487305 C-189.64141683 61.45224085 -191.49330451 61.41053607 -193.34521484 61.36987305 C-206.3681748 61.0830705 -219.36461903 60.58400363 -232.37109375 59.8671875 C-232.33967285 60.9502417 -232.30825195 62.0332959 -232.27587891 63.14916992 C-232.16597361 67.22861099 -232.09793197 71.30792605 -232.04150391 75.38842773 C-232.01162304 77.14288449 -231.97090168 78.89719575 -231.91845703 80.65112305 C-231.51761393 94.41733256 -232.93721435 104.2763752 -241.80859375 115.4296875 C-246.10985861 119.89130653 -250.26704319 123.03370752 -256.68359375 123.2421875 C-260.37109375 122.8671875 -260.37109375 122.8671875 -262.37109375 120.8671875 C-262.62109375 118.3671875 -262.62109375 118.3671875 -262.37109375 115.8671875 C-260.10713789 113.60323164 -258.32811477 113.03624232 -255.37109375 111.8671875 C-248.53806219 108.62149751 -245.571892 102.9869846 -243.02978516 96.09379578 C-241.97897929 92.54170291 -241.89187683 89.11374033 -241.859375 85.4296875 C-241.8414238 84.66414551 -241.8234726 83.89860352 -241.80497742 83.10986328 C-241.7513542 80.69569194 -241.71713552 78.28171265 -241.68359375 75.8671875 C-241.65037807 74.21742145 -241.61588456 72.5676806 -241.58007812 70.91796875 C-241.49565655 66.90118145 -241.42861937 62.88444633 -241.37109375 58.8671875 C-241.94964111 58.82231201 -242.52818848 58.77743652 -243.12426758 58.73120117 C-262.67695049 57.16908751 -262.67695049 57.16908751 -270.64453125 54.65234375 C-274.15610994 53.64112983 -277.7152671 53.00596387 -281.30859375 52.3671875 C-288.0775377 51.15503129 -294.72444132 49.64214582 -301.37109375 47.8671875 C-301.34402344 48.80691406 -301.31695312 49.74664062 -301.2890625 50.71484375 C-301.38585988 54.43462878 -302.34872754 55.79618696 -304.37109375 58.8671875 C-304.80421875 59.8984375 -305.23734375 60.9296875 -305.68359375 61.9921875 C-309.17258528 70.26505401 -313.34680616 77.36029626 -319.5390625 83.89453125 C-321.4181809 85.83238283 -321.4181809 85.83238283 -322.94140625 88.07421875 C-324.37109375 89.8671875 -324.37109375 89.8671875 -327.05859375 90.6171875 C-327.82171875 90.6996875 -328.58484375 90.7821875 -329.37109375 90.8671875 C-329.37109375 91.5271875 -329.37109375 92.1871875 -329.37109375 92.8671875 C-331.3828125 94.3046875 -331.3828125 94.3046875 -334.05859375 95.8671875 C-334.92871094 96.3828125 -335.79882812 96.8984375 -336.6953125 97.4296875 C-339.20700998 98.77903739 -341.72068555 99.82744768 -344.37109375 100.8671875 C-344.70109375 101.1971875 -345.03109375 101.5271875 -345.37109375 101.8671875 C-348.30859375 102.0546875 -348.30859375 102.0546875 -351.37109375 101.8671875 C-353.37109375 99.8671875 -353.37109375 99.8671875 -353.80859375 97.5546875 C-353.16709057 93.6140251 -351.46918497 92.30611037 -348.37109375 89.8671875 C-347.28570312 89.58488281 -346.2003125 89.30257812 -345.08203125 89.01171875 C-340.92481762 87.72954655 -338.44033103 85.94929612 -335.05859375 83.2421875 C-329.55879091 78.8671875 -329.55879091 78.8671875 -327.37109375 78.8671875 C-326.71109375 77.2171875 -326.05109375 75.5671875 -325.37109375 73.8671875 C-324.71109375 73.8671875 -324.05109375 73.8671875 -323.37109375 73.8671875 C-323.10296875 73.1453125 -322.83484375 72.4234375 -322.55859375 71.6796875 C-321.00215118 67.99337616 -318.92499348 64.75342707 -316.80859375 61.3671875 C-315.40049736 58.91832421 -314.36535658 56.50682333 -313.37109375 53.8671875 C-312.81421875 52.6296875 -312.81421875 52.6296875 -312.24609375 51.3671875 C-311.30948487 48.69116212 -311.30551549 46.67768436 -311.37109375 43.8671875 C-317.53157126 41.93775337 -323.67613016 40.02149841 -329.93359375 38.4296875 C-339.04931961 35.97136493 -347.66422812 32.35091881 -355.37109375 26.8671875 C-355.37109375 26.2071875 -355.37109375 25.5471875 -355.37109375 24.8671875 C-356.09296875 24.7640625 -356.81484375 24.6609375 -357.55859375 24.5546875 C-362.71118773 23.29516453 -366.80160385 19.93361406 -371.05859375 16.8671875 C-372.01121094 16.1865625 -372.96382813 15.5059375 -373.9453125 14.8046875 C-376.37109375 12.8671875 -376.37109375 12.8671875 -378.37109375 9.8671875 C-378.30859375 7.3046875 -378.30859375 7.3046875 -377.37109375 4.8671875 C-375.30859375 3.1796875 -375.30859375 3.1796875 -372.37109375 2.8671875 C-369.41406312 4.5219299 -366.92089322 6.64791759 -364.37109375 8.8671875 C-360.61615572 12.12805474 -356.88415536 14.18524347 -352.42578125 16.30859375 C-350.0998752 17.49534121 -347.9138776 18.72398128 -345.69140625 20.08203125 C-337.73471146 24.90072212 -331.25511526 27.74958828 -321.99609375 29.19140625 C-315.59689535 30.38436026 -309.22026507 32.74489807 -303.5078125 35.89453125 C-300.25603146 37.37477527 -296.83866267 38.0701055 -293.37109375 38.8671875 C-292.2737793 39.125 -291.17646484 39.3828125 -290.04589844 39.6484375 C-286.79654559 40.40760834 -283.5452718 41.1568541 -280.29199219 41.89892578 C-278.93826535 42.20876445 -277.58506297 42.52090441 -276.23242188 42.83544922 C-267.86863187 44.77952041 -259.59810449 46.38294948 -251.07080078 47.45507812 C-248.37109375 47.8671875 -248.37109375 47.8671875 -246.37109375 48.8671875 C-230.20406161 51.52364464 -213.71359878 51.575333 -197.37109375 51.8671875 C-196.61608582 51.8815686 -195.86107788 51.89594971 -195.08319092 51.9107666 C-161.17086087 53.31169298 -161.17086087 53.31169298 -128.35864258 46.47021484 C-126.22189977 45.82192167 -124.53331728 45.73861458 -122.30859375 45.8046875 C-118.71253023 45.86176787 -115.96014271 45.34425978 -112.5234375 44.37109375 C-109.23908531 43.60216193 -105.93072056 43.42195213 -102.5703125 43.2109375 C-100.08605723 42.9801729 -100.08605723 42.9801729 -97.37109375 40.8671875 C-95.16706929 40.69437838 -92.95640911 40.60043477 -90.74609375 40.5546875 C-84.97398375 40.22485264 -81.66520346 39.28613599 -76.89453125 36.19140625 C-73.60693949 34.46618395 -70.21441642 33.68492303 -66.62109375 32.8671875 C-47.8555477 28.53314629 -29.61620671 19.52055285 -14.29296875 7.80859375 C-13.62563721 7.29901123 -12.95830566 6.78942871 -12.27075195 6.2644043 C-10.99034574 5.27108182 -9.72243075 4.26138288 -8.46948242 3.23364258 C-5.44576294 0.87066647 -3.90089643 -0.15368537 0 0 Z " fill="#303030" transform="translate(679.37109375,401.1328125)"/>
<path d="M0 0 C8.71383165 4.18263919 13.68913717 12.18977935 17 20.95703125 C21.86650888 35.76566571 21.72669054 53.18285269 17 68 C16.61714844 69.31677734 16.61714844 69.31677734 16.2265625 70.66015625 C13.72132921 78.09541286 8.71296394 85.04752064 1.9921875 89.2578125 C-1.65517712 90.61663461 -5.17627531 90.521417 -9 90 C-17.71383165 85.81736081 -22.68913717 77.81022065 -26 69.04296875 C-31.65245576 51.84272252 -30.85148695 31.00528862 -23.25 14.5625 C-18.02432198 4.82609991 -11.50621814 -1.56902975 0 0 Z " fill="#256E59" transform="translate(495,312)"/>
</svg>
