<?xml version="1.0" encoding="UTF-8"?>
<svg version="1.1" xmlns="http://www.w3.org/2000/svg" width="60" height="60" viewBox="0 0 1000 750">
<path d="M0 0 C2.62890625 0.8671875 2.62890625 0.8671875 3.62890625 1.8671875 C4.04296875 4.640625 4.04296875 4.640625 3.62890625 7.8671875 C1.21484375 10.28125 1.21484375 10.28125 -1.99609375 12.4921875 C-3.56230469 13.59433594 -3.56230469 13.59433594 -5.16015625 14.71875 C-8.22823309 16.77159947 -11.29956814 18.81950376 -14.37109375 20.8671875 C-15.04011719 21.33640625 -15.70914062 21.805625 -16.3984375 22.2890625 C-33.57343653 34.23077962 -51.98711225 40.72577339 -72.37109375 44.8671875 C-72.37109375 45.5271875 -72.37109375 46.1871875 -72.37109375 46.8671875 C-71.38109375 47.1971875 -70.39109375 47.5271875 -69.37109375 47.8671875 C-68.2734375 50.046875 -68.2734375 50.046875 -67.30859375 52.7421875 C-66.18905022 55.82655241 -65.20846956 58.11112379 -63.37109375 60.8671875 C-63.08234375 61.9190625 -62.79359375 62.9709375 -62.49609375 64.0546875 C-61.42546329 67.68293516 -60.05306888 70.68380558 -58.31640625 74.015625 C-57.17867057 76.24408249 -56.27746802 78.53651081 -55.37109375 80.8671875 C-53.93119136 84.46694348 -52.79146225 85.20586566 -49.37109375 86.8671875 C-48.58734375 87.6715625 -47.80359375 88.4759375 -46.99609375 89.3046875 C-44.27552073 91.96048497 -41.80755699 93.30515875 -38.37109375 94.8671875 C-37.37109375 95.8671875 -37.37109375 95.8671875 -37.18359375 98.3046875 C-37.37109375 100.8671875 -37.37109375 100.8671875 -39.37109375 102.8671875 C-44.4012115 103.2200195 -48.40088008 102.50155798 -52.62109375 99.7421875 C-61.37109375 90.59446023 -61.37109375 90.59446023 -61.37109375 87.8671875 C-62.36109375 87.5371875 -63.35109375 87.2071875 -64.37109375 86.8671875 C-65.65234375 84.3203125 -65.65234375 84.3203125 -66.87109375 81.1171875 C-68.41688808 77.09415867 -70.11765344 73.53689615 -72.37109375 69.8671875 C-72.80421875 68.536875 -72.80421875 68.536875 -73.24609375 67.1796875 C-74.559902 63.31125209 -76.35407284 59.84620064 -78.25 56.234375 C-79.26288727 54.09566529 -79.89751461 52.17655095 -80.37109375 49.8671875 C-81.85609375 50.3621875 -81.85609375 50.3621875 -83.37109375 50.8671875 C-86.33372729 51.13651782 -89.29614261 51.31139193 -92.265625 51.48828125 C-95.53117904 51.88671992 -98.26478485 52.80492643 -101.37109375 53.8671875 C-103.50861825 54.26846511 -105.65558794 54.62211524 -107.80859375 54.9296875 C-108.87980469 55.08566406 -109.95101563 55.24164063 -111.0546875 55.40234375 C-112.14910156 55.55574219 -113.24351562 55.70914063 -114.37109375 55.8671875 C-117.76628463 56.35113453 -121.16116186 56.83653487 -124.5546875 57.33203125 C-128.15858214 57.85552615 -131.76426065 58.36432912 -135.37109375 58.8671875 C-136.04479004 58.96177246 -136.71848633 59.05635742 -137.41259766 59.15380859 C-145.41095301 60.26411529 -153.27399874 61.21754257 -161.37109375 60.8671875 C-161.47388549 66.66921025 -161.417964 72.44913905 -161.05859375 78.2421875 C-160.97158203 79.67691406 -160.97158203 79.67691406 -160.8828125 81.140625 C-160.29673992 84.26336288 -159.10078268 86.22596585 -157.37109375 88.8671875 C-157.04109375 89.7746875 -156.71109375 90.6821875 -156.37109375 91.6171875 C-156.04109375 92.3596875 -155.71109375 93.1021875 -155.37109375 93.8671875 C-154.38109375 94.1971875 -153.39109375 94.5271875 -152.37109375 94.8671875 C-151.93796875 95.7540625 -151.50484375 96.6409375 -151.05859375 97.5546875 C-149.56054544 100.49530085 -148.49460004 101.90925426 -146.18359375 104.1171875 C-144.79140625 105.4784375 -144.79140625 105.4784375 -143.37109375 106.8671875 C-143.37109375 107.5271875 -143.37109375 108.1871875 -143.37109375 108.8671875 C-142.66984375 109.0940625 -141.96859375 109.3209375 -141.24609375 109.5546875 C-137.53633563 111.24827273 -135.2696416 112.96863965 -132.37109375 115.8671875 C-131.87109375 118.5546875 -131.87109375 118.5546875 -132.37109375 120.8671875 C-134.37109375 122.8671875 -134.37109375 122.8671875 -137.37109375 122.9296875 C-147.15025309 121.17758812 -154.57546942 112.21149818 -160.02734375 104.53515625 C-162.6081839 100.72082632 -165.00204352 96.81560455 -167.37109375 92.8671875 C-167.87898437 92.29484375 -168.386875 91.7225 -168.91015625 91.1328125 C-170.82820205 88.15830298 -170.87869941 85.95161885 -171.05859375 82.4296875 C-171.12433594 81.31722656 -171.19007813 80.20476562 -171.2578125 79.05859375 C-171.46561109 73.33142539 -171.39551317 67.59706893 -171.37109375 61.8671875 C-173.07700684 61.82960327 -173.07700684 61.82960327 -174.81738281 61.79125977 C-179.14150444 61.69524559 -183.46553529 61.59554469 -187.78955078 61.49487305 C-189.64141683 61.45224085 -191.49330451 61.41053607 -193.34521484 61.36987305 C-206.3681748 61.0830705 -219.36461903 60.58400363 -232.37109375 59.8671875 C-232.33967285 60.9502417 -232.30825195 62.0332959 -232.27587891 63.14916992 C-232.16597361 67.22861099 -232.09793197 71.30792605 -232.04150391 75.38842773 C-232.01162304 77.14288449 -231.97090168 78.89719575 -231.91845703 80.65112305 C-231.51761393 94.41733256 -232.93721435 104.2763752 -241.80859375 115.4296875 C-246.10985861 119.89130653 -250.26704319 123.03370752 -256.68359375 123.2421875 C-260.37109375 122.8671875 -260.37109375 122.8671875 -262.37109375 120.8671875 C-262.62109375 118.3671875 -262.62109375 118.3671875 -262.37109375 115.8671875 C-260.10713789 113.60323164 -258.32811477 113.03624232 -255.37109375 111.8671875 C-248.53806219 108.62149751 -245.571892 102.9869846 -243.02978516 96.09379578 C-241.97897929 92.54170291 -241.89187683 89.11374033 -241.859375 85.4296875 C-241.8414238 84.66414551 -241.8234726 83.89860352 -241.80497742 83.10986328 C-241.7513542 80.69569194 -241.71713552 78.28171265 -241.68359375 75.8671875 C-241.65037807 74.21742145 -241.61588456 72.5676806 -241.58007812 70.91796875 C-241.49565655 66.90118145 -241.42861937 62.88444633 -241.37109375 58.8671875 C-241.94964111 58.82231201 -242.52818848 58.77743652 -243.12426758 58.73120117 C-262.67695049 57.16908751 -262.67695049 57.16908751 -270.64453125 54.65234375 C-274.15610994 53.64112983 -277.7152671 53.00596387 -281.30859375 52.3671875 C-288.0775377 51.15503129 -294.72444132 49.64214582 -301.37109375 47.8671875 C-301.34402344 48.80691406 -301.31695312 49.74664062 -301.2890625 50.71484375 C-301.38585988 54.43462878 -302.34872754 55.79618696 -304.37109375 58.8671875 C-304.80421875 59.8984375 -305.23734375 60.9296875 -305.68359375 61.9921875 C-309.17258528 70.26505401 -313.34680616 77.36029626 -319.5390625 83.89453125 C-321.4181809 85.83238283 -321.4181809 85.83238283 -322.94140625 88.07421875 C-324.37109375 89.8671875 -324.37109375 89.8671875 -327.05859375 90.6171875 C-327.82171875 90.6996875 -328.58484375 90.7821875 -329.37109375 90.8671875 C-329.37109375 91.5271875 -329.37109375 92.1871875 -329.37109375 92.8671875 C-331.3828125 94.3046875 -331.3828125 94.3046875 -334.05859375 95.8671875 C-334.92871094 96.3828125 -335.79882812 96.8984375 -336.6953125 97.4296875 C-339.20700998 98.77903739 -341.72068555 99.82744768 -344.37109375 100.8671875 C-344.70109375 101.1971875 -345.03109375 101.5271875 -345.37109375 101.8671875 C-348.30859375 102.0546875 -348.30859375 102.0546875 -351.37109375 101.8671875 C-353.37109375 99.8671875 -353.37109375 99.8671875 -353.80859375 97.5546875 C-353.16709057 93.6140251 -351.46918497 92.30611037 -348.37109375 89.8671875 C-347.28570312 89.58488281 -346.2003125 89.30257812 -345.08203125 89.01171875 C-340.92481762 87.72954655 -338.44033103 85.94929612 -335.05859375 83.2421875 C-329.55879091 78.8671875 -329.55879091 78.8671875 -327.37109375 78.8671875 C-326.71109375 77.2171875 -326.05109375 75.5671875 -325.37109375 73.8671875 C-324.71109375 73.8671875 -324.05109375 73.8671875 -323.37109375 73.8671875 C-323.10296875 73.1453125 -322.83484375 72.4234375 -322.55859375 71.6796875 C-321.00215118 67.99337616 -318.92499348 64.75342707 -316.80859375 61.3671875 C-315.40049736 58.91832421 -314.36535658 56.50682333 -313.37109375 53.8671875 C-312.81421875 52.6296875 -312.81421875 52.6296875 -312.24609375 51.3671875 C-311.30948487 48.69116212 -311.30551549 46.67768436 -311.37109375 43.8671875 C-317.53157126 41.93775337 -323.67613016 40.02149841 -329.93359375 38.4296875 C-339.04931961 35.97136493 -347.66422812 32.35091881 -355.37109375 26.8671875 C-355.37109375 26.2071875 -355.37109375 25.5471875 -355.37109375 24.8671875 C-356.09296875 24.7640625 -356.81484375 24.6609375 -357.55859375 24.5546875 C-362.71118773 23.29516453 -366.80160385 19.93361406 -371.05859375 16.8671875 C-372.01121094 16.1865625 -372.96382813 15.5059375 -373.9453125 14.8046875 C-376.37109375 12.8671875 -376.37109375 12.8671875 -378.37109375 9.8671875 C-378.30859375 7.3046875 -378.30859375 7.3046875 -377.37109375 4.8671875 C-375.30859375 3.1796875 -375.30859375 3.1796875 -372.37109375 2.8671875 C-369.41406312 4.5219299 -366.92089322 6.64791759 -364.37109375 8.8671875 C-360.61615572 12.12805474 -356.88415536 14.18524347 -352.42578125 16.30859375 C-350.0998752 17.49534121 -347.9138776 18.72398128 -345.69140625 20.08203125 C-337.73471146 24.90072212 -331.25511526 27.74958828 -321.99609375 29.19140625 C-315.59689535 30.38436026 -309.22026507 32.74489807 -303.5078125 35.89453125 C-300.25863315 37.37359096 -296.83310158 38.05800015 -293.37109375 38.8671875 C-291.83678711 39.24593018 -291.83678711 39.24593018 -290.27148438 39.63232422 C-246.0444465 50.51525479 -197.51165414 54.14168305 -152.05859375 50.0546875 C-150.54168945 49.92537842 -150.54168945 49.92537842 -148.99414062 49.79345703 C-142.21005188 49.16654813 -135.76645576 48.06841966 -129.14453125 46.45703125 C-126.64581904 45.92561499 -124.53659015 45.73168473 -121.99609375 45.8046875 C-118.54472909 45.86419379 -115.82746838 45.30669061 -112.5234375 44.37109375 C-109.23908531 43.60216193 -105.93072056 43.42195213 -102.5703125 43.2109375 C-100.08605723 42.9801729 -100.08605723 42.9801729 -97.37109375 40.8671875 C-95.16706929 40.69437838 -92.95640911 40.60043477 -90.74609375 40.5546875 C-84.97398375 40.22485264 -81.66520346 39.28613599 -76.89453125 36.19140625 C-73.60693949 34.46618395 -70.21441642 33.68492303 -66.62109375 32.8671875 C-47.8555477 28.53314629 -29.61620671 19.52055285 -14.29296875 7.80859375 C-13.62563721 7.29901123 -12.95830566 6.78942871 -12.27075195 6.2644043 C-10.99034574 5.27108182 -9.72243075 4.26138288 -8.46948242 3.23364258 C-5.44576294 0.87066647 -3.90089643 -0.15368537 0 0 Z " fill="#303030" transform="translate(693.37109375,338.1328125)"/>
<path d="M0 0 C10.68587896 -0.62247839 10.68587896 -0.62247839 15.5625 1.6875 C17.97425925 3.97557929 19.51760037 6.03520073 21 9 C13.63011293 7.033631 6.86954798 4.30417422 0 1 C0 0.67 0 0.34 0 0 Z M11 3 C11.33 3.66 11.66 4.32 12 5 C12.66 4.67 13.32 4.34 14 4 C13.01 3.67 12.02 3.34 11 3 Z " fill="#303030" transform="translate(636,241)"/>
<path d="M0 0 C10.75852347 -0.32055191 18.05643799 3.63630639 27 9 C25 10 25 10 22.35546875 9.328125 C21.31003906 8.97234375 20.26460937 8.6165625 19.1875 8.25 C18.14980469 7.90453125 17.11210938 7.5590625 16.04296875 7.203125 C13 6 13 6 10.3828125 4.40234375 C7.97216305 2.98361727 6.44037116 2.54579417 3.6875 2.3125 C2.470625 2.209375 1.25375 2.10625 0 2 C0 1.34 0 0.68 0 0 Z " fill="#303030" transform="translate(604,230)"/>
<path d="M0 0 C0 0.66 0 1.32 0 2 C-1.03640625 2.19335938 -2.0728125 2.38671875 -3.140625 2.5859375 C-4.51047609 2.84864867 -5.88026452 3.11168671 -7.25 3.375 C-8.27287109 3.56449219 -8.27287109 3.56449219 -9.31640625 3.7578125 C-12.85767793 4.44543807 -15.82923048 5.29717933 -19 7 C-21.75 7.125 -21.75 7.125 -24 7 C-23 5 -23 5 -21.20581055 4.31396484 C-20.44051025 4.11496582 -19.67520996 3.9159668 -18.88671875 3.7109375 C-18.05076172 3.49179688 -17.21480469 3.27265625 -16.35351562 3.046875 C-15.47373047 2.82515625 -14.59394531 2.6034375 -13.6875 2.375 C-12.38522461 2.03082031 -12.38522461 2.03082031 -11.05664062 1.6796875 C-7.17766478 0.67942972 -4.04628633 0 0 0 Z " fill="#303030" transform="translate(419,223)"/>
<path d="M0 0 C2.31 0 4.62 0 7 0 C7.66 1.32 8.32 2.64 9 4 C8.01 4.495 8.01 4.495 7 5 C4.5249829 3.88568235 2.32116581 2.41849022 0 1 C0 0.67 0 0.34 0 0 Z " fill="#303030" transform="translate(571,215)"/>
<path d="M0 0 C3.26954202 0.56371414 4.82575883 1.49962266 7 4 C6.01 4.66 5.02 5.32 4 6 C2.62437146 4.71034824 1.29233607 3.37310707 0 2 C0 1.34 0 0.68 0 0 Z " fill="#303030" transform="translate(364,193)"/>
<path d="M0 0 C1.32 0.66 2.64 1.32 4 2 C4 2.66 4 3.32 4 4 C4.66 4.33 5.32 4.66 6 5 C5.01 5.495 5.01 5.495 4 6 C1.9375 5.25 1.9375 5.25 0 4 C-0.33 3.01 -0.66 2.02 -1 1 C-0.67 0.67 -0.34 0.34 0 0 Z " fill="#303030" transform="translate(685,257)"/>
<path d="M0 0 C0.66 0 1.32 0 2 0 C1.67 2.31 1.34 4.62 1 7 C0.34 7 -0.32 7 -1 7 C-1.625 5.1875 -1.625 5.1875 -2 3 C-1.34 2.01 -0.68 1.02 0 0 Z " fill="#303030" transform="translate(312,158)"/>
<path d="M0 0 C0.66 0 1.32 0 2 0 C1.67 1.32 1.34 2.64 1 4 C0.34 4 -0.32 4 -1 4 C-0.67 2.68 -0.34 1.36 0 0 Z " fill="#303030" transform="translate(605,197)"/>
<path d="M0 0 C3 1 3 1 3 1 Z " fill="#303030" transform="translate(633,240)"/>
<path d="" fill="#303030" transform="translate(0,0)"/>
<path d="" fill="#303030" transform="translate(0,0)"/>
</svg>
