<svg xmlns="http://www.w3.org/2000/svg" width="60" height="60" viewBox="0 0 1000 750"><path fill="#303030" d="M692.375 339.688 695 340c.723 2.262.723 2.262 1 5-4.624 6.562-12.845 10.419-19.766 14.14-3.025 1.74-5.538 3.66-8.234 5.86-12.411 7.824-26.095 12.316-40.207 15.908l-2.629.697-2.36.599L621 383l-1 3 3 1c1.098 1.96 1.098 1.96 2.063 4.375 1.152 2.842 2.217 5.046 3.937 7.625q.692 2.905 1.371 5.813c2.17 7.546 6.793 14.497 11.942 20.312l2.238 2.57c2.643 2.487 5.177 3.78 8.449 5.305l2 2c-.536 3.536-.536 3.536-2 5-6.655-.444-10.674-1.47-15.352-6.559l-2.273-2.878-2.29-2.872L631 425l-1.645-2.031c-1.554-2.259-2.461-4.465-3.418-7.031-1.124-3.005-2.14-5.243-3.937-7.938l-.812-3.062c-1.325-4.98-3.813-9.393-6.188-13.938a932 932 0 0 1-2-4q-3.595.426-7.187.875l-2.042.238c-2.884.366-5.49.771-8.188 1.88-2.64 1.029-4.88 1.44-7.688 1.753l-2.953.344-3.13.348c-7.402.861-14.733 1.837-22.062 3.187-9.529 1.724-19.086 2.082-28.75 2.375-.064 4.002-.05 7.998 0 12l.012 3.117c.306 8.135 2.728 14.654 8.597 20.48C541 435 541 435 542.375 437.876c3.269 6.286 8.948 10.001 14.516 14.16 2.194 2.044 2.985 2.983 3.109 5.965-2 2-2 2-4.562 2.063-9.795-3.028-17.063-12.12-22.594-20.333a139 139 0 0 0-3.813-5.367C523.97 427.258 522.94 421.631 523 413l-.04-3.715A437 437 0 0 1 523 400c-3.148-1.05-5.54-1.193-8.848-1.297l-3.64-.121-3.93-.117-4.023-.13q-5.289-.17-10.579-.33-5.4-.168-10.798-.343-10.59-.339-21.182-.662l.095 3.39c.11 4.204.178 8.408.235 12.613q.044 2.715.123 5.43c.397 14.093-1.252 23.405-10.453 34.63-4.009 4.206-7.339 6.681-13.25 7.25C434 460 434 460 432 458c.082-1.953.082-1.953 1-4 2.074-1.422 2.074-1.422 4.688-2.75 7.391-4.192 11.7-10.155 14.312-18.25.433-3 .487-5.967.512-8.996l.054-2.526c.054-2.638.088-5.277.122-7.916q.05-2.697.103-5.396.125-6.583.209-13.166l-3.219.07c-7.309.113-13.742.079-20.781-2.07a320 320 0 0 0-5.793-1.148c-22.002-4.22-22.002-4.22-32.207-7.852l.227 3.012c-.27 4.752-1.63 7.677-3.852 11.8l-1.112 2.126A492 492 0 0 1 383 407c-.512.96-1.024 1.92-1.55 2.91-7.64 13.579-18.815 22.836-33.45 28.09-2.687.75-2.687.75-5 1l-2-2c.15-2.939.505-4.485 2.563-6.625C346 429 346 429 349.5 427.875c9.347-3.343 17.36-10.495 22.5-18.875l1.77-2.816c4.65-7.666 8.632-15.304 10.23-24.184-7.196-2.705-14.29-5.144-21.75-7-9.713-2.519-17.363-6.935-25.723-12.375a109 109 0 0 0-6.152-3.687c-10.418-5.981-10.418-5.981-13.375-8.938-.04-2-.043-4 0-6 2.188-.75 2.188-.75 5-1a216 216 0 0 1 5 4 241 241 0 0 0 6.688 3.813c4.388 2.44 8.56 4.974 12.625 7.937 6.751 4.807 12.696 7.155 20.875 8.625 6.681 1.216 12.282 3.387 18.48 6.21 4.035 1.713 8.022 2.746 12.289 3.704 3.293.77 6.495 1.73 9.73 2.711 6.677 1.94 13.358 3.176 20.208 4.29 2.795.454 5.513 1.048 8.261 1.73 6.11 1.382 12.294 1.667 18.531 2.043l3.988.249a986 986 0 0 0 38.43 1.6q3.938.09 7.876.207c17.442.516 34.386-.28 51.707-2.494l2.634-.336q3.72-.486 7.44-1l2.214-.3c4.476-.647 8.694-1.702 13.024-2.989 2.755-.329 5.485-.495 8.254-.656 3.108-.39 5.78-1.351 8.746-2.344 3.19-.499 6.379-.875 9.586-1.242 2.89-.642 4.64-1.293 7.187-2.645 4.64-2.455 9.42-3.72 14.477-5.05 13.344-3.685 24.909-8.903 36.75-16.063l2.084-1.258a998 998 0 0 0 6.416-3.93l1.995-1.223c3.12-1.95 5.992-3.944 8.763-6.37C689 340 689 340 692.375 339.688"/></svg>