<svg xmlns="http://www.w3.org/2000/svg" viewBox="0 0 100 100" width="80" height="80">
  <path d="M50,10 L55,18 L65,14 L62,24 L72,26 L66,34 L76,40 L68,48
           L78,54 L68,60 L72,68 L62,66 L65,76 L55,72 L50,80 L45,72
           L35,76 L38,66 L28,68 L34,60 L24,54 L34,48 L26,40 L36,34
           L30,26 L40,24 L37,14 L47,18 Z"
        fill="none" stroke="#1a1a2e" stroke-width="4" stroke-linejoin="round"/>
  <circle cx="50" cy="45" r="14" fill="none" stroke="#1a1a2e" stroke-width="4"/>
  <circle cx="50" cy="45" r="4" fill="#1a1a2e"/>
</svg>
