<svg xmlns="http://www.w3.org/2000/svg" viewBox="0 0 100 100" width="80" height="80">
  <!-- Wooden stands -->
  <rect x="25" y="8" width="50" height="10" rx="2" fill="#8b5a2b" stroke="#1a1a2e" stroke-width="4.5"/>
  <rect x="25" y="82" width="50" height="10" rx="2" fill="#8b5a2b" stroke="#1a1a2e" stroke-width="4.5"/>
  <!-- Glass body -->
  <path d="M30,18 C30,40 45,46 45,50 C45,54 30,60 30,82" fill="none" stroke="#1a1a2e" stroke-width="4.5" stroke-linejoin="round"/>
  <path d="M70,18 C70,40 55,46 55,50 C55,54 70,60 70,82" fill="none" stroke="#1a1a2e" stroke-width="4.5" stroke-linejoin="round"/>
  <!-- Sand upper chamber -->
  <path d="M34,22 L66,22 C64,36 53,42 50,44 C47,42 36,36 34,22 Z" fill="#e63946" stroke="#1a1a2e" stroke-width="2.5" stroke-linejoin="round"/>
  <!-- Falling stream -->
  <line x1="50" y1="44" x2="50" y2="76" stroke="#e63946" stroke-width="4.5" stroke-linecap="round"/>
  <!-- Sand lower chamber pile -->
  <path d="M32,78 C35,68 65,68 68,78 C68,80 32,80 32,78 Z" fill="#e63946" stroke="#1a1a2e" stroke-width="2.5" stroke-linejoin="round"/>
  <rect x="30" y="78" width="40" height="4" fill="#e63946"/>
</svg>
