<?xml version="1.0" encoding="UTF-8"?>
<svg version="1.1" xmlns="http://www.w3.org/2000/svg" width="980" height="980">
<path d="M0 0 C0.87785156 0.67417969 1.75570313 1.34835937 2.66015625 2.04296875 C37.517359 29.57765121 58.7321321 70.13804448 65.3125 113.75 C68.98623738 148.54453194 62.61339086 181.46443721 45.75 212.08203125 C44.69951817 214.16523348 44.69951817 214.16523348 46 217 C47.42037275 218.3783019 47.42037275 218.3783019 49.21875 219.64453125 C49.89518555 220.14944092 50.57162109 220.65435059 51.26855469 221.17456055 C52.37312012 221.98534058 52.37312012 221.98534058 53.5 222.8125 C59.71227196 227.45984346 65.7897225 232.22094263 71.75 237.1875 C77.63408673 242.08077253 83.59889029 246.80926865 89.69140625 251.44140625 C93.52618117 254.38073966 97.26047426 257.4410325 101 260.5 C105.80171528 264.42618884 110.62991193 268.30183077 115.5625 272.0625 C120.88507526 276.12342779 126.12475401 280.27635829 131.34399414 284.46899414 C135.54207747 287.839423 139.76114401 291.18102008 144 294.5 C148.88077667 298.32159711 153.7295873 302.1805778 158.5625 306.0625 C164.15000935 310.54594208 169.79241242 314.94531518 175.48046875 319.30078125 C205.42757687 342.23732616 205.42757687 342.23732616 218 354 C218.71929688 354.5878125 219.43859375 355.175625 220.1796875 355.78125 C224.04482322 359.32041042 225.38338239 362.20761893 225.67504883 367.50415039 C225.78164909 385.12663751 219.3071359 402.2886779 207.11230469 415.01318359 C198.3343868 423.81204402 185.61805684 432.77754263 172.8125 433.5 C167.2335239 433.44119656 164.6855271 431.95511745 160.8203125 428.05078125 C159.91925781 427.03564453 159.91925781 427.03564453 159 426 C158.16082031 425.06220703 158.16082031 425.06220703 157.3046875 424.10546875 C156.16355537 422.80245509 155.03367425 421.4895196 153.9140625 420.16796875 C151.70774516 417.66897667 149.37316307 415.34089953 147 413 C143.39280873 409.43640017 140.00522111 405.78075144 136.7109375 401.9296875 C134.25426881 399.15892418 131.60640023 396.597071 128.96875 394 C126.44574541 391.43694772 124.12437183 388.72654176 121.78125 386 C119.36902191 383.29153337 116.79591903 380.76847355 114.1875 378.25 C112.28726116 376.29546862 110.49747754 374.2994914 108.7109375 372.2421875 C105.11667262 368.10409138 101.39154067 364.10600388 97.625 360.125 C92.61310018 354.80719507 87.66405078 349.44952308 82.80859375 343.98828125 C81.2356975 342.25911453 79.6219198 340.61909604 77.9375 339 C76 337 76 337 76 335 C75.34 335 74.68 335 74 335 C72.53710938 333.53125 72.53710938 333.53125 70.84375 331.5 C67.18943831 327.2039187 63.37957899 323.09245027 59.5 319 C58.0897155 317.50663152 56.67956245 316.0131389 55.26953125 314.51953125 C54.56006348 313.76881348 53.8505957 313.0180957 53.11962891 312.24462891 C29.25828177 286.9761164 29.25828177 286.9761164 19.83203125 276.08203125 C16.62789025 272.44065139 13.3267953 268.88616167 10.0390625 265.3203125 C8 263 8 263 7 261 C3.21467592 262.31922853 0.68689983 263.92537227 -2.3125 266.5625 C-9.00068838 272.0337547 -16.35847001 276.03039677 -24 280 C-24.68513672 280.35626465 -25.37027344 280.7125293 -26.07617188 281.07958984 C-64.83726585 300.92769024 -108.40531987 302.97179909 -149.63427734 289.78076172 C-173.15258335 282.01899262 -195.23173535 269.32681708 -213 252 C-214.10935591 250.95310477 -215.21873241 249.90623136 -216.328125 248.859375 C-224.61900289 240.92291459 -231.64931096 232.55591915 -238 223 C-238.60086426 222.101604 -238.60086426 222.101604 -239.21386719 221.18505859 C-261.9589672 186.6548841 -268.61234775 142.77906492 -260.8203125 102.50390625 C-259.51405265 96.25405283 -258.12702932 90.00863839 -256.3984375 83.86035156 C-255.45332528 80.43764763 -255.01320424 77.75191264 -255.203125 74.18359375 C-255.34200904 68.48240403 -252.41356664 63.94169391 -249.75 59.0625 C-249.20786865 58.05123047 -248.6657373 57.03996094 -248.10717773 55.99804688 C-226.69082445 16.84874258 -192.26971815 -13.63273663 -149.15625 -26.6015625 C-98.59513543 -40.80260725 -41.81006192 -32.77348841 0 0 Z " fill="#0F2232" transform="translate(519,307)"/>
<path d="M0 0 C1.49080078 0.30744141 1.49080078 0.30744141 3.01171875 0.62109375 C19.49307233 4.49481335 35.25026043 14.18271225 48 25 C48.63679687 25.51433594 49.27359375 26.02867187 49.9296875 26.55859375 C66.79309519 40.38658806 79.66560367 62.32005905 86 83 C86.34546875 84.04414063 86.6909375 85.08828125 87.046875 86.1640625 C97.66055852 119.00495281 94.43239819 155.20782668 79 186 C76.54333661 190.16764517 73.86333532 194.10238006 71 198 C70.38382813 198.84046875 69.76765625 199.6809375 69.1328125 200.546875 C47.33692603 228.94483497 14.9330319 245.3031442 -20.19116211 250.3125 C-47.93037018 253.73068825 -76.77250458 250.03124684 -100 234 C-101.53914063 232.97519531 -101.53914063 232.97519531 -103.109375 231.9296875 C-110.25763673 227.13913519 -116.7699127 221.95294818 -123 216 C-123.60070312 215.46246094 -124.20140625 214.92492187 -124.8203125 214.37109375 C-149.51493628 191.45678005 -160.72550511 154.88855093 -162.1640625 122.28125 C-162.38234634 112.20050517 -161.14501694 102.83643483 -159 93 C-158.74476563 91.76636719 -158.48953125 90.53273438 -158.2265625 89.26171875 C-151.44453855 60.29812107 -131.63652489 34.00817479 -106.53491211 18.25976562 C-74.3887986 -1.24529907 -36.94895015 -8.31835003 0 0 Z " fill="#FEFEFE" transform="translate(453,314)"/>
<path d="M0 0 C29.15388363 25.17150037 46.92932722 57.69173161 52.31640625 95.9140625 C52.4304423 98.54397565 52.50363553 101.14733648 52.51953125 103.77734375 C52.52523132 104.52759323 52.5309314 105.27784271 52.5368042 106.05082703 C52.54621729 107.63844412 52.55277344 109.22608042 52.55664062 110.8137207 C52.56622398 113.18152694 52.59722938 115.54841715 52.62890625 117.91601562 C52.86907592 152.40456004 39.06541516 183.89303739 14.96875 208.3828125 C-5.26332076 228.26372582 -30.9617286 241.26361611 -58.68359375 246.9140625 C-59.35471191 247.06214355 -60.02583008 247.21022461 -60.71728516 247.36279297 C-94.26754208 254.68098707 -131.43454527 249.10147062 -160.5390625 230.53125 C-175.97337933 220.13864173 -189.51899529 206.45723772 -199.68359375 190.9140625 C-200.63878906 189.50253906 -200.63878906 189.50253906 -201.61328125 188.0625 C-209.66875982 175.68151153 -214.95025478 162.18345002 -219.05859375 148.0390625 C-219.29723145 147.22050781 -219.53586914 146.40195312 -219.78173828 145.55859375 C-223.23458829 133.0354588 -224.09604879 120.70030097 -224.05859375 107.7890625 C-224.05738525 107.01649109 -224.05617676 106.24391968 -224.05493164 105.44793701 C-224.00440999 93.5337612 -223.4272102 82.31723309 -219.68359375 70.9140625 C-219.4098291 70.0674707 -219.13606445 69.22087891 -218.85400391 68.34863281 C-212.98308455 50.70087197 -204.36181844 36.27982566 -192.68359375 21.9140625 C-192.26094238 21.39062256 -191.83829102 20.86718262 -191.40283203 20.32788086 C-187.85048799 15.98126981 -183.96828432 12.50672401 -179.68359375 8.9140625 C-178.89210938 8.223125 -178.100625 7.5321875 -177.28515625 6.8203125 C-166.62552039 -2.27078835 -154.70708099 -9.8689818 -141.68359375 -15.0859375 C-140.68199219 -15.50359375 -139.68039062 -15.92125 -138.6484375 -16.3515625 C-93.9357129 -34.38877339 -38.19532588 -31.59968 0 0 Z M-150.68359375 1.9140625 C-151.59238281 2.40648437 -152.50117188 2.89890625 -153.4375 3.40625 C-179.08526944 17.97978192 -200.72362779 43.19867127 -208.68359375 71.9140625 C-217.82891834 108.12208229 -213.87308007 145.59328865 -194.80615234 178.08056641 C-189.04919404 187.48351483 -182.28547263 195.93642535 -174.68359375 203.9140625 C-174.17054688 204.501875 -173.6575 205.0896875 -173.12890625 205.6953125 C-167.55222695 211.82099132 -160.37618861 216.12916288 -153.5234375 220.68505859 C-152.00376501 221.70019014 -150.49797391 222.73606928 -148.99609375 223.77734375 C-140.18549825 229.86609457 -131.63790374 233.58718418 -121.12109375 235.6640625 C-120.14462891 235.87160156 -119.16816406 236.07914063 -118.16210938 236.29296875 C-83.09400453 243.56461591 -45.12436096 237.00566532 -14.68359375 217.9140625 C-7.1018887 212.87034666 -0.30642144 207.14796575 6.31640625 200.9140625 C6.9815625 200.32496094 7.64671875 199.73585938 8.33203125 199.12890625 C28.73109446 180.26391893 40.05200701 150.21718364 41.31640625 122.9140625 C41.69267854 112.06095851 40.98195798 101.6411474 39.31640625 90.9140625 C39.18363281 90.04652344 39.05085937 89.17898438 38.9140625 88.28515625 C36.34096878 73.80231444 31.40257997 60.73405889 24.31640625 47.9140625 C23.5584375 46.52767578 23.5584375 46.52767578 22.78515625 45.11328125 C15.6083281 32.61363889 6.49808004 21.0264622 -4.68359375 11.9140625 C-5.53566406 11.2128125 -6.38773438 10.5115625 -7.265625 9.7890625 C-48.04927653 -22.34689274 -106.175215 -22.81837744 -150.68359375 1.9140625 Z " fill="#252222" transform="translate(504.68359375,326.0859375)"/>
<path d="M0 0 C24.71859259 21.28061932 41.00428479 50.66712392 47.6640625 82.43261719 C47.85025146 83.31304687 48.03644043 84.19347656 48.22827148 85.10058594 C49.83994986 93.58536671 50.02449517 101.95724828 49.9765625 110.55761719 C49.97233276 111.65310379 49.97233276 111.65310379 49.96801758 112.77072144 C49.74147828 151.84714749 34.73075672 186.42989896 7.6640625 214.43261719 C6.44589844 215.728125 6.44589844 215.728125 5.203125 217.04980469 C-20.44578544 243.69478932 -56.89733708 259.00094769 -93.68847656 259.71557617 C-110.90373707 259.86526333 -126.96003592 257.89125105 -143.3359375 252.43261719 C-144.2645459 252.12565918 -144.2645459 252.12565918 -145.21191406 251.8125 C-182.21919479 239.37760758 -213.55091728 213.07518347 -231.42285156 178.31884766 C-249.31851916 142.24358301 -251.02169654 99.47413559 -238.3359375 61.43261719 C-234.33332296 50.17554144 -229.54656096 40.00281459 -222.3359375 30.43261719 C-221.50835937 29.30919922 -221.50835937 29.30919922 -220.6640625 28.16308594 C-218.93445385 25.87753165 -217.1506179 23.65134752 -215.3359375 21.43261719 C-214.8925 20.88831055 -214.4490625 20.34400391 -213.9921875 19.78320312 C-212.51082357 17.97188114 -211.01901119 16.1697187 -209.5234375 14.37011719 C-209.04285889 13.78496338 -208.56228027 13.19980957 -208.06713867 12.59692383 C-206.86801643 11.17010668 -205.60665686 9.79605902 -204.3359375 8.43261719 C-203.6759375 8.43261719 -203.0159375 8.43261719 -202.3359375 8.43261719 C-202.0059375 7.44261719 -201.6759375 6.45261719 -201.3359375 5.43261719 C-148.7102143 -50.22088735 -56.09845208 -47.03688704 0 0 Z M-157.3359375 -15.56738281 C-158.25246094 -15.13941406 -159.16898437 -14.71144531 -160.11328125 -14.27050781 C-171.56310602 -8.78873843 -181.61557714 -1.6869368 -191.3359375 6.43261719 C-192.02300781 6.98433594 -192.71007812 7.53605469 -193.41796875 8.10449219 C-199.20179427 12.89582694 -203.75779713 18.50275875 -208.3359375 24.43261719 C-209.35880859 25.74939453 -209.35880859 25.74939453 -210.40234375 27.09277344 C-218.2498874 37.52033144 -224.10761007 48.11204147 -228.6484375 60.30761719 C-228.97392578 61.16782471 -229.29941406 62.02803223 -229.63476562 62.91430664 C-234.28050227 75.94723989 -235.84558012 88.9085004 -235.72705078 102.65942383 C-235.71096494 104.86635315 -235.72701626 107.07144557 -235.74609375 109.27832031 C-235.76744173 123.03642405 -233.69898596 136.34128271 -229.5859375 149.49511719 C-229.32844727 150.32817383 -229.07095703 151.16123047 -228.80566406 152.01953125 C-217.63893326 187.12837636 -193.64290303 217.24879742 -160.76953125 234.31542969 C-132.94231797 248.22345675 -100.55233539 251.09981279 -70.3359375 244.43261719 C-69.35052979 244.23176514 -69.35052979 244.23176514 -68.34521484 244.02685547 C-32.54970073 236.69353063 0.7590661 215.15546383 20.97119141 184.54785156 C35.14047768 162.17706217 41.31977743 137.90905275 41.1015625 111.62011719 C41.09852112 110.8364679 41.09547974 110.0528186 41.09234619 109.24542236 C41.02185548 96.9252127 40.17985322 85.30548287 36.6640625 73.43261719 C36.45507324 72.69027832 36.24608398 71.94793945 36.03076172 71.18310547 C31.2665772 54.53522472 24.06984751 38.32728139 13.6640625 24.43261719 C13.01308594 23.55992187 12.36210938 22.68722656 11.69140625 21.78808594 C-3.36585037 2.5654574 -20.89338624 -11.11495073 -43.3359375 -20.56738281 C-44.42648437 -21.04949219 -45.51703125 -21.53160156 -46.640625 -22.02832031 C-81.1640198 -35.95585122 -124.37945879 -31.83319551 -157.3359375 -15.56738281 Z " fill="#9A895F" transform="translate(516.3359375,328.5673828125)"/>
<path d="M0 0 C3.68278844 1.63484165 6.63876064 3.90786676 9.8125 6.375 C10.37799561 6.81344238 10.94349121 7.25188477 11.52612305 7.70361328 C16.46337479 11.54572227 21.3315917 15.47279297 26.20263672 19.39819336 C30.70898414 23.01212079 35.29778358 26.4970659 39.9375 29.9375 C46.16783965 34.56054862 52.21569565 39.36912474 58.21508789 44.28710938 C63.23133556 48.39405072 68.32415118 52.37421147 73.48046875 56.3046875 C76.24800863 58.41600658 78.99532437 60.55215612 81.73828125 62.6953125 C82.55699707 63.33476807 83.37571289 63.97422363 84.21923828 64.63305664 C85.84230138 65.90180716 87.46440057 67.17179191 89.08544922 68.44311523 C89.82424316 69.02005127 90.56303711 69.5969873 91.32421875 70.19140625 C92.3155481 70.96786499 92.3155481 70.96786499 93.3269043 71.76000977 C94.98897013 73.06668376 94.98897013 73.06668376 97 74 C96.37292281 84.86933789 91.81508792 95.35511363 84 103 C70.73388185 113.45045226 70.73388185 113.45045226 62.61328125 112.8125 C59.1739018 111.74315631 57.60477062 110.03214817 55.125 107.4375 C53.92230469 106.19806641 53.92230469 106.19806641 52.6953125 104.93359375 C50.71246208 102.77544786 48.79198888 100.59895826 46.88500977 98.3762207 C42.82968777 93.73578689 38.51515548 89.38867203 34.14453125 85.046875 C33.32047287 84.22423157 32.49641449 83.40158813 31.64738464 82.55401611 C29.03811627 79.95029829 26.42538054 77.35009241 23.8125 74.75 C22.0472937 72.98981631 20.28231757 71.22940175 18.51757812 69.46875 C14.6393536 65.60030358 10.75894562 61.73406322 6.87654114 57.86981201 C6.25728256 57.25277405 5.63802399 56.63573608 5 56 C4.26097946 55.30255676 3.52195892 54.60511353 2.76054382 53.88653564 C1 52 1 52 1 50 C-0.485 49.505 -0.485 49.505 -2 49 C-3.1764022 47.58831736 -4.34842951 46.17263356 -5.4921875 44.734375 C-7.14039551 42.83850879 -8.90345037 41.25705027 -10.8125 39.625 C-13.78742002 37.07506856 -16.68197642 34.47325818 -19.5 31.75 C-20.1703125 31.10546875 -20.840625 30.4609375 -21.53125 29.796875 C-23 28 -23 28 -23 25 C-21.6052221 23.80933594 -20.20220988 22.62711991 -18.76171875 21.4921875 C-15.45281719 18.68952587 -12.77722768 15.31649519 -10 12 C-9.36312256 11.24033936 -9.36312256 11.24033936 -8.71337891 10.46533203 C-5.79833427 6.98561986 -2.89570309 3.49581863 0 0 Z " fill="#FCDC41" transform="translate(554,535)"/>
<path d="M0 0 C13.97121831 5.18500005 28.91976637 6.18433195 43.6875 6.25 C45.1103833 6.25821777 45.1103833 6.25821777 46.56201172 6.26660156 C51.24503924 6.25869238 55.82943745 6.11100143 60.484375 5.58203125 C72.66311207 4.25468708 72.66311207 4.25468708 77.51953125 7.02734375 C79.98876772 9.26343343 82.08554502 11.54902784 84.1875 14.125 C84.8475 14.455 85.5075 14.785 86.1875 15.125 C86.1875 15.785 86.1875 16.445 86.1875 17.125 C56.48505135 20.01776022 26.97942708 16.58404113 -1.9375 9.5625 C-2.76088867 9.36487061 -3.58427734 9.16724121 -4.43261719 8.96362305 C-14.43933232 6.4136128 -14.43933232 6.4136128 -17.125 1.9375 C-17.351875 1.339375 -17.57875 0.74125 -17.8125 0.125 C-16.59023359 -0.41182668 -15.35921915 -0.92875532 -14.125 -1.4375 C-13.44050781 -1.72753906 -12.75601563 -2.01757812 -12.05078125 -2.31640625 C-7.7026341 -3.40154594 -4.01082176 -1.62959372 0 0 Z " fill="#88733C" transform="translate(641.8125,654.875)"/>
<path d="M0 0 C1.258125 0.391875 2.51625 0.78375 3.8125 1.1875 C5.87308914 1.79815212 7.93595231 2.40114213 10 3 C10.66 3.19287598 11.32 3.38575195 12 3.58447266 C40.19882242 11.72611636 68.80783393 13.03375219 98 11 C98 13.97 98 16.94 98 20 C96.52196796 20.31782317 95.04248288 20.62888865 93.5625 20.9375 C92.73878906 21.11152344 91.91507813 21.28554688 91.06640625 21.46484375 C72.87313654 24.6399749 54.60252849 23.80983727 36.5625 20.25 C35.27843262 19.99790771 33.99436523 19.74581543 32.67138672 19.48608398 C13.37265526 15.43509355 13.37265526 15.43509355 8.625 10.5625 C8.08875 9.716875 7.5525 8.87125 7 8 C6.13375 7.13375 5.2675 6.2675 4.375 5.375 C2 3 2 3 0 0 Z " fill="#88743E" transform="translate(635,667)"/>
<path d="M0 0 C0.89924194 0.21934204 0.89924194 0.21934204 1.81665039 0.44311523 C4.56445211 1.11131318 7.3134539 1.77444104 10.0625 2.4375 C11.00544922 2.66759766 11.94839844 2.89769531 12.91992188 3.13476562 C22.57108807 5.45508084 31.83887892 6.28288439 41.75 6.625 C43.67235474 6.69255493 43.67235474 6.69255493 45.63354492 6.76147461 C55.81222917 7.06844979 65.85395215 6.82128656 76 6 C75.35522931 7.62542193 74.70914857 9.25032424 74.0625 10.875 C73.52302734 12.23238281 73.52302734 12.23238281 72.97265625 13.6171875 C72 16 72 16 71 18 C55.3452743 21.91973039 38.46797696 20.66828309 22.85009766 17.38378906 C21.33830437 17.07017874 19.81647137 16.80530698 18.29296875 16.5546875 C10.55347856 14.79761405 4.9574425 7.82981817 0 2 C0 1.34 0 0.68 0 0 Z " fill="#88743E" transform="translate(655,687)"/>
<path d="M0 0 C2.45465354 0.5499181 4.79044802 1.26267936 7.17431641 2.06542969 C16.73528199 5.08549295 25.21495207 6.10431095 35.234375 5.67236328 C49.44315355 5.13260222 49.44315355 5.13260222 54.86181641 9.31542969 C56.79150391 11.21386719 56.79150391 11.21386719 57.98681641 12.94042969 C57.98681641 13.60042969 57.98681641 14.26042969 57.98681641 14.94042969 C34.13387086 19.66044718 11.37248736 15.15194233 -12.01318359 9.94042969 C-10.34651693 8.27376302 -8.67985026 6.60709635 -7.01318359 4.94042969 C-6.27455078 3.96847656 -5.53591797 2.99652344 -4.77490234 1.99511719 C-2.01318359 -0.05957031 -2.01318359 -0.05957031 0 0 Z " fill="#88743E" transform="translate(649.01318359375,640.0595703125)"/>
<path d="M0 0 C15.40967908 7.74375287 28.07450185 19.5599874 39.75 32.0625 C40.2759375 32.62291992 40.801875 33.18333984 41.34375 33.76074219 C45 37.75362273 45 37.75362273 45 40 C45.66 40 46.32 40 47 40 C49.32019297 43.19026533 51.34643078 46.41726669 53 50 C47.28374908 47.96755523 42.903736 44.89866821 38.06640625 41.265625 C35.86660401 39.64029341 33.66697711 38.0755478 31.40234375 36.546875 C30.50636475 35.94093506 30.50636475 35.94093506 29.59228516 35.32275391 C28.41955482 34.53353374 27.24350591 33.74921921 26.06396484 32.97021484 C24.67433631 32.02986153 23.33182671 31.02057309 22 30 C22 29.34 22 28.68 22 28 C21.41992188 27.73574219 20.83984375 27.47148437 20.2421875 27.19921875 C13.69866339 23.69945934 8.55188139 17.75378266 4 12 C3.49984375 11.39929688 2.9996875 10.79859375 2.484375 10.1796875 C1.0625 8.375 1.0625 8.375 -1 5 C-0.62890625 2.2890625 -0.62890625 2.2890625 0 0 Z " fill="#0C2030" transform="translate(216,243)"/>
<path d="M0 0 C11.22410318 1.23807234 20.17576282 11.63707198 28.3671875 18.83203125 C32.24154063 22.22890417 36.22002402 25.48622999 40.22265625 28.73046875 C43.53061518 31.43359693 46.80039708 34.17933574 50.0625 36.9375 C50.62340332 37.41074707 51.18430664 37.88399414 51.76220703 38.37158203 C53.91049495 40.19170524 56.00806721 42.00806721 58 44 C58 45.32 58 46.64 58 48 C55.9765625 48.8671875 55.9765625 48.8671875 53 49 C50.17563885 47.38676051 47.81684343 45.26077894 45.375 43.125 C44.66786865 42.52800293 43.9607373 41.93100586 43.23217773 41.31591797 C41.80694407 40.11222908 40.38653475 38.90280291 38.97119141 37.6875 C36.36740329 35.45844582 33.71982677 33.28995081 31.0625 31.125 C30.19496094 30.4134375 29.32742188 29.701875 28.43359375 28.96875 C26.18858022 27.15255928 23.91648671 25.3819446 21.625 23.625 C17.74435871 20.62153802 13.9521189 17.52181373 10.1875 14.375 C9.63594238 13.91947754 9.08438477 13.46395508 8.51611328 12.99462891 C5.2627414 10.25416258 2.36958591 7.54577261 0 4 C0 2.68 0 1.36 0 0 Z " fill="#252424" transform="translate(557,547)"/>
<path d="M0 0 C-2.46592738 5.44046531 -6.67148069 6.73357097 -12 9 C-20.00435755 11.76012329 -28.05040304 12.18073075 -36.4375 12.1875 C-37.23220703 12.19974609 -38.02691406 12.21199219 -38.84570312 12.22460938 C-46.2578944 12.2427026 -53.20814194 11.06729074 -60 8 C-56.31048573 3.18350682 -49.577737 3.29263476 -43.96386719 2.34082031 C-42.26476499 2.04594877 -40.57283858 1.7102755 -38.8828125 1.3671875 C-26.09340514 -0.94336701 -12.94133909 -0.17491933 0 0 Z " fill="#0C2030" transform="translate(703,368)"/>
<path d="M0 0 C0.66 0 1.32 0 2 0 C2.6637966 20.08599342 -0.46111225 40.08080975 -12 57 C-12.66 57.99 -13.32 58.98 -14 60 C-14.99 60 -15.98 60 -17 60 C-17.36185341 51.67737157 -15.41896145 43.92881807 -13 36 C-12.58427734 34.63488281 -12.58427734 34.63488281 -12.16015625 33.2421875 C-11.49091323 31.05438101 -10.81611477 28.86826868 -10.13671875 26.68359375 C-9.33180114 24.07521813 -8.54310801 21.46521709 -7.76953125 18.84765625 C-7.34643448 17.44008002 -6.92325861 16.03252757 -6.5 14.625 C-6.21612427 13.64478882 -6.21612427 13.64478882 -5.92651367 12.64477539 C-4.50474921 7.9649248 -2.52843779 4.14620942 0 0 Z " fill="#0C2030" transform="translate(349,653)"/>
<path d="M0 0 C-4.51752062 12.19291972 -13.23103129 22.03735279 -23.0546875 30.30078125 C-25.05097943 32.04453023 -26.85992798 33.89394496 -28.6875 35.8125 C-31.25198617 38.43580466 -33.38368285 40.01373169 -37 41 C-37 41.66 -37 42.32 -37 43 C-40.46153846 46 -40.46153846 46 -43 46 C-42.47731534 43.23723823 -41.89130413 40.6739124 -41 38 C-40.34 38 -39.68 38 -39 38 C-38.896875 37.2575 -38.79375 36.515 -38.6875 35.75 C-37.95066203 32.8026481 -37.05200858 31.21616926 -35 29 C-34.34 29 -33.68 29 -33 29 C-32.74863281 28.2575 -32.49726562 27.515 -32.23828125 26.75 C-30.90708619 23.79365514 -29.52635863 22.2181145 -27.1875 20 C-26.46691406 19.3090625 -25.74632812 18.618125 -25.00390625 17.90625 C-24.34261719 17.2771875 -23.68132813 16.648125 -23 16 C-22.21625 15.175 -21.4325 14.35 -20.625 13.5 C-6.45 0 -6.45 0 0 0 Z " fill="#0C2030" transform="translate(620,227)"/>
<path d="M0 0 C-4.52939304 16.32019397 -23.0017383 28.97924652 -36.5546875 37.65234375 C-38.75775642 38.86649515 -40.54262121 39.54852808 -43 40 C-43.495 38.515 -43.495 38.515 -44 37 C-43.34 37 -42.68 37 -42 37 C-42 36.01 -42 35.02 -42 34 C-41.34 34 -40.68 34 -40 34 C-39.62875 32.9171875 -39.62875 32.9171875 -39.25 31.8125 C-36.9597009 26.65932702 -33.11143061 22.79516671 -29 19 C-28.01 18.67 -27.02 18.34 -26 18 C-26 17.34 -26 16.68 -26 16 C-8.89980354 0 -8.89980354 0 0 0 Z " fill="#0D2030" transform="translate(243,580)"/>
<path d="M0 0 C0.66 0 1.32 0 2 0 C4.5922811 10.09552755 5.49168089 19.45181705 5.375 29.875 C5.37051346 30.92134613 5.37051346 30.92134613 5.36593628 31.98883057 C5.24761154 55.50477692 5.24761154 55.50477692 1 64 C0.34 64 -0.32 64 -1 64 C-6.19936999 44.90469473 -6.72636096 20.04830951 -1 1 C-0.67 0.67 -0.34 0.34 0 0 Z " fill="#0C2030" transform="translate(418,159)"/>
<path d="M0 0 C-2.69721153 3.70347891 -6.50263576 4.00194071 -10.75 4.6875 C-11.50933838 4.8127002 -12.26867676 4.93790039 -13.05102539 5.06689453 C-25.94160829 7.04097067 -45.2674381 8.12002437 -57 1 C-57 0.34 -57 -0.32 -57 -1 C-43.09991986 -8.6756823 -13.67828075 -7.64559337 0 0 Z " fill="#0C2030" transform="translate(194,437)"/>
<path d="M0 0 C1.44800238 -0.06382333 2.89832262 -0.08502093 4.34765625 -0.0703125 C5.10530273 -0.06733154 5.86294922 -0.06435059 6.64355469 -0.0612793 C17.23086203 0.45241775 23.29337766 7.59830918 30.41015625 14.8046875 C17.17502799 15.29758193 4.26148161 14.12861507 -8.58984375 10.8046875 C-7.9648298 9.12195764 -7.28806992 7.45838107 -6.58984375 5.8046875 C-6.2340625 4.93972656 -5.87828125 4.07476563 -5.51171875 3.18359375 C-3.58984375 0.8046875 -3.58984375 0.8046875 0 0 Z " fill="#89743E" transform="translate(659.58984375,626.1953125)"/>
<path d="M0 0 C1.11890625 0.28875 2.2378125 0.5775 3.390625 0.875 C18.28299852 4.41959972 32.75473901 4.42953705 48 4 C46.0000401 8.1962629 44.15574929 11.66434391 40 14 C35.59419546 14.50508533 31.38989198 14.01588531 27 13.5 C25.83726562 13.39429688 24.67453125 13.28859375 23.4765625 13.1796875 C9.16284832 11.77124423 9.16284832 11.77124423 3.625 6 C2.93664062 5.29875 2.24828125 4.5975 1.5390625 3.875 C0 2 0 2 0 0 Z " fill="#88733C" transform="translate(673,706)"/>
<path d="M0 0 C3.875 1.75 3.875 1.75 5 4 C5.99 3.01 6.98 2.02 8 1 C8.33 2.32 8.66 3.64 9 5 C10.65 5 12.3 5 14 5 C14.33 6.65 14.66 8.3 15 10 C15.66 9.34 16.32 8.68 17 8 C17 8.99 17 9.98 17 11 C18.32 11.33 19.64 11.66 21 12 C20.38125 12.061875 19.7625 12.12375 19.125 12.1875 C16.72238859 12.828919 16.72238859 12.828919 15.75 15.5625 C15.5025 16.366875 15.255 17.17125 15 18 C13 16.625 13 16.625 11 15 C11 14.34 11 13.68 11 13 C10.43796875 12.75507813 9.8759375 12.51015625 9.296875 12.2578125 C6.58134146 10.77073461 4.53608562 8.95937218 2.25 6.875 C1.45078125 6.15054687 0.6515625 5.42609375 -0.171875 4.6796875 C-1.07679688 3.84824219 -1.07679688 3.84824219 -2 3 C-1.34 2.67 -0.68 2.34 0 2 C0 1.34 0 0.68 0 0 Z " fill="#262425" transform="translate(497,332)"/>
<path d="M0 0 C0.66 0.33 1.32 0.66 2 1 C2.20086443 4.71599191 2.1519437 5.77208445 0 9 C0.66 9.33 1.32 9.66 2 10 C2 12.31 2 14.62 2 17 C1.34 16.67 0.68 16.34 0 16 C0.226875 16.763125 0.45375 17.52625 0.6875 18.3125 C0.790625 19.199375 0.89375 20.08625 1 21 C-0.4375 22.8125 -0.4375 22.8125 -2 24 C-2.99 23.67 -3.98 23.34 -5 23 C-4.67 21.02 -4.34 19.04 -4 17 C-5.175625 17.2475 -5.175625 17.2475 -6.375 17.5 C-9 18 -9 18 -11 18 C-9.16753428 14.01287679 -6.76144225 10.41915496 -4.375 6.75 C-3.95476563 6.1003125 -3.53453125 5.450625 -3.1015625 4.78125 C-2.06954327 3.18631119 -1.03501972 1.59299331 0 0 Z " fill="#252324" transform="translate(530,501)"/>
<path d="M0 0 C0 0.66 0 1.32 0 2 C-0.66 2 -1.32 2 -2 2 C-2.33 2.99 -2.66 3.98 -3 5 C-3.99 5.495 -3.99 5.495 -5 6 C-4.67 6.66 -4.34 7.32 -4 8 C-4.99 8.495 -4.99 8.495 -6 9 C-5.67 10.65 -5.34 12.3 -5 14 C-8.465 15.485 -8.465 15.485 -12 17 C-12.99 16.01 -13.98 15.02 -15 14 C-13.625 12.5 -13.625 12.5 -12 11 C-11.34 11 -10.68 11 -10 11 C-10 10.34 -10 9.68 -10 9 C-11.32 8.67 -12.64 8.34 -14 8 C-14 8.66 -14 9.32 -14 10 C-16.875 10.125 -16.875 10.125 -20 10 C-20.66 9.34 -21.32 8.68 -22 8 C-18.71057634 6.66108439 -15.41810891 5.32982297 -12.125 4 C-11.18785156 3.6184375 -10.25070312 3.236875 -9.28515625 2.84375 C-8.38925781 2.4828125 -7.49335938 2.121875 -6.5703125 1.75 C-5.74289551 1.41484375 -4.91547852 1.0796875 -4.06298828 0.734375 C-2 0 -2 0 0 0 Z " fill="#2B292A" transform="translate(479,550)"/>
<path d="M0 0 C1.258125 -0.04125 2.51625 -0.0825 3.8125 -0.125 C4.52019531 -0.14820313 5.22789062 -0.17140625 5.95703125 -0.1953125 C8 0 8 0 11 2 C10.01 2 9.02 2 8 2 C8.33 2.99 8.66 3.98 9 5 C8.5625 7.6875 8.5625 7.6875 8 10 C-1.41002278 10.3690205 -1.41002278 10.3690205 -6 8 C-5.67 7.01 -5.34 6.02 -5 5 C-2.9375 4.3125 -2.9375 4.3125 -1 4 C-0.67 2.68 -0.34 1.36 0 0 Z " fill="#201E1E" transform="translate(389,564)"/>
<path d="M0 0 C1.65 0 3.3 0 5 0 C6.38111722 2.2747813 7.05694702 3.50171361 6.75 6.1875 C6 8 6 8 4 9 C4.66 10.32 5.32 11.64 6 13 C5.01 12.67 4.02 12.34 3 12 C2.67 12.66 2.34 13.32 2 14 C1.01 14.495 1.01 14.495 0 15 C-0.33 13.68 -0.66 12.36 -1 11 C-1.99 12.485 -1.99 12.485 -3 14 C-3.66 14 -4.32 14 -5 14 C-4.46515599 8.65155992 -2.53309233 4.64203897 0 0 Z " fill="#222020" transform="translate(294,375)"/>
<path d="M0 0 C1.03590776 3.62567717 1.58792533 6.67716802 0 10.25 C-0.33 10.8275 -0.66 11.405 -1 12 C-3.92879371 11.37240135 -6.36095629 10.41377341 -9 9 C-9 8.34 -9 7.68 -9 7 C-9.66 7 -10.32 7 -11 7 C-9.90537324 3.8255824 -9.01822665 3.01085843 -6.0625 1.25 C-3 0 -3 0 0 0 Z " fill="#211F20" transform="translate(526,517)"/>
<path d="M0 0 C13.45481848 1.06739687 13.45481848 1.06739687 19 3 C19.33 3.66 19.66 4.32 20 5 C18.4252706 5.72726052 16.83975721 6.43120422 15.25 7.125 C14.36828125 7.51945313 13.4865625 7.91390625 12.578125 8.3203125 C10 9 10 9 7.875 8.34375 C5.8165674 6.86853997 4.34846155 5.33674827 2.75 3.375 C2.22921875 2.74335937 1.7084375 2.11171875 1.171875 1.4609375 C0.78515625 0.97882812 0.3984375 0.49671875 0 0 Z " fill="#897542" transform="translate(686,720)"/>
<path d="M0 0 C0.99 0.33 1.98 0.66 3 1 C2.67 2.32 2.34 3.64 2 5 C3.32 5.33 4.64 5.66 6 6 C4.79307362 8.79101724 3.78299757 10.60464028 1.01953125 12 C-0.964646 12.73045817 -2.98129542 13.37122316 -5 14 C-5.66 11.69 -6.32 9.38 -7 7 C-5.37660195 5.29115995 -3.70680947 3.62553283 -2 2 C-1.34 2 -0.68 2 0 2 C0 1.34 0 0.68 0 0 Z " fill="#211E1F" transform="translate(479,550)"/>
<path d="M0 0 C1.32 0.66 2.64 1.32 4 2 C3.34 3.32 2.68 4.64 2 6 C1.34 6 0.68 6 0 6 C0.33 7.65 0.66 9.3 1 11 C1.99 11 2.98 11 4 11 C3.67 11.66 3.34 12.32 3 13 C2.01 13 1.02 13 0 13 C-0.33 13.66 -0.66 14.32 -1 15 C-1.99 15.495 -1.99 15.495 -3 16 C-3 14.35 -3 12.7 -3 11 C-3.598125 11.598125 -4.19625 12.19625 -4.8125 12.8125 C-6.54166667 14.54166667 -8.27083333 16.27083333 -10 18 C-8.64737628 13.25869791 -6.66645646 9.67711421 -3.875 5.625 C-3.15054687 4.56539063 -2.42609375 3.50578125 -1.6796875 2.4140625 C-0.84824219 1.21910156 -0.84824219 1.21910156 0 0 Z " fill="#201D1D" transform="translate(305,357)"/>
<path d="M0 0 C1.32 0 2.64 0 4 0 C4 0.99 4 1.98 4 3 C3.34 3 2.68 3 2 3 C2 3.66 2 4.32 2 5 C2.66 5.33 3.32 5.66 4 6 C2.90353942 7.79639296 1.79754852 9.58697154 0.6875 11.375 C-0.23482422 12.87160156 -0.23482422 12.87160156 -1.17578125 14.3984375 C-3 17 -3 17 -6 19 C-7 18 -7 18 -7.0625 15.4375 C-7.041875 14.633125 -7.02125 13.82875 -7 13 C-6.01 13.495 -6.01 13.495 -5 14 C-4.91773332 10.95613276 -5.02391783 8.92824652 -6 6 C-4.35 6.33 -2.7 6.66 -1 7 C-1 6.01 -1 5.02 -1 4 C-1 1 -1 1 0 0 Z " fill="#1F1D1D" transform="translate(536,502)"/>
<path d="M0 0 C0.33 0.66 0.66 1.32 1 2 C1.66 2 2.32 2 3 2 C3.33 1.34 3.66 0.68 4 0 C4.33 0.99 4.66 1.98 5 3 C3.08539961 4.77311263 1.16842507 6.54353362 -0.75 8.3125 C-1.55824219 9.06176758 -1.55824219 9.06176758 -2.3828125 9.82617188 C-5.15603952 12.37956993 -7.92190229 14.81096449 -11 17 C-11.66 16.01 -12.32 15.02 -13 14 C-12.01 13.67 -11.02 13.34 -10 13 C-8.79117904 10.99983534 -8.79117904 10.99983534 -8 9 C-8.66 8.67 -9.32 8.34 -10 8 C-7.69 7.34 -5.38 6.68 -3 6 C-2.87625 5.38125 -2.7525 4.7625 -2.625 4.125 C-2 2 -2 2 0 0 Z " fill="#2A2829" transform="translate(332,337)"/>
<path d="M0 0 C1.6268029 2.44020435 2.77669952 4.57281664 3.9453125 7.23046875 C4.29980469 8.03291016 4.65429688 8.83535156 5.01953125 9.66210938 C5.38433594 10.49548828 5.74914062 11.32886719 6.125 12.1875 C6.49753906 13.03248047 6.87007813 13.87746094 7.25390625 14.74804688 C8.17179054 16.83093816 9.08705314 18.91494102 10 21 C9.01 21.33 8.02 21.66 7 22 C7 21.34 7 20.68 7 20 C5.68 19.67 4.36 19.34 3 19 C2.29925156 15.846632 2 13.27275026 2 10 C1.34 10 0.68 10 0 10 C-0.33 8.68 -0.66 7.36 -1 6 C-0.34 6 0.32 6 1 6 C0.649375 5.38125 0.29875 4.7625 -0.0625 4.125 C-0.371875 3.42375 -0.68125 2.7225 -1 2 C-0.67 1.34 -0.34 0.68 0 0 Z " fill="#2C282A" transform="translate(299,481)"/>
<path d="M0 0 C1.32 0.33 2.64 0.66 4 1 C5.25 8.625 5.25 8.625 3 12 C2.01 12 1.02 12 0 12 C-0.33 12.66 -0.66 13.32 -1 14 C-2.61328125 12.328125 -2.61328125 12.328125 -4 10 C-3.41796875 7.421875 -3.41796875 7.421875 -2.1875 4.75 C-1.78917969 3.85796875 -1.39085937 2.9659375 -0.98046875 2.046875 C-0.49513672 1.03367187 -0.49513672 1.03367187 0 0 Z " fill="#2B2829" transform="translate(538,484)"/>
<path d="M0 0 C0.99 0.33 1.98 0.66 3 1 C2.01 2.485 2.01 2.485 1 4 C1.99 4.928125 1.99 4.928125 3 5.875 C5 8 5 8 5 10 C3.04196493 10.05389087 1.08351091 10.09274217 -0.875 10.125 C-1.96554687 10.14820313 -3.05609375 10.17140625 -4.1796875 10.1953125 C-7 10 -7 10 -9 8 C-8.030625 7.401875 -7.06125 6.80375 -6.0625 6.1875 C-2.76947958 4.28872491 -2.76947958 4.28872491 -2 1 C-1.34 0.67 -0.68 0.34 0 0 Z " fill="#1F1D1E" transform="translate(381,305)"/>
<path d="M0 0 C4.44936709 -0.36075949 4.44936709 -0.36075949 6.8125 1.1875 C8.38243085 3.58371024 8.29573841 5.19048514 8 8 C7 9 7 9 4.625 9.25 C2 9 2 9 0.125 7.875 C-1.55290631 5.07848948 -0.74875648 3.06309468 0 0 Z " fill="#282727" transform="translate(621,598)"/>
<path d="M0 0 C3.36241563 0.45438049 6.04009971 1.35561095 9 3 C8.01 3.495 8.01 3.495 7 4 C6.27840576 5.64363134 5.60648579 7.31050386 5 9 C5.66 9.33 6.32 9.66 7 10 C4.42786866 11.61949011 3.32330841 12.04408751 0.25 11.625 C-0.86375 11.315625 -0.86375 11.315625 -2 11 C-1 9 -1 9 1 8 C0.34 5.69 -0.32 3.38 -1 1 C-0.67 0.67 -0.34 0.34 0 0 Z " fill="#1F1D1E" transform="translate(465,306)"/>
<path d="M0 0 C4.87362847 0.45336079 7.39042389 1.7089159 11 5 C8 6 8 6 5 6 C6.65 7.65 8.3 9.3 10 11 C9.34 11.66 8.68 12.32 8 13 C6.65472507 11.59466816 5.3241269 10.17527548 4 8.75 C3.2575 7.96109375 2.515 7.1721875 1.75 6.359375 C0 4 0 4 0 0 Z " fill="#2D2B2C" transform="translate(557,547)"/>
<path d="M0 0 C0.66 0.33 1.32 0.66 2 1 C2.625 3.5625 2.625 3.5625 3 6 C2.01 6.33 1.02 6.66 0 7 C0.33 7.66 0.66 8.32 1 9 C-0.65 9.66 -2.3 10.32 -4 11 C-4 9.68 -4 8.36 -4 7 C-4.66 6.34 -5.32 5.68 -6 5 C-4.02 3.35 -2.04 1.7 0 0 Z " fill="#282627" transform="translate(502,534)"/>
<path d="M0 0 C2.4375 0.6875 2.4375 0.6875 5 2 C6.1807689 5.28928478 6.1157177 6.65284689 5 10 C3.35 10 1.7 10 0 10 C0 8.33333333 0 6.66666667 0 5 C-0.66 4.67 -1.32 4.34 -2 4 C-1.34 2.68 -0.68 1.36 0 0 Z " fill="#1F1C1D" transform="translate(351,317)"/>
<path d="M0 0 C1.32 0.66 2.64 1.32 4 2 C4 2.99 4 3.98 4 5 C1.23735711 5.59732819 -1.16032769 6 -4 6 C-5.6875 4.625 -5.6875 4.625 -7 3 C-7 2.34 -7 1.68 -7 1 C-4.69 1.33 -2.38 1.66 0 2 C0 1.34 0 0.68 0 0 Z " fill="#302E2F" transform="translate(583,565)"/>
<path d="M0 0 C2.49361571 1.20381448 4.68143083 2.45428722 7 4 C7 4.66 7 5.32 7 6 C2.545 6.495 2.545 6.495 -2 7 C-1.34 4.69 -0.68 2.38 0 0 Z " fill="#897540" transform="translate(659,617)"/>
<path d="M0 0 C1.875 0.6875 1.875 0.6875 4 2 C4.72159424 3.64363134 5.39351421 5.31050386 6 7 C6.66 7.33 7.32 7.66 8 8 C7.01 8.33 6.02 8.66 5 9 C3.17578125 7.78515625 3.17578125 7.78515625 1.3125 6.0625 C0.68988281 5.49660156 0.06726563 4.93070312 -0.57421875 4.34765625 C-1.04472656 3.90292969 -1.51523437 3.45820313 -2 3 C-1.34 2.67 -0.68 2.34 0 2 C0 1.34 0 0.68 0 0 Z " fill="#2A2829" transform="translate(497,332)"/>
<path d="M0 0 C0.66 0.33 1.32 0.66 2 1 C1.34 1.66 0.68 2.32 0 3 C0.99 3.33 1.98 3.66 3 4 C2.195625 4.268125 1.39125 4.53625 0.5625 4.8125 C-0.283125 5.204375 -1.12875 5.59625 -2 6 C-2.33 6.99 -2.66 7.98 -3 9 C-3.66 9 -4.32 9 -5 9 C-5.33 7.35 -5.66 5.7 -6 4 C-4.02 2.68 -2.04 1.36 0 0 Z " fill="#1E1C1C" transform="translate(346,320)"/>
<path d="M0 0 C0.66 0 1.32 0 2 0 C2.33 1.32 2.66 2.64 3 4 C4.98 4 6.96 4 9 4 C5.54785147 6.30143236 4.76520676 6.13833854 0.8125 5.625 C-0.53908203 5.45871094 -0.53908203 5.45871094 -1.91796875 5.2890625 C-2.94857422 5.14597656 -2.94857422 5.14597656 -4 5 C-3.34 4.01 -2.68 3.02 -2 2 C-1.34 2 -0.68 2 0 2 C0 1.34 0 0.68 0 0 Z " fill="#1C1A1B" transform="translate(440,567)"/>
<path d="M0 0 C0.99 0.33 1.98 0.66 3 1 C3.8125 2.9375 3.8125 2.9375 4 5 C3.34 5.66 2.68 6.32 2 7 C1.01 7 0.02 7 -1 7 C-2.6875 5 -2.6875 5 -4 3 C-2.68 2.67 -1.36 2.34 0 2 C0 1.34 0 0.68 0 0 Z " fill="#1E1C1D" transform="translate(349,546)"/>
<path d="M0 0 C1.12894876 0.93274109 2.25300876 1.87140122 3.375 2.8125 C4.00148438 3.33457031 4.62796875 3.85664063 5.2734375 4.39453125 C7 6 7 6 9 9 C8.34 9 7.68 9 7 9 C7 9.66 7 10.32 7 11 C6.34 11 5.68 11 5 11 C4.67 10.01 4.34 9.02 4 8 C3.34 7.34 2.68 6.68 2 6 C2 5.34 2 4.68 2 4 C1.36525925 2.65117592 0.70151152 1.3153341 0 0 Z " fill="#1B1919" transform="translate(514,336)"/>
<path d="M0 0 C0.66 0 1.32 0 2 0 C1.34 3.3 0.68 6.6 0 10 C-0.33 9.34 -0.66 8.68 -1 8 C-3.01669827 6.86649466 -3.01669827 6.86649466 -5 6 C-4.360625 5.38125 -3.72125 4.7625 -3.0625 4.125 C-0.96116416 2.17402388 -0.96116416 2.17402388 0 0 Z " fill="#2D2B2C" transform="translate(509,337)"/>
<path d="M0 0 C0.66 0.66 1.32 1.32 2 2 C1.67 2.99 1.34 3.98 1 5 C0.01 5 -0.98 5 -2 5 C-1.67 6.65 -1.34 8.3 -1 10 C-2.65 8.68 -4.3 7.36 -6 6 C-4.02 4.02 -2.04 2.04 0 0 Z " fill="#302F30" transform="translate(512,525)"/>
<path d="M0 0 C4.11320755 6.16981132 4.11320755 6.16981132 3.625 9.75 C3.41875 10.4925 3.2125 11.235 3 12 C2.67 11.34 2.34 10.68 2 10 C1.34 10 0.68 10 0 10 C-0.33 8.68 -0.66 7.36 -1 6 C-0.34 6 0.32 6 1 6 C0.649375 5.38125 0.29875 4.7625 -0.0625 4.125 C-0.371875 3.42375 -0.68125 2.7225 -1 2 C-0.67 1.34 -0.34 0.68 0 0 Z " fill="#323031" transform="translate(299,481)"/>
<path d="M0 0 C-3.55818936 2.26273207 -6.12547951 2.07331744 -10.25 1.625 C-11.32765625 1.51414062 -12.4053125 1.40328125 -13.515625 1.2890625 C-14.74539063 1.14597656 -14.74539063 1.14597656 -16 1 C-16 0.67 -16 0.34 -16 0 C-10.39436958 -0.82622671 -5.57710648 -1.06795656 0 0 Z " fill="#444343" transform="translate(442,564)"/>
<path d="M0 0 C2.64 1.65 5.28 3.3 8 5 C7.67 5.99 7.34 6.98 7 8 C6.34 8 5.68 8 5 8 C5 7.34 5 6.68 5 6 C4.38125 5.896875 3.7625 5.79375 3.125 5.6875 C1 5 1 5 -1 2 C-0.67 1.34 -0.34 0.68 0 0 Z " fill="#302F2F" transform="translate(342,540)"/>
<path d="M0 0 C2.00720923 0.28674418 4.0085944 0.61866701 6 1 C6.33 1.99 6.66 2.98 7 4 C6.01 4.99 5.02 5.98 4 7 C2.35 5.02 0.7 3.04 -1 1 C-0.67 0.67 -0.34 0.34 0 0 Z " fill="#1E1C1D" transform="translate(562,551)"/>
<path d="M0 0 C0.33 0 0.66 0 1 0 C1.144375 0.928125 1.28875 1.85625 1.4375 2.8125 C1.92100111 6.00725111 1.92100111 6.00725111 3 9 C1.02 9.99 1.02 9.99 -1 11 C-1.02688151 9.35425434 -1.04634123 7.70838587 -1.0625 6.0625 C-1.07410156 5.14597656 -1.08570313 4.22945313 -1.09765625 3.28515625 C-1 1 -1 1 0 0 Z " fill="#383637" transform="translate(546,448)"/>
<path d="M0 0 C0.99 0 1.98 0 3 0 C1.25 5.75 1.25 5.75 -1 8 C-1.99 6.68 -2.98 5.36 -4 4 C-3.34 4 -2.68 4 -2 4 C-1.34 2.68 -0.68 1.36 0 0 Z " fill="#302D2E" transform="translate(301,379)"/>
<path d="M0 0 C0.66 0.33 1.32 0.66 2 1 C2 1.66 2 2.32 2 3 C1.34 3 0.68 3 0 3 C0.309375 3.8971875 0.309375 3.8971875 0.625 4.8125 C1 7 1 7 -1 10 C-1.66 10 -2.32 10 -3 10 C-2.49287967 6.28111761 -1.88391785 3.26545761 0 0 Z " fill="#1D1A1A" transform="translate(292,379)"/>
<path d="M0 0 C2 2 2 2 2 5 C0.35 5.66 -1.3 6.32 -3 7 C-3 3.48283697 -2.17554415 2.62878252 0 0 Z " fill="#353334" transform="translate(523,512)"/>
<path d="M0 0 C0.66 0.33 1.32 0.66 2 1 C2.1875 3.375 2.1875 3.375 2 6 C1.01 6.66 0.02 7.32 -1 8 C-1 7.34 -1 6.68 -1 6 C-1.66 5.67 -2.32 5.34 -3 5 C-2.01 3.35 -1.02 1.7 0 0 Z " fill="#333132" transform="translate(530,501)"/>
<path d="M0 0 C0.66 0.33 1.32 0.66 2 1 C0.92598892 3.91517292 0.22189824 5.77810176 -2 8 C-2.93423645 4.98968256 -3.04449911 4.13349732 -2 1 C-1.34 0.67 -0.68 0.34 0 0 Z " fill="#2C2C2C" transform="translate(307,369)"/>
<path d="M0 0 C2.0625 0.4375 2.0625 0.4375 4 1 C4 1.99 4 2.98 4 4 C3.34 3.67 2.68 3.34 2 3 C1.67 3.66 1.34 4.32 1 5 C0.01 5.495 0.01 5.495 -1 6 C-1.042721 4.33388095 -1.04063832 2.66617115 -1 1 C-0.67 0.67 -0.34 0.34 0 0 Z " fill="#1D1C1D" transform="translate(295,384)"/>
<path d="M0 0 C0 3 0 3 -2 5.1875 C-2.66 5.785625 -3.32 6.38375 -4 7 C-5 6 -5 6 -5.0625 3.4375 C-5.041875 2.633125 -5.02125 1.82875 -5 1 C-4.34 1.66 -3.68 2.32 -3 3 C-2.01 2.01 -1.02 1.02 0 0 Z " fill="#1B1819" transform="translate(534,514)"/>
<path d="M0 0 C1.485 0.99 1.485 0.99 3 2 C3.99 2 4.98 2 6 2 C5.01 3.32 4.02 4.64 3 6 C1.68 5.01 0.36 4.02 -1 3 C-0.67 2.01 -0.34 1.02 0 0 Z " fill="#2B2B2B" transform="translate(592,578)"/>
<path d="M0 0 C2.4375 0.8125 2.4375 0.8125 5 2 C5.33 2.99 5.66 3.98 6 5 C3 5 3 5 1.3125 3.625 C0 2 0 2 0 0 Z " fill="#393738" transform="translate(561,554)"/>
<path d="M0 0 C0 0.66 0 1.32 0 2 C0.99 2.33 1.98 2.66 3 3 C2.34 3.66 1.68 4.32 1 5 C0.01 4.67 -0.98 4.34 -2 4 C-2 3.34 -2 2.68 -2 2 C-2.66 1.67 -3.32 1.34 -4 1 C-2 0 -2 0 0 0 Z " fill="#1C1A1B" transform="translate(519,522)"/>
<path d="M0 0 C0 0.99 0 1.98 0 3 C-1.98 3.99 -1.98 3.99 -4 5 C-4.99 4.01 -5.98 3.02 -7 2 C-4.35261084 0.5393715 -3.10551666 0 0 0 Z " fill="#1B191A" transform="translate(318,519)"/>
<path d="M0 0 C1.52519276 0.08937803 3.04681929 0.24537146 4.5625 0.4375 C5.80193359 0.59025391 5.80193359 0.59025391 7.06640625 0.74609375 C7.70449219 0.82988281 8.34257812 0.91367187 9 1 C6.33788628 2.37579827 3.93703384 3.37063561 1 4 C1 3.34 1 2.68 1 2 C0.34 1.67 -0.32 1.34 -1 1 C-0.67 0.67 -0.34 0.34 0 0 Z " fill="#3E3C3D" transform="translate(377,314)"/>
</svg>
