<svg xmlns="http://www.w3.org/2000/svg" width="980" height="980"><path fill="#0f2232" d="m519 307 2.66 2.043c34.857 27.535 56.072 68.095 62.653 111.707 3.673 34.795-2.7 67.714-19.563 98.332-1.05 2.083-1.05 2.083.25 4.918 1.42 1.378 1.42 1.378 3.219 2.645l2.05 1.53 2.231 1.638c6.212 4.647 12.29 9.408 18.25 14.375a524 524 0 0 0 17.941 14.253c3.835 2.94 7.57 6 11.309 9.059 4.802 3.926 9.63 7.802 14.563 11.563 5.322 4.06 10.562 8.213 15.781 12.406q6.297 5.054 12.656 10.031c4.88 3.822 9.73 7.68 14.563 11.563A945 945 0 0 0 694.48 626.3C724.428 649.237 724.428 649.237 737 661l2.18 1.781c3.865 3.54 5.203 6.427 5.495 11.723.107 17.623-6.368 34.785-18.563 47.51-8.778 8.798-21.494 17.764-34.3 18.486-5.578-.059-8.126-1.545-11.992-5.45L678 733l-1.695-1.895a317 317 0 0 1-3.39-3.937c-2.207-2.499-4.542-4.827-6.915-7.168a179 179 0 0 1-10.29-11.07c-2.456-2.771-5.104-5.333-7.741-7.93-2.523-2.563-4.845-5.273-7.188-8-2.412-2.708-4.985-5.232-7.593-7.75-1.9-1.955-3.69-3.95-5.477-6.008-3.594-4.138-7.32-8.136-11.086-12.117-5.012-5.318-9.96-10.675-14.816-16.137a103 103 0 0 0-4.871-4.988C595 644 595 644 595 642h-2c-1.463-1.469-1.463-1.469-3.156-3.5-3.655-4.296-7.464-8.408-11.344-12.5l-4.23-4.48-2.15-2.275c-23.862-25.269-23.862-25.269-33.288-36.163-3.204-3.641-6.505-7.196-9.793-10.762C527 570 527 570 526 568c-3.785 1.32-6.313 2.925-9.312 5.563-6.689 5.47-14.046 9.467-21.688 13.437l-2.076 1.08c-38.761 19.848-82.33 21.892-123.558 8.7C345.847 589.02 323.768 576.328 306 559l-3.328-3.14C294.38 547.922 287.35 539.555 281 530l-1.214-1.815c-22.745-34.53-29.398-78.406-21.606-118.681 1.306-6.25 2.693-12.495 4.422-18.644.945-3.422 1.385-6.108 1.195-9.676-.139-5.702 2.79-10.242 5.453-15.122l1.643-3.064c21.416-39.15 55.837-69.63 98.95-82.6C420.406 266.198 477.19 274.227 519 307"/><path fill="#fefefe" d="m453 314 3.012.621C472.493 318.495 488.25 328.183 501 339l1.93 1.559C519.793 354.387 532.666 376.32 539 397l1.047 3.164C550.66 433.005 547.432 469.208 532 500c-2.457 4.168-5.137 8.102-8 12l-1.867 2.547c-21.796 28.398-54.2 44.756-89.324 49.765-27.74 3.419-56.582-.28-79.809-16.312l-3.11-2.07c-7.148-4.79-13.66-9.977-19.89-15.93l-1.82-1.629c-24.695-22.914-35.906-59.482-37.344-92.09-.218-10.08 1.019-19.445 3.164-29.281l.773-3.738c6.782-28.964 26.59-55.254 51.692-71.002C378.611 312.755 416.051 305.682 453 314"/><path fill="#252222" d="M504.684 326.086C533.837 351.257 551.613 383.778 557 422c.114 2.63.187 5.233.203 7.863l.017 2.274q.014 2.38.02 4.763c.01 2.367.04 4.734.072 7.102.24 34.488-13.563 65.977-37.66 90.467-20.232 19.88-45.93 32.88-73.652 38.531l-2.034.449c-33.55 7.318-70.717 1.738-99.821-16.832C328.71 546.225 315.165 532.543 305 517l-1.93-2.852c-8.055-12.38-13.337-25.879-17.445-40.023l-.723-2.48c-3.453-12.524-4.314-24.859-4.277-37.77l.004-2.341c.05-11.914.627-23.13 4.371-34.534l.83-2.565c5.87-17.648 14.492-32.07 26.17-46.435l1.28-1.586c3.553-4.347 7.435-7.821 11.72-11.414l2.398-2.094c10.66-9.09 22.579-16.689 35.602-21.906l3.035-1.266c44.713-18.037 100.453-15.248 138.649 16.352M354 328l-2.754 1.492C325.598 344.066 303.96 369.285 296 398c-9.145 36.208-5.19 73.68 13.877 106.167 5.757 9.402 12.521 17.855 20.123 25.833l1.555 1.781c5.576 6.126 12.752 10.434 19.605 14.99a317 317 0 0 1 4.527 3.092c8.811 6.089 17.359 9.81 27.875 11.887l2.96.629C421.59 569.65 459.558 563.092 490 544c7.582-5.044 14.377-10.766 21-17l2.016-1.785C533.415 506.35 544.736 476.303 546 449c.376-10.853-.334-21.273-2-32l-.402-2.629C541.025 399.888 536.086 386.82 529 374l-1.531-2.8c-7.177-12.5-16.287-24.088-27.469-33.2l-2.582-2.125C456.634 303.739 398.508 303.268 354 328"/><path fill="#9a895f" d="M516.336 328.567C541.055 349.848 557.34 379.235 564 411l.564 2.668c1.612 8.485 1.796 16.857 1.749 25.457l-.009 2.213C566.077 480.415 551.067 514.998 524 543l-2.46 2.617c-25.65 26.645-62.101 41.951-98.893 42.666-17.215.15-33.271-1.824-49.647-7.283l-1.876-.62c-37.007-12.435-68.339-38.737-86.21-73.494-17.897-36.075-19.6-78.844-6.914-116.886 4.003-11.257 8.79-21.43 16-31l1.672-2.27A227 227 0 0 1 301 350l1.344-1.65a892 892 0 0 1 4.469-5.412l1.456-1.774c1.199-1.427 2.46-2.8 3.731-4.164h2l1-3c52.626-55.654 145.237-52.47 201.336-5.433M359 313l-2.777 1.297C344.773 319.779 334.72 326.88 325 335l-2.082 1.672C317.134 341.463 312.578 347.07 308 353l-2.066 2.66c-7.848 10.428-13.706 21.02-18.247 33.215l-.986 2.607c-4.646 13.033-6.21 25.994-6.092 39.745.016 2.207 0 4.412-.02 6.619-.02 13.758 2.048 27.063 6.161 40.217l.78 2.524c11.167 35.109 35.163 65.23 68.036 82.296C383.394 576.79 415.784 579.667 446 573l1.99-.406c35.796-7.333 69.105-28.871 89.317-59.479 14.17-22.37 20.349-46.639 20.13-72.927l-.009-2.375c-.07-12.32-.912-23.94-4.428-35.813l-.633-2.25C547.603 383.103 540.406 366.895 530 353l-1.973-2.645C512.97 331.133 495.443 317.452 473 308l-3.305-1.46C435.172 292.611 391.956 296.733 359 313"/><path fill="#fcdc41" d="M554 535c3.683 1.635 6.639 3.908 9.813 6.375l1.713 1.329c4.937 3.842 9.806 7.769 14.677 11.694 4.506 3.614 9.095 7.1 13.735 10.54 6.23 4.623 12.278 9.431 18.277 14.35 5.016 4.106 10.11 8.086 15.265 12.017a904 904 0 0 1 8.258 6.39l2.481 1.938q2.435 1.904 4.866 3.81l2.24 1.748 2.002 1.569c1.662 1.307 1.662 1.307 3.673 2.24-.627 10.87-5.185 21.355-13 29-13.266 10.45-13.266 10.45-21.387 9.813-3.44-1.07-5.008-2.78-7.488-5.375l-2.43-2.504a257 257 0 0 1-5.81-6.558c-4.055-4.64-8.37-8.987-12.74-13.33l-2.498-2.492q-3.914-3.905-7.835-7.804l-5.294-5.281a15200 15200 0 0 0-11.641-11.6L559 591l-2.24-2.113C555 587 555 587 555 585l-3-1a241 241 0 0 1-3.492-4.266c-1.648-1.895-3.411-3.477-5.32-5.109a196 196 0 0 1-8.688-7.875c-.67-.645-1.34-1.29-2.031-1.953C531 563 531 563 531 560a140 140 0 0 1 4.238-3.508c3.31-2.802 5.985-6.176 8.762-9.492l1.287-1.535q4.37-5.221 8.713-10.465"/><path fill="#182b3a" d="M332.563 423.938 335 424l.078 2.938c.791 21.271 7.455 41.005 21.922 57.062l2.441 2.832c4.254 4.837 8.136 8.658 13.559 12.168l1.504 1.54c12.856 12.553 34.61 16.757 51.76 16.701 5.953-.088 11.822-.56 17.736-1.241.375 2.75.375 2.75 0 6-2.057 1.885-3.542 2.788-6 4l-2.332 1.355c-12 6.13-26.944 5.399-39.543 1.332-15.996-5.654-33.867-14.097-44.598-27.8-2.004-2.476-4.274-4.637-6.527-6.887-5.87-6.544-10.464-12.955-14-21l-1.082-2.203c-5.238-10.907-8.44-24.146-5.309-36.129.766-1.793.766-1.793 2.391-4.668l1.125-2.875c1.28-3.11 1.28-3.11 4.438-3.187"/><path fill="#88733c" d="M641.813 654.875c13.97 5.185 28.92 6.184 43.687 6.25l2.875.017c4.683-.008 9.267-.156 13.922-.685 12.179-1.327 12.179-1.327 17.035 1.445 2.47 2.236 4.566 4.522 6.668 7.098l2 1v2c-29.702 2.893-59.208-.541-88.125-7.562l-2.495-.6c-10.007-2.55-10.007-2.55-12.692-7.025L624 655a175 175 0 0 1 3.688-1.562l2.074-.88c4.348-1.085 8.04.687 12.05 2.317"/><path fill="#88743e" d="m635 667 3.813 1.188q3.09.914 6.187 1.812l2 .584c28.199 8.142 56.808 9.45 86 7.416v9q-2.218.476-4.437.938l-2.497.527c-18.193 3.175-36.463 2.345-54.504-1.215l-3.89-.764c-19.3-4.05-19.3-4.05-24.047-8.923L642 675l-2.625-2.625C637 670 637 670 635 667"/><path fill="#88743e" d="m655 687 1.817.443q4.121 1 8.245 1.995l2.858.697c9.651 2.32 18.919 3.148 28.83 3.49l3.884.136c10.178.307 20.22.06 30.366-.761q-.967 2.438-1.937 4.875l-1.09 2.742C727 703 727 703 726 705c-15.655 3.92-32.532 2.668-48.15-.616a112 112 0 0 0-4.557-.83c-7.74-1.756-13.336-8.724-18.293-14.554zM649.013 640.06c2.455.55 4.79 1.262 7.175 2.065 9.56 3.02 18.04 4.039 28.06 3.607 14.208-.54 14.208-.54 19.627 3.643 1.93 1.898 1.93 1.898 3.125 3.625v2c-23.853 4.72-46.614.212-70-5l5-5 2.238-2.945C647 640 647 640 649.013 640.06"/><path fill="#252424" d="M557 547c11.224 1.238 20.176 11.637 28.367 18.832 3.875 3.397 7.853 6.654 11.856 9.898a764 764 0 0 1 9.84 8.207l1.7 1.435c2.147 1.82 4.245 3.636 6.237 5.628v4c-2.023.867-2.023.867-5 1-2.824-1.613-5.183-3.74-7.625-5.875l-2.143-1.81a684 684 0 0 1-4.26-3.628c-2.605-2.229-5.252-4.397-7.91-6.562l-2.628-2.156a332 332 0 0 0-6.809-5.344c-3.88-3.003-7.673-6.103-11.437-9.25l-1.672-1.38c-3.253-2.74-6.146-5.45-8.516-8.995z"/><path fill="#89743e" d="M659.59 626.195a80 80 0 0 1 4.347-.07l2.296.009c10.588.514 16.65 7.66 23.767 14.866-13.235.493-26.149-.676-39-4a123 123 0 0 1 2-5l1.078-2.621C656 627 656 627 659.59 626.195"/><path fill="#88733c" d="m673 706 3.39.875c14.893 3.545 29.365 3.555 44.61 3.125-2 4.196-3.844 7.664-8 10-4.406.505-8.61.016-13-.5l-3.523-.32c-14.314-1.409-14.314-1.409-19.852-7.18l-2.086-2.125C673 708 673 708 673 706"/><path fill="#262425" d="M497 332c3.875 1.75 3.875 1.75 5 4l3-3 1 4h5l1 5 2-2v3l4 1-1.875.188c-2.403.64-2.403.64-3.375 3.375L512 350c-2-1.375-2-1.375-4-3v-2l-1.703-.742c-2.716-1.487-4.76-3.299-7.047-5.383l-2.422-2.195L495 335l2-1z"/><path fill="#252324" d="m530 501 2 1c.2 3.716.152 4.772-2 8l2 1v7l-2-1 .688 2.313L531 522c-1.437 1.813-1.437 1.813-3 3l-3-1 1-6-2.375.5C521 519 521 519 519 519c1.832-3.987 4.239-7.58 6.625-11.25l1.273-1.969A3028 3028 0 0 1 530 501"/><path fill="#2b292a" d="M479 550v2h-2l-1 3-2 1 1 2-2 1 1 5-7 3-3-3c1.375-1.5 1.375-1.5 3-3h2v-2l-4-1v2c-2.875.125-2.875.125-6 0l-2-2q4.935-2.007 9.875-4l2.84-1.156 2.715-1.094 2.507-1.016C477 550 477 550 479 550"/><path fill="#201e1e" d="m389 564 3.813-.125 2.144-.07C397 564 397 564 400 566h-3l1 3c-.437 2.688-.437 2.688-1 5-9.41.369-9.41.369-14-2l1-3c2.063-.687 2.063-.687 4-1z"/><path fill="#222020" d="M294 375h5c1.381 2.275 2.057 3.502 1.75 6.188C300 383 300 383 298 384l2 4-3-1-1 2-2 1-1-4-2 3h-2c.535-5.348 2.467-9.358 5-14"/><path fill="#211f20" d="M526 517c1.036 3.626 1.588 6.677 0 10.25l-1 1.75c-2.929-.628-5.361-1.586-8-3v-2h-2c1.095-3.174 1.982-3.99 4.938-5.75C523 517 523 517 526 517"/><path fill="#897542" d="M686 720c13.455 1.067 13.455 1.067 19 3l1 2c-1.575.727-3.16 1.431-4.75 2.125l-2.672 1.195c-2.578.68-2.578.68-4.703.024-2.058-1.475-3.527-3.007-5.125-4.969l-1.578-1.914z"/><path fill="#211e1f" d="m479 550 3 1-1 4 4 1c-1.207 2.791-2.217 4.605-4.98 6-1.985.73-4.001 1.371-6.02 2l-2-7a141 141 0 0 1 5-5h2z"/><path fill="#201d1d" d="m305 357 4 2-2 4h-2l1 5h3l-1 2h-3l-1 2-2 1v-5l-1.812 1.813L295 375c1.353-4.741 3.334-8.323 6.125-12.375l2.195-3.21z"/><path fill="#1f1d1d" d="M536 502h4v3h-2v2l2 1a833 833 0 0 1-3.312 5.375l-1.864 3.023C533 519 533 519 530 521c-1-1-1-1-1.062-3.562L529 515l2 1c.082-3.044-.024-5.072-1-8l5 1v-3c0-3 0-3 1-4"/><path fill="#2a2829" d="m332 337 1 2h2l1-2 1 3a3622 3622 0 0 1-5.75 5.313l-1.633 1.513c-2.773 2.554-5.539 4.985-8.617 7.174l-2-3 3-1c1.209-2 1.209-2 2-4l-2-1 7-2 .375-1.875C330 339 330 339 332 337"/><path fill="#2c282a" d="M299 481c1.627 2.44 2.777 4.573 3.945 7.23l1.075 2.432 1.105 2.526 1.129 2.56Q307.63 498.873 309 502l-3 1v-2l-4-1c-.7-3.153-1-5.727-1-9h-2l-1-4h2l-1.062-1.875c-.31-.701-.62-1.402-.938-2.125z"/><path fill="#2b2829" d="m538 484 4 1c1.25 7.625 1.25 7.625-1 11h-3l-1 2c-1.613-1.672-1.613-1.672-3-4 .582-2.578.582-2.578 1.813-5.25l1.207-2.703z"/><path fill="#1f1d1e" d="m381 305 3 1-2 3 2 1.875c2 2.125 2 2.125 2 4.125q-2.937.079-5.875.125l-3.305.07C374 315 374 315 372 313l2.938-1.812c3.293-1.9 3.293-1.9 4.062-5.188z"/><path fill="#282727" d="M621 598c4.45-.36 4.45-.36 6.813 1.188 1.57 2.396 1.483 4.002 1.187 6.812-1 1-1 1-3.375 1.25-2.625-.25-2.625-.25-4.5-1.375-1.678-2.797-.874-4.812-.125-7.875"/><path fill="#1f1d1e" d="M465 306c3.362.454 6.04 1.356 9 3l-2 1a78 78 0 0 0-2 5l2 1c-2.572 1.62-3.677 2.044-6.75 1.625L463 317c1-2 1-2 3-3l-2-7z"/><path fill="#2d2b2c" d="M557 547c4.874.453 7.39 1.709 11 5-3 1-3 1-6 1l5 5-2 2a391 391 0 0 1-4-4.25l-2.25-2.39C557 551 557 551 557 547"/><path fill="#282627" d="m502 534 2 1c.625 2.563.625 2.563 1 5l-3 1 1 2-5 2v-4l-2-2z"/><path fill="#1f1c1d" d="M351 317c2.438.688 2.438.688 5 2 1.18 3.29 1.116 4.653 0 8h-5v-5l-2-1z"/><path fill="#302e2f" d="m583 565 4 2v3c-2.763.597-5.16 1-8 1-1.687-1.375-1.687-1.375-3-3v-2l7 1z"/><path fill="#897540" d="M659 617a56.5 56.5 0 0 1 7 4v2l-9 1z"/><path fill="#2a2829" d="M497 332c1.875.688 1.875.688 4 2a78 78 0 0 1 2 5l2 1-3 1c-1.824-1.215-1.824-1.215-3.687-2.937l-1.887-1.715L495 335l2-1z"/><path fill="#1e1c1c" d="m346 320 2 1-2 2 3 1-2.437.813L344 326l-1 3h-2l-1-5z"/><path fill="#1c1a1b" d="M440 567h2l1 4h6c-3.452 2.301-4.235 2.138-8.187 1.625l-2.731-.336L436 572l2-3h2z"/><path fill="#1e1c1d" d="m349 546 3 1c.813 1.938.813 1.938 1 4l-2 2h-3c-1.687-2-1.687-2-3-4l4-1z"/><path fill="#1b1919" d="M514 336q1.693 1.4 3.375 2.813l1.898 1.582C521 342 521 342 523 345h-2v2h-2l-1-3-2-2v-2a89 89 0 0 0-2-4"/><path fill="#2d2b2c" d="M509 337h2l-2 10-1-2c-2.017-1.134-2.017-1.134-4-2l1.938-1.875c2.1-1.951 2.1-1.951 3.062-4.125"/><path fill="#302f30" d="m512 525 2 2-1 3h-3l1 5-5-4z"/><path fill="#323031" d="M299 481c4.113 6.17 4.113 6.17 3.625 9.75L302 493l-1-2h-2l-1-4h2l-1.062-1.875c-.31-.701-.62-1.402-.938-2.125z"/><path fill="#444343" d="M442 564c-3.558 2.263-6.125 2.073-10.25 1.625l-3.266-.336L426 565v-1c5.606-.826 10.423-1.068 16 0"/><path fill="#302f2f" d="m342 540 8 5-1 3h-2v-2l-1.875-.312C343 545 343 545 341 542z"/><path fill="#1e1c1d" d="M562 551q3.012.43 6 1l1 3-3 3-5-6z"/><path fill="#383637" d="M546 448h1l.438 2.813c.483 3.194.483 3.194 1.562 6.187l-4 2a758 758 0 0 1-.062-4.937l-.036-2.778C545 449 545 449 546 448"/><path fill="#302d2e" d="M301 379h3c-1.75 5.75-1.75 5.75-4 8l-3-4h2z"/><path fill="#1d1a1a" d="m292 379 2 1v2h-2l.625 1.813C293 386 293 386 291 389h-2c.507-3.719 1.116-6.735 3-10"/><path fill="#353334" d="M523 512c2 2 2 2 2 5l-5 2c0-3.517.824-4.371 3-7"/><path fill="#333132" d="m530 501 2 1c.188 2.375.188 2.375 0 5l-3 2v-2l-2-1z"/><path fill="#2c2c2c" d="m307 369 2 1c-1.074 2.915-1.778 4.778-4 7-.934-3.01-1.044-3.867 0-7z"/><path fill="#1d1c1d" d="M295 384c2.063.438 2.063.438 4 1v3l-2-1-1 2-2 1a100 100 0 0 1 0-5z"/><path fill="#1b1819" d="M534 514c0 3 0 3-2 5.188L530 521c-1-1-1-1-1.062-3.562L529 515l2 2z"/><path fill="#2b2b2b" d="m592 578 3 2h3l-3 4-4-3z"/><path fill="#393738" d="M561 554c2.438.813 2.438.813 5 2l1 3c-3 0-3 0-4.687-1.375C561 556 561 556 561 554"/><path fill="#1c1a1b" d="M519 522v2l3 1-2 2-3-1v-2l-2-1c2-1 2-1 4-1"/><path fill="#1b191a" d="M318 519v3l-4 2-3-3c2.647-1.46 3.894-2 7-2"/><path fill="#3e3c3d" d="M377 314c1.525.09 3.047.245 4.563.438l2.503.308L386 315c-2.662 1.376-5.063 2.37-8 3v-2l-2-1z"/></svg>