<svg xmlns="http://www.w3.org/2000/svg" viewBox="0 0 100 100" width="80" height="80">
  <!-- Oil can body -->
  <path d="M30,85 C25,85 20,80 20,70 L20,45 C20,35 25,30 35,30 L65,30 C75,30 80,35 80,45 L80,70 C80,80 75,85 70,85 Z" 
        fill="#ff3b6f" stroke="#1a1a2e" stroke-width="4.5" stroke-linejoin="round"/>
  <!-- Handle -->
  <path d="M20,45 C10,45 10,70 20,70" fill="none" stroke="#1a1a2e" stroke-width="4.5" stroke-linecap="round"/>
  <!-- Spout -->
  <path d="M60,30 L85,5 C87,3 90,6 88,8 L70,30" fill="#b0c4de" stroke="#1a1a2e" stroke-width="4.5" stroke-linejoin="round"/>
  <!-- Oil Drop -->
  <path d="M86,16 C86,16 83,22 83,25 C83,28 85,30 87,30 C89,30 91,28 91,25 C91,22 86,16 86,16 Z" 
        fill="#ffd43f" stroke="#1a1a2e" stroke-width="3" stroke-linejoin="round"/>
</svg>
