<?xml version="1.0" encoding="UTF-8"?>
<svg version="1.1" xmlns="http://www.w3.org/2000/svg" width="221" height="198">
<path d="M0 0 C2.97 0 5.94 0 9 0 C12.89587477 9.18313338 15.80156859 18.60751993 18.75 28.125 C20.4825 33.69375 22.215 39.2625 24 45 C41.49 45.33 58.98 45.66 77 46 C77 53 77 53 75.8125 54.828125 C75.214375 55.29734375 74.61625 55.7665625 74 56.25 C73.2678125 56.82878906 72.535625 57.40757813 71.78125 58.00390625 C67.71191104 60.92445711 63.5950344 63.77131052 59.4453125 66.57641602 C51.76103301 71.78169409 44.38064976 77.37618044 37 83 C37.61242047 88.7386244 39.1247945 93.8170084 41.01171875 99.2578125 C41.6106321 101.03495212 42.20892099 102.81230228 42.80664062 104.58984375 C43.74795705 107.36821765 44.69426251 110.14458714 45.65161133 112.91748047 C46.57802577 115.60952347 47.48375118 118.30783011 48.38671875 121.0078125 C48.82403572 122.24859055 48.82403572 122.24859055 49.27018738 123.51443481 C51.18759166 129.3134594 51.18759166 129.3134594 50.16333008 133.06201172 C49.77943115 133.70154785 49.39553223 134.34108398 49 135 C44.95138569 135.30617177 43.05419404 134.7521268 39.84765625 132.2890625 C39.07760254 131.70817871 38.30754883 131.12729492 37.51416016 130.52880859 C36.7051123 129.90055176 35.89606445 129.27229492 35.0625 128.625 C33.3639756 127.33762505 31.66475083 126.05117365 29.96484375 124.765625 C29.12679199 124.12689453 28.28874023 123.48816406 27.42529297 122.83007812 C24.04014659 120.27571359 20.59114842 117.8177372 17.125 115.375 C14.07835265 113.22399356 11.15735267 111.13960964 8.3671875 108.6640625 C6.21694621 106.82030403 6.21694621 106.82030403 4.0546875 106.97265625 C1.12465531 108.43767234 -1.33951198 110.39029975 -3.875 112.4375 C-9.69513618 117.0265655 -15.63523921 121.39562748 -21.69921875 125.65625 C-23.80500054 127.13681123 -25.84932444 128.65103412 -27.89453125 130.21875 C-28.75433594 130.8684375 -29.61414063 131.518125 -30.5 132.1875 C-31.2321875 132.75855469 -31.964375 133.32960937 -32.71875 133.91796875 C-35.79110757 135.37523424 -37.76686451 134.80363856 -41 134 C-42.07986369 130.74683602 -41.91828641 128.89993647 -40.8125 125.67797852 C-40.38710937 124.41130089 -40.38710937 124.41130089 -39.953125 123.11903381 C-39.63859375 122.21479172 -39.3240625 121.31054962 -39 120.37890625 C-38.35415208 118.45508302 -37.70831921 116.53125474 -37.0625 114.60742188 C-36.03186827 111.58018704 -34.99721188 108.55436034 -33.9609375 105.52905273 C-32.96409113 102.60723705 -31.98161015 99.68086895 -31 96.75390625 C-30.52820313 95.40057945 -30.52820313 95.40057945 -30.046875 94.01991272 C-29.76328125 93.17230881 -29.4796875 92.3247049 -29.1875 91.45141602 C-28.93355469 90.71069351 -28.67960937 89.96997101 -28.41796875 89.20680237 C-27.9005687 86.47501999 -28.17022538 84.64662623 -29 82 C-31.09809684 80.14073551 -33.07044233 78.62137054 -35.375 77.0625 C-36.73370581 76.10636749 -38.09174521 75.14928748 -39.44921875 74.19140625 C-40.17931152 73.6823877 -40.9094043 73.17336914 -41.66162109 72.64892578 C-45.88773869 69.66884662 -50.03172824 66.57700034 -54.1875 63.5 C-55.78499135 62.32269287 -57.38263798 61.14559642 -58.98046875 59.96875 C-60.32137014 58.98060026 -61.66126722 57.99108577 -63 57 C-63.74290283 56.60876953 -64.48580566 56.21753906 -65.2512207 55.81445312 C-67 54 -67 54 -67 46 C-49.84 45.67 -32.68 45.34 -15 45 C-11.535 34.605 -11.535 34.605 -8 24 C-5.33333333 16 -2.66666667 8 0 0 Z " fill="#201E2C" transform="translate(105,31)"/>
<path d="M0 0 C3.29518008 3.68629937 4.47275545 7.81758789 5.9375 12.4375 C6.32663574 13.63161499 6.32663574 13.63161499 6.72363281 14.84985352 C8.62126994 20.70442852 10.41998273 26.58704594 12.140625 32.49609375 C12.95033523 35.20126939 12.95033523 35.20126939 15 38 C18.04440276 38.33761035 20.8948124 38.48917443 23.9453125 38.51171875 C25.27283035 38.53864555 25.27283035 38.53864555 26.62716675 38.56611633 C29.45972904 38.62038985 32.29212126 38.65416919 35.125 38.6875 C37.04299251 38.72065808 38.96096253 38.75514631 40.87890625 38.79101562 C45.58581506 38.87612593 50.29267194 38.94285537 55 39 C51.40047563 42.67457796 47.72853342 45.77556464 43.5 48.6875 C36.50377219 53.58842036 29.73201938 58.74410447 23 64 C23.63652022 68.56180075 24.7919871 72.68907942 26.28515625 77.04296875 C26.50570175 77.69324539 26.72624725 78.34352203 26.95347595 79.01350403 C27.65211085 81.07302359 28.35656491 83.13047219 29.0625 85.1875 C29.99606711 87.90842551 30.92365993 90.63128038 31.84765625 93.35546875 C32.26023682 94.55840576 32.67281738 95.76134277 33.09790039 97.00073242 C34 100 34 100 34 103 C31.22414196 101.68041161 28.74310149 100.20980937 26.2421875 98.42578125 C25.53876221 97.92594727 24.83533691 97.42611328 24.1105957 96.91113281 C23.37284912 96.38358398 22.63510254 95.85603516 21.875 95.3125 C21.11598389 94.77592773 20.35696777 94.23935547 19.57495117 93.68652344 C16.31114237 91.3772543 13.06936046 89.05204199 9.87109375 86.65234375 C9.02675781 86.02457031 8.18242188 85.39679688 7.3125 84.75 C6.60738281 84.20859375 5.90226562 83.6671875 5.17578125 83.109375 C2.17119731 81.57741479 0.33854521 81.52126521 -3 82 C-6.05529245 83.81885313 -6.05529245 83.81885313 -9 86.375 C-10.13091822 87.29140515 -11.26380299 88.20538766 -12.3984375 89.1171875 C-12.98334961 89.59124023 -13.56826172 90.06529297 -14.17089844 90.55371094 C-17.24155041 92.98170643 -20.42971793 95.24002455 -23.625 97.5 C-24.51251953 98.13107666 -24.51251953 98.13107666 -25.41796875 98.77490234 C-27.92386657 100.55185135 -30.44377085 102.29584723 -33 104 C-31.47170526 97.32768881 -29.68526576 90.79624656 -27.5 84.3125 C-27.28561279 83.67513916 -27.07122559 83.03777832 -26.8503418 82.38110352 C-25.92372926 79.64938325 -24.97397242 76.9293679 -23.9765625 74.22265625 C-23.69554688 73.44792969 -23.41453125 72.67320313 -23.125 71.875 C-22.88007812 71.23304687 -22.63515625 70.59109375 -22.3828125 69.9296875 C-21.86199977 67.3043662 -22.24147462 65.56496557 -23 63 C-24.64985078 61.20325854 -24.64985078 61.20325854 -26.83203125 59.765625 C-28.02252075 58.91037231 -28.02252075 58.91037231 -29.23706055 58.0378418 C-30.08695557 57.447854 -30.93685059 56.85786621 -31.8125 56.25 C-33.54449074 55.01202636 -35.27626145 53.77374482 -37.0078125 52.53515625 C-37.85762695 51.93461426 -38.70744141 51.33407227 -39.58300781 50.71533203 C-42.81936633 48.4184982 -46.01047867 46.06542373 -49.1875 43.6875 C-50.12980469 42.99011719 -51.07210937 42.29273438 -52.04296875 41.57421875 C-52.68878906 41.05472656 -53.33460937 40.53523438 -54 40 C-54 39.67 -54 39.34 -54 39 C-52.251427 38.970271 -52.251427 38.970271 -50.4675293 38.93994141 C-46.14553095 38.86391041 -41.82387038 38.77518924 -37.50219727 38.68261719 C-35.63117132 38.64431706 -33.76007147 38.609466 -31.88891602 38.578125 C-29.20041481 38.53249676 -26.51242277 38.47449912 -23.82421875 38.4140625 C-22.56782845 38.39673569 -22.56782845 38.39673569 -21.28605652 38.37905884 C-17.37626963 38.27953543 -15.3229047 38.2152698 -12 36 C-10.98234266 33.38883203 -10.12677216 30.86300674 -9.3359375 28.18359375 C-9.09839752 27.41193375 -8.86085754 26.64027374 -8.61611938 25.8452301 C-7.85883038 23.37898133 -7.11634872 20.90858238 -6.375 18.4375 C-5.62387798 15.96373766 -4.86973046 13.49094435 -4.11245728 11.01905823 C-3.64194602 9.48007799 -3.17551458 7.93984363 -2.71347046 6.39830017 C-1.11019651 1.11019651 -1.11019651 1.11019651 0 0 Z " fill="#ECBF1E" transform="translate(109,47)"/>
<path d="M0 0 C2.0625 0.4375 2.0625 0.4375 4 1 C4.12276617 10.73944972 3.83779436 20.29056184 3 30 C1.35 29.67 -0.3 29.34 -2 29 C-1.88201056 25.03047101 -1.75778201 21.06119219 -1.62768555 17.09204102 C-1.58428777 15.74085853 -1.5426163 14.38961947 -1.50268555 13.03833008 C-1.44510048 11.09963299 -1.38085702 9.16113724 -1.31640625 7.22265625 C-1.27974854 6.05484619 -1.24309082 4.88703613 -1.20532227 3.68383789 C-1 1 -1 1 0 0 Z " fill="#9D7B20" transform="translate(107,65)"/>
<path d="M0 0 C0.99 0.33 1.98 0.66 3 1 C2.53409519 5.81136318 0.19667386 8.79673967 -2.75 12.4375 C-3.18054688 12.98470703 -3.61109375 13.53191406 -4.0546875 14.09570312 C-4.92192814 15.19273656 -5.79758229 16.28317278 -6.68164062 17.36669922 C-7.57711722 18.47609522 -8.45032973 19.60375916 -9.30273438 20.74658203 C-10.578125 22.41015625 -10.578125 22.41015625 -13 25 C-14.32 25 -15.64 25 -17 25 C-16.46296905 21.24037713 -15.60370388 19.05324281 -13.1640625 16.15234375 C-12.59429687 15.46462891 -12.02453125 14.77691406 -11.4375 14.06835938 C-10.839375 13.36517578 -10.24125 12.66199219 -9.625 11.9375 C-8.45002982 10.53035777 -7.27553545 9.12281807 -6.1015625 7.71484375 C-5.57900879 7.09730225 -5.05645508 6.47976074 -4.51806641 5.84350586 C-2.94937012 3.93851621 -1.46627547 1.98454218 0 0 Z " fill="#9D7D18" transform="translate(106,108)"/>
<path d="M0 0 C2.14453125 -0.0234375 2.14453125 -0.0234375 5 1 C7.2353114 3.5778375 8.93435635 6.45547914 10.6875 9.375 C11.41549805 10.54675781 11.41549805 10.54675781 12.15820312 11.7421875 C13.06016123 13.1952731 13.95566401 14.65239998 14.8425293 16.11474609 C15.85701394 17.76710855 16.92447068 19.38670602 18 21 C18 21.99 18 22.98 18 24 C15.8203125 23.95703125 15.8203125 23.95703125 13 23 C10.96392939 20.77223632 9.44643593 18.25610094 7.875 15.6875 C7.01903871 14.33672625 6.16228907 12.98645169 5.3046875 11.63671875 C4.90862305 10.99911621 4.51255859 10.36151367 4.10449219 9.70458984 C2.95290329 7.86186053 2.95290329 7.86186053 1.1953125 5.76953125 C0 4 0 4 0 0 Z " fill="#9D7D14" transform="translate(113,105)"/>
<path d="M0 0 C-0.28393555 1.90942383 -0.28393555 1.90942383 -1 4 C-3.64900279 5.11048591 -6.06270943 5.93930676 -8.8125 6.6875 C-9.53759766 6.89955078 -10.26269531 7.11160156 -11.00976562 7.33007812 C-14.3226821 8.29091483 -17.65155435 9.17322903 -21 10 C-21.33 8.68 -21.66 7.36 -22 6 C-6.34840426 -2.25265957 -6.34840426 -2.25265957 0 0 Z " fill="#9D7C18" transform="translate(144,89)"/>
<path d="M0 0 C6.43681228 0.51085812 11.95942424 1.72942897 18 4 C18 5.32 18 6.64 18 8 C11.56318772 7.48914188 6.04057576 6.27057103 0 4 C0 2.68 0 1.36 0 0 Z " fill="#9D7D14" transform="translate(79,90)"/>
<path d="" fill="#8B8140" transform="translate(0,0)"/>
<path d="" fill="#19192C" transform="translate(0,0)"/>
</svg>
