<svg xmlns="http://www.w3.org/2000/svg" shape-rendering="geometricPrecision" text-rendering="geometricPrecision" image-rendering="optimizeQuality" fill-rule="evenodd" clip-rule="evenodd" viewBox="0 0 512 510.246" width="80" height="80"><path fill="#1C3948" fill-rule="nonzero" d="M.468 449.531l18.904-72.847a8.368 8.368 0 016.038-6.011l-.005-.022 75.54-19.214 219.327-219.32a29.878 29.878 0 002.179-2.645c.651-.899 1.087-1.71 1.574-2.689.97-2.677.108-7.223-.731-11.642-2.997-15.784-2.296-32.537 2.423-47.926 7.643-24.916 24.903-43.654 45.708-54.939l-.007-.014c20.71-11.227 45.065-15.05 66.991-10.198a82.67 82.67 0 016.388 1.674 8.368 8.368 0 013.46 13.918l.015.016-43.295 43.295-.465 48.73 47.732-1.34L495.601 65a8.392 8.392 0 0114.241 4.737c1.802 8.198 2.465 16.722 2.028 25.27-1.028 20.079-8.136 40.399-20.821 57.029-12.764 16.733-31.152 29.752-54.658 35.101-9.268 2.109-19.312 3.011-30.091 2.46-2.948-.15-5.87-.578-8.895-1.02-5.335-.78-11.084-1.621-13.555-.625a9.05 9.05 0 00-1.813 1.005c-1.316.924-2.981 2.767-4.136 3.922L160.093 410.686l-19.787 74.965a8.37 8.37 0 01-6.253 6.038l-74.088 18.312a8.372 8.372 0 01-7.922-2.209l-.012.012-49.573-49.573a8.39 8.39 0 01-1.99-8.7zm117.455-28.236l-28.128-28.128-38.401 10.29-10.289 38.401 28.127 28.128 38.401-10.29 10.29-38.401z"/><path fill="#A0B7C6" d="M8.392 452.297l19.079-73.515 77.782-19.785 220.769-220.769c2.49-2.648 4.28-5.081 5.417-7.518 3.282-7.038-.209-16.044-.999-23.823-1.126-11.075-.521-21.296 1.551-30.66 11.5-51.961 67.736-77.561 110.347-64.49L396.65 57.426l-.58 60.874 59.777-1.677 45.689-45.689c11.333 49.804-23.775 113.937-94.81 110.303-7.812-.399-19.344-3.733-25.99-1.055-2.418.973-4.695 2.553-6.811 4.805L152.583 406.328l-20.375 77.192-74.243 18.35-49.573-49.573zm118.883-33.519l-17.482-17.481-17.482-17.482-23.881 6.399-23.88 6.399-6.399 23.881-6.398 23.88 17.481 17.482 17.482 17.482 23.88-6.399 23.881-6.399 6.399-23.881 6.399-23.881z"/><path fill="#1C3948" fill-rule="nonzero" d="M363.507 166.223c0 4.774-1.817 9.555-5.451 13.188L156.934 380.533c-3.633 3.634-8.415 5.45-13.188 5.45-4.727 0-9.461-1.781-13.081-5.344a8.197 8.197 0 01-.674-.732 18.553 18.553 0 01-4.883-12.563c0-4.773 1.816-9.555 5.449-13.187l200.144-200.145c3.961-3.96 8.177-6.428 14.166-6.428 10.295 0 18.64 8.336 18.64 18.639z"/><path fill="#B6D0DD" d="M352.122 158.969h-.001c-3.989-3.99-10.52-3.988-14.508 0L136.491 360.09c-3.987 3.988-3.987 10.521 0 14.508l.001.001c3.988 3.988 10.518 3.989 14.508 0l201.122-201.122c3.989-3.989 3.989-10.518 0-14.508z"/></svg>
